<svg xmlns="http://www.w3.org/2000/svg" version="1.1" xmlns:xlink="http://www.w3.org/1999/xlink" xmlns:svgjs="http://svgjs.dev/svgjs" width="1500" height="1500" viewBox="0 0 1500 1500"><rect width="1500" height="1500" fill="#000000"></rect><g transform="matrix(0.6666666666666666,0,0,0.6666666666666666,249.39393939393943,612.6795237401063)"><svg viewBox="0 0 396 109" data-background-color="#ffffff" preserveAspectRatio="xMidYMid meet" height="412" width="1500" xmlns="http://www.w3.org/2000/svg" xmlns:xlink="http://www.w3.org/1999/xlink"><g id="tight-bounds" transform="matrix(1,0,0,1,0.2400000000000091,-0.005102260940191172)"><svg viewBox="0 0 395.52 109.01020452188037" height="109.01020452188037" width="395.52"><g><svg viewBox="0 0 723.4963025680595 199.40453052631577" height="109.01020452188037" width="395.52"><g><rect width="13.398055441225328" height="178.2821306532663" x="279.50480356341706" y="10.56119993652473" fill="#ffffff" opacity="1" stroke-width="0" stroke="transparent" fill-opacity="1" class="rect-qz-0" data-fill-palette-color="primary" rx="1%" id="qz-0" data-palette-color="#61777f"></rect></g><g transform="matrix(1,0,0,1,327.97630256805945,25.41804415763025)"><svg viewBox="0 0 395.52 148.56844221105527" height="148.56844221105527" width="395.52"><g id="textblocktransform"><svg viewBox="0 0 395.52 148.56844221105527" height="148.56844221105527" width="395.52" id="textblock"><g><svg viewBox="0 0 395.52 148.56844221105527" height="148.56844221105527" width="395.52"><g transform="matrix(1,0,0,1,0,0)"><svg width="395.52" viewBox="0.75 -29.55 79.59 29.900000000000002" height="148.56844221105527" data-palette-color="#61777f"><path d="M4.05 0L0.75 0 7.3-29.55 11.35-29.55 17.8 0 14.4 0 12.8-6.85 5.55-6.85 4.05 0ZM9.25-25.7L5.65-8.6 12.75-8.6 9.25-25.7ZM28.7 0L25.05 0 19.25-24.75 22.45-24.75 27.1-3.55 27-3.55 31.35-24.75 34.3-24.75 28.7 0ZM43 0.05L43 0.05Q41.9 0.05 41-0.2 40.1-0.45 39.45-1.03 38.8-1.6 38.45-2.53 38.1-3.45 38.1-4.85L38.1-4.85 38.1-22.8 35.9-22.8 35.9-24.4 38.3-24.75 38.85-29.4 41.2-29.4 41.2-24.75 46.55-24.75 46.55-22.8 41.2-22.8 41.2-5.4Q41.2-4 41.7-3.05 42.2-2.1 43.9-2.1L43.9-2.1Q44.6-2.1 45.4-2.18 46.2-2.25 46.55-2.25L46.55-2.25 46.55-0.25Q46.15-0.25 45.15-0.1 44.15 0.05 43 0.05ZM54.24 0.35L54.24 0.35Q53.09 0.35 51.92 0.03 50.74-0.3 49.92-1.48 49.09-2.65 49.09-5.15L49.09-5.15 49.09-7.55Q49.09-10.05 50.62-11.58 52.14-13.1 54.79-14.3L54.79-14.3Q56.49-15.15 57.57-15.8 58.64-16.45 59.19-17.25 59.74-18.05 59.74-19.4L59.74-19.4 59.74-20.45Q59.74-21.65 59.24-22.3 58.74-22.95 57.92-23.2 57.09-23.45 56.19-23.45L56.19-23.45Q53.94-23.45 53.24-22.23 52.54-21 52.54-18.6L52.54-18.6 52.54-16.5 49.69-16.5 49.69-18.9Q49.69-20.75 50.19-22.18 50.69-23.6 52.09-24.43 53.49-25.25 56.19-25.25L56.19-25.25Q59.04-25.25 60.47-24.6 61.89-23.95 62.37-22.75 62.84-21.55 62.84-19.9L62.84-19.9 62.84 0 59.79 0 59.74-3.1Q59.14-1.4 57.59-0.53 56.04 0.35 54.24 0.35ZM55.39-1.75L55.39-1.75Q57.64-1.75 58.67-3.35 59.69-4.95 59.69-7.6L59.69-7.6 59.69-15.5Q59.19-14.7 58.04-14.05 56.89-13.4 55.69-12.75L55.69-12.75Q53.99-11.75 53.07-10.68 52.14-9.6 52.14-7.7L52.14-7.7 52.14-5.75Q52.14-3.95 52.64-3.1 53.14-2.25 53.89-2 54.64-1.75 55.39-1.75ZM68.49 0L65.44 0 71.04-13.05 66.24-24.75 69.24-24.75 72.99-15.55 76.99-24.75 79.94-24.75 74.94-13.05 80.34 0 77.34 0 72.99-10.3 68.49 0Z" opacity="1" transform="matrix(1,0,0,1,0,0)" fill="#ffffff" class="wordmark-text-0" data-fill-palette-color="primary" id="text-0"></path></svg></g></svg></g></svg></g></svg></g><g><svg viewBox="0 0 244.43135999999998 199.40453052631577" height="199.40453052631577" width="244.43135999999998"><g><svg xmlns="http://www.w3.org/2000/svg" xmlns:xlink="http://www.w3.org/1999/xlink" version="1.1" x="0" y="0" viewBox="12 19 76 62" enable-background="new 0 0 100 100" xml:space="preserve" height="199.40453052631577" width="244.43135999999998" class="icon-icon-0" data-fill-palette-color="accent" id="icon-0"><path d="M76 19v2.938c0 1.07-0.896 1.938-2 1.938s-2-0.867-2-1.938V19h-8v2.938c0 1.07-0.896 1.938-2 1.938s-2-0.867-2-1.938V19h-8v2.938c0 1.07-0.896 1.938-2 1.938s-2-0.867-2-1.938V19h-8v2.938c0 1.07-0.896 1.938-2 1.938s-2-0.867-2-1.938V19h-8v2.938c0 1.07-0.896 1.938-2 1.938s-2-0.867-2-1.938V19H12v62h76V19H76zM52 68H25V56h27V68zM50.5 45.375h-24c-0.828 0-1.5-0.672-1.5-1.5s0.672-1.5 1.5-1.5h24c0.828 0 1.5 0.672 1.5 1.5S51.328 45.375 50.5 45.375zM50.5 37.375h-24c-0.828 0-1.5-0.672-1.5-1.5s0.672-1.5 1.5-1.5h24c0.828 0 1.5 0.672 1.5 1.5S51.328 37.375 50.5 37.375zM69.699 60.495c1.033 0.294 2.104 0.659 3.067 1.363 0.547 0.402 1.051 0.932 1.413 1.593 0.418 0.755 0.631 1.657 0.629 2.638 0.002 0.942-0.198 1.825-0.606 2.579-0.405 0.755-1.01 1.354-1.689 1.778-0.868 0.535-1.841 0.812-2.858 0.957v0.478c0 0.828-0.672 1.5-1.5 1.5s-1.5-0.672-1.5-1.5v-0.425c-1.295-0.178-2.441-0.644-3.335-1.399-1.164-0.973-1.83-2.436-1.819-3.968 0-0.828 0.672-1.5 1.5-1.5s1.5 0.672 1.5 1.5c0.011 0.724 0.255 1.238 0.759 1.678 0.32 0.272 0.792 0.498 1.396 0.636v-5.588c-0.008-0.002-0.015-0.004-0.022-0.006-1.015-0.272-2.062-0.588-3.023-1.213-0.545-0.358-1.063-0.837-1.444-1.46-0.439-0.711-0.668-1.583-0.664-2.514 0.001-0.901 0.236-1.883 0.807-2.792 0.565-0.909 1.489-1.718 2.719-2.181 0.495-0.188 1.043-0.317 1.629-0.395v-0.38c0-0.828 0.672-1.5 1.5-1.5s1.5 0.672 1.5 1.5v0.447c0.797 0.13 1.53 0.34 2.18 0.656 1.11 0.537 1.993 1.385 2.486 2.427 0.331 0.691 0.489 1.451 0.488 2.217 0 0.828-0.672 1.5-1.5 1.5s-1.5-0.672-1.5-1.5c-0.001-0.364-0.07-0.662-0.195-0.923s-0.307-0.493-0.589-0.714c-0.305-0.239-0.767-0.454-1.37-0.605v5.104C69.67 60.487 69.684 60.491 69.699 60.495zM73.5 45.375h-11c-0.828 0-1.5-0.672-1.5-1.5s0.672-1.5 1.5-1.5h11c0.828 0 1.5 0.672 1.5 1.5S74.328 45.375 73.5 45.375zM73.5 37.375h-11c-0.828 0-1.5-0.672-1.5-1.5s0.672-1.5 1.5-1.5h11c0.828 0 1.5 0.672 1.5 1.5S74.328 37.375 73.5 37.375z" fill="#ffffff" data-fill-palette-color="accent"></path><path d="M66.093 55.453c-0.433 0.165-0.73 0.376-0.958 0.607-0.449 0.453-0.636 1.063-0.635 1.562 0.002 0.413 0.075 0.663 0.171 0.855 0.099 0.191 0.231 0.349 0.459 0.521 0.321 0.25 0.86 0.484 1.524 0.695v-4.401C66.448 55.338 66.257 55.391 66.093 55.453z" fill="#ffffff" data-fill-palette-color="accent"></path><path d="M69.86 68.329c0.563-0.14 0.985-0.345 1.268-0.573 0.19-0.153 0.325-0.314 0.434-0.514 0.142-0.265 0.245-0.616 0.247-1.153-0.005-0.657-0.142-1.019-0.328-1.309-0.189-0.287-0.479-0.539-0.936-0.781-0.253-0.138-0.559-0.259-0.891-0.374v4.739C69.72 68.351 69.799 68.345 69.86 68.329z" fill="#ffffff" data-fill-palette-color="accent"></path></svg></g></svg></g></svg></g><defs></defs></svg><rect width="395.52" height="109.01020452188037" fill="none" stroke="none" visibility="hidden"></rect></g></svg></g></svg>