<?xml version="1.0" encoding="UTF-8"?>
<svg xmlns="http://www.w3.org/2000/svg" xmlns:xlink="http://www.w3.org/1999/xlink" width="5000" height="3500" viewBox="0 0 5000 3500">
<defs>
<clipPath id="clip-0">
<path clip-rule="nonzero" d="M 5000 3500 L 0 3500 L 0 0 L 5000 0 L 5000 3500 M 969.914062 3020.25 C 969.914062 3048.519531 992.835938 3071.441406 1021.109375 3071.441406 L 3987.230469 3071.441406 C 4015.511719 3071.441406 4038.429688 3048.519531 4038.429688 3020.25 L 4038.429688 2969.058594 L 969.914062 2969.058594 L 969.914062 3020.25 M 4038.429688 2969.058594 L 3615.78125 2575.410156 C 3615.800781 2574.570312 3615.808594 2573.730469 3615.808594 2572.878906 L 3615.808594 2250.078125 L 3827.390625 2250.058594 C 3837.648438 2250.058594 3845.96875 2241.75 3845.960938 2231.488281 L 3845.921875 1652.039062 C 3845.921875 1641.789062 3837.609375 1633.46875 3827.351562 1633.480469 L 3736.238281 1633.480469 L 3736.230469 1539.058594 C 3736.230469 1528.808594 3727.921875 1520.488281 3717.660156 1520.488281 L 3615.808594 1520.5 L 3615.808594 1166.648438 C 3615.808594 1117.5 3575.96875 1077.648438 3526.820312 1077.648438 L 1453.53125 1077.648438 C 1404.378906 1077.648438 1364.539062 1117.5 1364.539062 1166.648438 L 1364.539062 2571.550781 L 1360.570312 2571.550781 L 969.914062 2969.058594 L 4038.429688 2969.058594 "/>
</clipPath>
<clipPath id="clip-1">
<path clip-rule="nonzero" d="M 5000 3500 L 0 3500 L 0 0 L 5000 0 L 5000 3500 M 969.914062 3020.25 C 969.914062 3048.519531 992.835938 3071.441406 1021.109375 3071.441406 L 3987.230469 3071.441406 C 4015.511719 3071.441406 4038.429688 3048.519531 4038.429688 3020.25 L 4038.429688 2969.058594 L 969.914062 2969.058594 L 969.914062 3020.25 M 4038.429688 2969.058594 L 3615.78125 2575.410156 C 3615.800781 2574.570312 3615.808594 2573.730469 3615.808594 2572.878906 L 3615.808594 2250.078125 L 3827.390625 2250.058594 C 3837.648438 2250.058594 3845.96875 2241.75 3845.960938 2231.488281 L 3845.921875 1652.039062 C 3845.921875 1641.789062 3837.609375 1633.46875 3827.351562 1633.480469 L 3736.238281 1633.480469 L 3736.230469 1539.058594 C 3736.230469 1528.808594 3727.921875 1520.488281 3717.660156 1520.488281 L 3615.808594 1520.5 L 3615.808594 1166.648438 C 3615.808594 1117.5 3575.96875 1077.648438 3526.820312 1077.648438 L 1453.53125 1077.648438 C 1404.378906 1077.648438 1364.539062 1117.5 1364.539062 1166.648438 L 1364.539062 2571.550781 L 1360.570312 2571.550781 L 969.914062 2969.058594 L 4038.429688 2969.058594 "/>
</clipPath>

<clipPath id="clip-2">
<path clip-rule="nonzero" d="M 969 2571 L 4039 2571 L 4039 2970 L 969 2970 Z M 969 2571 "/>
</clipPath>
<clipPath id="clip-3">
<path clip-rule="nonzero" d="M 4038.429688 2969.058594 L 3611.640625 2571.550781 L 2453.621094 2571.550781 L 2453.621094 2969.058594 L 969.914062 2969.058594 L 1360.570312 2571.550781 L 3611.640625 2571.550781 L 3615.78125 2575.410156 L 4038.429688 2969.058594 "/>
</clipPath>
<clipPath id="clip-4">
<path clip-rule="nonzero" d="M 4038.429688 2969.058594 L 3611.640625 2571.550781 L 2453.621094 2571.550781 L 2453.621094 2969.058594 L 969.914062 2969.058594 L 1360.570312 2571.550781 L 3611.640625 2571.550781 L 3615.78125 2575.410156 L 4038.429688 2969.058594 "/>
</clipPath>
<linearGradient id="linear-pattern-0" gradientUnits="userSpaceOnUse" x1="0.27417" y1="0" x2="1.184891" y2="0" gradientTransform="matrix(2621.13, -1635.54, 1635.54, 2621.13, 646.714, 4051.2)">
<stop offset="0" stop-color="rgb(88.745117%, 88.415527%, 87.802124%)" stop-opacity="1"/>
<stop offset="0.015625" stop-color="rgb(88.887024%, 88.487244%, 87.849426%)" stop-opacity="1"/>
<stop offset="0.03125" stop-color="rgb(89.048767%, 88.720703%, 88.111877%)" stop-opacity="1"/>
<stop offset="0.046875" stop-color="rgb(89.241028%, 88.931274%, 88.328552%)" stop-opacity="1"/>
<stop offset="0.0625" stop-color="rgb(89.593506%, 89.193726%, 88.562012%)" stop-opacity="1"/>
<stop offset="0.09375" stop-color="rgb(89.933777%, 89.602661%, 88.996887%)" stop-opacity="1"/>
<stop offset="0.125" stop-color="rgb(90.254211%, 89.996338%, 89.41803%)" stop-opacity="1"/>
<stop offset="0.140625" stop-color="rgb(90.592957%, 90.348816%, 89.779663%)" stop-opacity="1"/>
<stop offset="0.15625" stop-color="rgb(90.898132%, 90.544128%, 89.978027%)" stop-opacity="1"/>
<stop offset="0.171875" stop-color="rgb(91.053772%, 90.621948%, 90.174866%)" stop-opacity="1"/>
<stop offset="0.1875" stop-color="rgb(91.255188%, 90.869141%, 90.405273%)" stop-opacity="1"/>
<stop offset="0.21875" stop-color="rgb(91.598511%, 91.285706%, 90.734863%)" stop-opacity="1"/>
<stop offset="0.234375" stop-color="rgb(91.941833%, 91.584778%, 91.137695%)" stop-opacity="1"/>
<stop offset="0.25" stop-color="rgb(92.176819%, 91.807556%, 91.392517%)" stop-opacity="1"/>
<stop offset="0.265625" stop-color="rgb(92.340088%, 92.045593%, 91.625977%)" stop-opacity="1"/>
<stop offset="0.28125" stop-color="rgb(92.54303%, 92.259216%, 91.882324%)" stop-opacity="1"/>
<stop offset="0.296875" stop-color="rgb(92.707825%, 92.498779%, 92.115784%)" stop-opacity="1"/>
<stop offset="0.3125" stop-color="rgb(92.948914%, 92.723083%, 92.373657%)" stop-opacity="1"/>
<stop offset="0.34375" stop-color="rgb(93.287659%, 93.025208%, 92.782593%)" stop-opacity="1"/>
<stop offset="0.359375" stop-color="rgb(93.634033%, 93.449402%, 93.121338%)" stop-opacity="1"/>
<stop offset="0.375" stop-color="rgb(93.840027%, 93.696594%, 93.212891%)" stop-opacity="1"/>
<stop offset="0.390625" stop-color="rgb(93.994141%, 93.768311%, 93.354797%)" stop-opacity="1"/>
<stop offset="0.40625" stop-color="rgb(94.308472%, 93.980408%, 93.605042%)" stop-opacity="1"/>
<stop offset="0.421875" stop-color="rgb(94.5755%, 94.25354%, 93.847656%)" stop-opacity="1"/>
<stop offset="0.4375" stop-color="rgb(94.740295%, 94.459534%, 94.107056%)" stop-opacity="1"/>
<stop offset="0.453125" stop-color="rgb(94.944763%, 94.714355%, 94.348145%)" stop-opacity="1"/>
<stop offset="0.46875" stop-color="rgb(95.109558%, 94.921875%, 94.610596%)" stop-opacity="1"/>
<stop offset="0.484375" stop-color="rgb(95.327759%, 95.181274%, 94.854736%)" stop-opacity="1"/>
<stop offset="0.5" stop-color="rgb(95.68634%, 95.455933%, 95.121765%)" stop-opacity="1"/>
<stop offset="0.515625" stop-color="rgb(95.878601%, 95.684814%, 95.379639%)" stop-opacity="1"/>
<stop offset="0.53125" stop-color="rgb(96.046448%, 95.930481%, 95.622253%)" stop-opacity="1"/>
<stop offset="0.546875" stop-color="rgb(96.377563%, 96.18988%, 95.896912%)" stop-opacity="1"/>
<stop offset="0.5625" stop-color="rgb(96.632385%, 96.464539%, 96.14563%)" stop-opacity="1"/>
<stop offset="0.578125" stop-color="rgb(96.792603%, 96.588135%, 96.372986%)" stop-opacity="1"/>
<stop offset="0.59375" stop-color="rgb(96.992493%, 96.722412%, 96.563721%)" stop-opacity="1"/>
<stop offset="0.609375" stop-color="rgb(97.160339%, 96.972656%, 96.850586%)" stop-opacity="1"/>
<stop offset="0.625" stop-color="rgb(97.390747%, 97.201538%, 97.080994%)" stop-opacity="1"/>
<stop offset="0.65625" stop-color="rgb(97.749329%, 97.512817%, 97.37854%)" stop-opacity="1"/>
<stop offset="0.671875" stop-color="rgb(98.101807%, 97.958374%, 97.868347%)" stop-opacity="1"/>
<stop offset="0.6875" stop-color="rgb(98.312378%, 98.225403%, 98.161316%)" stop-opacity="1"/>
<stop offset="0.703125" stop-color="rgb(98.477173%, 98.434448%, 98.390198%)" stop-opacity="1"/>
<stop offset="0.71875" stop-color="rgb(98.786926%, 98.733521%, 98.68927%)" stop-opacity="1"/>
<stop offset="0.734375" stop-color="rgb(99.069214%, 98.980713%, 98.928833%)" stop-opacity="1"/>
<stop offset="0.75" stop-color="rgb(99.238586%, 99.235535%, 99.220276%)" stop-opacity="1"/>
<stop offset="0.765625" stop-color="rgb(99.446106%, 99.459839%, 99.456787%)" stop-opacity="1"/>
<stop offset="0.78125" stop-color="rgb(99.615479%, 99.716187%, 99.749756%)" stop-opacity="1"/>
<stop offset="0.8125" stop-color="rgb(99.822998%, 99.942017%, 99.987793%)" stop-opacity="1"/>
<stop offset="0.875" stop-color="rgb(100%, 100%, 100%)" stop-opacity="1"/>
<stop offset="1" stop-color="rgb(100%, 100%, 100%)" stop-opacity="1"/>
</linearGradient>
<clipPath id="clip-5">
<path clip-rule="nonzero" d="M 2453 2571 L 4039 2571 L 4039 2970 L 2453 2970 Z M 2453 2571 "/>
</clipPath>
<clipPath id="clip-6">
<path clip-rule="nonzero" d="M 4038.429688 2969.058594 L 2453.621094 2969.058594 L 2453.621094 2571.550781 L 3611.640625 2571.550781 L 4038.429688 2969.058594 "/>
</clipPath>
<clipPath id="clip-7">
<path clip-rule="nonzero" d="M 4038.429688 2969.058594 L 2453.621094 2969.058594 L 2453.621094 2571.550781 L 3611.640625 2571.550781 L 4038.429688 2969.058594 "/>
</clipPath>
<linearGradient id="linear-pattern-1" gradientUnits="userSpaceOnUse" x1="0.23422" y1="0" x2="0.692732" y2="0" gradientTransform="matrix(-3094.1, -1577.57, 1577.57, -3094.1, 4636.04, 3587.8201)">
<stop offset="0" stop-color="rgb(88.146973%, 87.867737%, 87.190247%)" stop-opacity="1"/>
<stop offset="0.03125" stop-color="rgb(88.320923%, 87.919617%, 87.237549%)" stop-opacity="1"/>
<stop offset="0.0625" stop-color="rgb(88.563538%, 88.095093%, 87.431335%)" stop-opacity="1"/>
<stop offset="0.09375" stop-color="rgb(88.726807%, 88.328552%, 87.690735%)" stop-opacity="1"/>
<stop offset="0.125" stop-color="rgb(88.926697%, 88.536072%, 87.902832%)" stop-opacity="1"/>
<stop offset="0.15625" stop-color="rgb(89.089966%, 88.769531%, 88.162231%)" stop-opacity="1"/>
<stop offset="0.1875" stop-color="rgb(89.323425%, 88.987732%, 88.37738%)" stop-opacity="1"/>
<stop offset="0.25" stop-color="rgb(89.663696%, 89.273071%, 88.642883%)" stop-opacity="1"/>
<stop offset="0.28125" stop-color="rgb(90.010071%, 89.69574%, 89.096069%)" stop-opacity="1"/>
<stop offset="0.3125" stop-color="rgb(90.211487%, 89.941406%, 89.360046%)" stop-opacity="1"/>
<stop offset="0.34375" stop-color="rgb(90.374756%, 90.142822%, 89.576721%)" stop-opacity="1"/>
<stop offset="0.375" stop-color="rgb(90.690613%, 90.422058%, 89.845276%)" stop-opacity="1"/>
<stop offset="0.40625" stop-color="rgb(90.94696%, 90.560913%, 90.02533%)" stop-opacity="1"/>
<stop offset="0.4375" stop-color="rgb(91.105652%, 90.686035%, 90.24353%)" stop-opacity="1"/>
<stop offset="0.46875" stop-color="rgb(91.308594%, 90.934753%, 90.478516%)" stop-opacity="1"/>
<stop offset="0.5" stop-color="rgb(91.471863%, 91.137695%, 90.730286%)" stop-opacity="1"/>
<stop offset="0.53125" stop-color="rgb(91.696167%, 91.392517%, 90.966797%)" stop-opacity="1"/>
<stop offset="0.5625" stop-color="rgb(92.051697%, 91.651917%, 91.226196%)" stop-opacity="1"/>
<stop offset="0.625" stop-color="rgb(92.391968%, 91.950989%, 91.635132%)" stop-opacity="1"/>
<stop offset="0.65625" stop-color="rgb(92.604065%, 92.33551%, 91.963196%)" stop-opacity="1"/>
<stop offset="0.6875" stop-color="rgb(92.771912%, 92.576599%, 92.201233%)" stop-opacity="1"/>
<stop offset="0.71875" stop-color="rgb(93.074036%, 92.822266%, 92.462158%)" stop-opacity="1"/>
<stop offset="0.75" stop-color="rgb(93.353271%, 93.09845%, 92.706299%)" stop-opacity="1"/>
<stop offset="0.78125" stop-color="rgb(93.518066%, 93.304443%, 92.962646%)" stop-opacity="1"/>
<stop offset="0.8125" stop-color="rgb(93.72406%, 93.556213%, 93.161011%)" stop-opacity="1"/>
<stop offset="0.84375" stop-color="rgb(93.887329%, 93.730164%, 93.247986%)" stop-opacity="1"/>
<stop offset="0.875" stop-color="rgb(94.088745%, 93.807983%, 93.44635%)" stop-opacity="1"/>
<stop offset="0.9375" stop-color="rgb(94.462585%, 94.119263%, 93.864441%)" stop-opacity="1"/>
<stop offset="0.96875" stop-color="rgb(94.813538%, 94.552612%, 94.20929%)" stop-opacity="1"/>
<stop offset="1" stop-color="rgb(95.021057%, 94.80896%, 94.45343%)" stop-opacity="1"/>
</linearGradient>
<clipPath id="clip-8">
<path clip-rule="nonzero" d="M 969 2969 L 4039 2969 L 4039 3072 L 969 3072 Z M 969 2969 "/>
</clipPath>
<clipPath id="clip-9">
<path clip-rule="nonzero" d="M 3987.230469 3071.441406 L 1021.109375 3071.441406 C 992.835938 3071.441406 969.914062 3048.519531 969.914062 3020.25 L 969.914062 2969.058594 L 4038.429688 2969.058594 L 4038.429688 3020.25 C 4038.429688 3048.519531 4015.511719 3071.441406 3987.230469 3071.441406 "/>
</clipPath>
<clipPath id="clip-10">
<path clip-rule="nonzero" d="M 3987.230469 3071.441406 L 1021.109375 3071.441406 C 992.835938 3071.441406 969.914062 3048.519531 969.914062 3020.25 L 969.914062 2969.058594 L 4038.429688 2969.058594 L 4038.429688 3020.25 C 4038.429688 3048.519531 4015.511719 3071.441406 3987.230469 3071.441406 "/>
</clipPath>
<linearGradient id="linear-pattern-2" gradientUnits="userSpaceOnUse" x1="-0.840247" y1="0" x2="0.663535" y2="0" gradientTransform="matrix(-2040.53, 0.000178389, -0.000178389, -2040.53, 2323.88, 3020.25)">
<stop offset="0" stop-color="rgb(81.178284%, 80.197144%, 79.676819%)" stop-opacity="1"/>
<stop offset="0.5" stop-color="rgb(81.178284%, 80.197144%, 79.676819%)" stop-opacity="1"/>
<stop offset="0.5625" stop-color="rgb(81.130981%, 80.149841%, 79.629517%)" stop-opacity="1"/>
<stop offset="0.570312" stop-color="rgb(80.982971%, 80.003357%, 79.481506%)" stop-opacity="1"/>
<stop offset="0.578125" stop-color="rgb(80.780029%, 79.803467%, 79.281616%)" stop-opacity="1"/>
<stop offset="0.585938" stop-color="rgb(80.578613%, 79.606628%, 79.0802%)" stop-opacity="1"/>
<stop offset="0.59375" stop-color="rgb(80.377197%, 79.408264%, 78.88031%)" stop-opacity="1"/>
<stop offset="0.601563" stop-color="rgb(80.175781%, 79.2099%, 78.68042%)" stop-opacity="1"/>
<stop offset="0.609375" stop-color="rgb(79.974365%, 79.013062%, 78.482056%)" stop-opacity="1"/>
<stop offset="0.617188" stop-color="rgb(79.774475%, 78.816223%, 78.283691%)" stop-opacity="1"/>
<stop offset="0.625" stop-color="rgb(79.574585%, 78.619385%, 78.085327%)" stop-opacity="1"/>
<stop offset="0.632812" stop-color="rgb(79.373169%, 78.424072%, 77.888489%)" stop-opacity="1"/>
<stop offset="0.640625" stop-color="rgb(79.173279%, 78.227234%, 77.69165%)" stop-opacity="1"/>
<stop offset="0.648438" stop-color="rgb(78.971863%, 78.031921%, 77.494812%)" stop-opacity="1"/>
<stop offset="0.65625" stop-color="rgb(78.771973%, 77.838135%, 77.2995%)" stop-opacity="1"/>
<stop offset="0.664062" stop-color="rgb(78.572083%, 77.642822%, 77.104187%)" stop-opacity="1"/>
<stop offset="0.671875" stop-color="rgb(78.373718%, 77.449036%, 76.908875%)" stop-opacity="1"/>
<stop offset="0.679688" stop-color="rgb(78.175354%, 77.255249%, 76.715088%)" stop-opacity="1"/>
<stop offset="0.6875" stop-color="rgb(77.975464%, 77.061462%, 76.522827%)" stop-opacity="1"/>
<stop offset="0.695313" stop-color="rgb(77.775574%, 76.869202%, 76.329041%)" stop-opacity="1"/>
<stop offset="0.703125" stop-color="rgb(77.577209%, 76.675415%, 76.135254%)" stop-opacity="1"/>
<stop offset="0.710938" stop-color="rgb(77.378845%, 76.48468%, 75.944519%)" stop-opacity="1"/>
<stop offset="0.71875" stop-color="rgb(77.180481%, 76.292419%, 75.752258%)" stop-opacity="1"/>
<stop offset="0.726562" stop-color="rgb(76.983643%, 76.101685%, 75.561523%)" stop-opacity="1"/>
<stop offset="0.734375" stop-color="rgb(76.785278%, 75.912476%, 75.372314%)" stop-opacity="1"/>
<stop offset="0.742188" stop-color="rgb(76.586914%, 75.721741%, 75.18158%)" stop-opacity="1"/>
<stop offset="0.75" stop-color="rgb(76.38855%, 75.531006%, 74.992371%)" stop-opacity="1"/>
<stop offset="0.757812" stop-color="rgb(76.191711%, 75.341797%, 74.804688%)" stop-opacity="1"/>
<stop offset="0.765625" stop-color="rgb(75.993347%, 75.152588%, 74.615479%)" stop-opacity="1"/>
<stop offset="0.773438" stop-color="rgb(75.796509%, 74.963379%, 74.427795%)" stop-opacity="1"/>
<stop offset="0.78125" stop-color="rgb(75.601196%, 74.775696%, 74.240112%)" stop-opacity="1"/>
<stop offset="0.789063" stop-color="rgb(75.402832%, 74.586487%, 74.052429%)" stop-opacity="1"/>
<stop offset="0.796875" stop-color="rgb(75.20752%, 74.398804%, 73.866272%)" stop-opacity="1"/>
<stop offset="0.804688" stop-color="rgb(75.010681%, 74.212646%, 73.680115%)" stop-opacity="1"/>
<stop offset="0.8125" stop-color="rgb(74.813843%, 74.026489%, 73.495483%)" stop-opacity="1"/>
<stop offset="0.820313" stop-color="rgb(74.61853%, 73.838806%, 73.310852%)" stop-opacity="1"/>
<stop offset="0.828125" stop-color="rgb(74.423218%, 73.654175%, 73.126221%)" stop-opacity="1"/>
<stop offset="0.835938" stop-color="rgb(74.227905%, 73.468018%, 72.943115%)" stop-opacity="1"/>
<stop offset="0.84375" stop-color="rgb(74.032593%, 73.283386%, 72.76001%)" stop-opacity="1"/>
<stop offset="0.851563" stop-color="rgb(73.83728%, 73.098755%, 72.576904%)" stop-opacity="1"/>
<stop offset="0.859375" stop-color="rgb(73.641968%, 72.914124%, 72.393799%)" stop-opacity="1"/>
<stop offset="0.867188" stop-color="rgb(73.446655%, 72.731018%, 72.213745%)" stop-opacity="1"/>
<stop offset="0.875" stop-color="rgb(73.252869%, 72.547913%, 72.032166%)" stop-opacity="1"/>
<stop offset="0.882812" stop-color="rgb(73.059082%, 72.364807%, 71.850586%)" stop-opacity="1"/>
<stop offset="0.890625" stop-color="rgb(72.865295%, 72.181702%, 71.672058%)" stop-opacity="1"/>
<stop offset="0.898438" stop-color="rgb(72.671509%, 72.000122%, 71.492004%)" stop-opacity="1"/>
<stop offset="0.90625" stop-color="rgb(72.477722%, 71.818542%, 71.311951%)" stop-opacity="1"/>
<stop offset="0.914063" stop-color="rgb(72.283936%, 71.635437%, 71.134949%)" stop-opacity="1"/>
<stop offset="0.921875" stop-color="rgb(72.090149%, 71.455383%, 70.956421%)" stop-opacity="1"/>
<stop offset="0.929688" stop-color="rgb(71.896362%, 71.27533%, 70.777893%)" stop-opacity="1"/>
<stop offset="0.9375" stop-color="rgb(71.705627%, 71.095276%, 70.600891%)" stop-opacity="1"/>
<stop offset="0.945312" stop-color="rgb(71.511841%, 70.915222%, 70.425415%)" stop-opacity="1"/>
<stop offset="0.953125" stop-color="rgb(71.31958%, 70.735168%, 70.248413%)" stop-opacity="1"/>
<stop offset="0.960938" stop-color="rgb(71.127319%, 70.556641%, 70.071411%)" stop-opacity="1"/>
<stop offset="0.96875" stop-color="rgb(70.935059%, 70.378113%, 69.897461%)" stop-opacity="1"/>
<stop offset="0.976562" stop-color="rgb(70.742798%, 70.199585%, 69.723511%)" stop-opacity="1"/>
<stop offset="0.984375" stop-color="rgb(70.550537%, 70.021057%, 69.548035%)" stop-opacity="1"/>
<stop offset="0.992188" stop-color="rgb(70.359802%, 69.844055%, 69.37561%)" stop-opacity="1"/>
<stop offset="1" stop-color="rgb(70.169067%, 69.668579%, 69.20166%)" stop-opacity="1"/>
</linearGradient>
</defs>
<g clip-path="url(#clip-0)">
<g clip-path="url(#clip-1)">
<rect x="-500" y="-350" width="6000" height="4200" fill="url(#radial-pattern-0)"/>
</g>
</g>
<path fill-rule="nonzero" fill="rgb(6.266785%, 5.734253%, 5.047607%)" fill-opacity="1" d="M 3615.808594 2572.878906 C 3615.808594 2622.03125 3575.96875 2661.871094 3526.820312 2661.871094 L 1453.53125 2661.871094 C 1404.378906 2661.871094 1364.539062 2622.03125 1364.539062 2572.878906 L 1364.539062 1166.648438 C 1364.539062 1117.5 1404.378906 1077.648438 1453.53125 1077.648438 L 3526.820312 1077.648438 C 3575.96875 1077.648438 3615.808594 1117.5 3615.808594 1166.648438 L 3615.808594 2572.878906 "/>
<g clip-path="url(#clip-2)">
<g clip-path="url(#clip-3)">
<g clip-path="url(#clip-4)">
<path fill-rule="nonzero" fill="url(#linear-pattern-0)" d="M 791.386719 2682.949219 L 1829.839844 4347.183594 L 4216.957031 2857.660156 L 3178.503906 1193.429688 Z M 791.386719 2682.949219 "/>
</g>
</g>
</g>
<g clip-path="url(#clip-5)">
<g clip-path="url(#clip-6)">
<g clip-path="url(#clip-7)">
<path fill-rule="nonzero" fill="url(#linear-pattern-1)" d="M 3711.445312 3610.378906 L 4199.289062 2653.566406 L 2780.605469 1930.230469 L 2292.761719 2887.042969 Z M 3711.445312 3610.378906 "/>
</g>
</g>
</g>
<path fill-rule="nonzero" fill="rgb(69.091797%, 68.959045%, 68.411255%)" fill-opacity="1" d="M 3987.230469 2969.058594 L 969.914062 2969.058594 L 969.914062 3020.25 C 969.914062 3048.519531 992.835938 3071.441406 1021.109375 3071.441406 L 3987.230469 3071.441406 C 4015.511719 3071.441406 4038.429688 3048.519531 4038.429688 3020.25 L 4038.429688 2969.058594 L 3987.230469 2969.058594 "/>
<g clip-path="url(#clip-8)">
<g clip-path="url(#clip-9)">
<g clip-path="url(#clip-10)">
<path fill-rule="nonzero" fill="url(#linear-pattern-2)" d="M 4038.429688 3071.441406 L 4038.429688 2969.058594 L 969.914062 2969.058594 L 969.914062 3071.441406 Z M 4038.429688 3071.441406 "/>
</g>
</g>
</g>
<path fill-rule="nonzero" fill="rgb(70.20874%, 71.498108%, 72.686768%)" fill-opacity="1" d="M 3006.019531 2941.089844 L 2012.011719 2941.089844 L 2065.320312 2795.289062 L 2948.691406 2795.289062 L 3006.019531 2941.089844 "/>
<path fill-rule="nonzero" fill="rgb(9.863281%, 9.928894%, 10.450745%)" fill-opacity="1" d="M 1767.980469 2609.578125 L 1642.871094 2619.949219 L 1642.871094 2625.03125 L 1764.699219 2625.03125 L 1767.980469 2615.910156 L 1767.980469 2609.578125 "/>
<path fill-rule="nonzero" fill="rgb(33.343506%, 35.531616%, 37.586975%)" fill-opacity="1" d="M 1767.980469 2609.578125 L 1648.148438 2609.578125 L 1642.871094 2619.949219 L 1764.699219 2619.949219 L 1767.980469 2609.578125 "/>
<path fill-rule="nonzero" fill="rgb(9.863281%, 9.928894%, 10.450745%)" fill-opacity="1" d="M 1617.28125 2609.578125 L 1487.691406 2609.578125 L 1477.410156 2619.949219 L 1477.410156 2625.03125 L 1611.929688 2625.03125 L 1617.28125 2614.761719 L 1617.28125 2609.578125 "/>
<path fill-rule="nonzero" fill="rgb(33.343506%, 35.531616%, 37.586975%)" fill-opacity="1" d="M 1617.28125 2609.578125 L 1487.691406 2609.578125 L 1477.410156 2619.949219 L 1611.929688 2619.949219 L 1617.28125 2609.578125 "/>
<path fill-rule="nonzero" fill="rgb(9.863281%, 9.928894%, 10.450745%)" fill-opacity="1" d="M 1920.511719 2609.578125 L 1794.671875 2619.949219 L 1794.671875 2625.03125 L 1916.5 2625.03125 L 1920.511719 2614.761719 L 1920.511719 2609.578125 "/>
<path fill-rule="nonzero" fill="rgb(33.343506%, 35.531616%, 37.586975%)" fill-opacity="1" d="M 1920.511719 2609.578125 L 1798.96875 2609.578125 L 1794.671875 2619.949219 L 1916.5 2619.949219 L 1920.511719 2609.578125 "/>
<path fill-rule="nonzero" fill="rgb(9.863281%, 9.928894%, 10.450745%)" fill-opacity="1" d="M 2068.378906 2609.578125 L 1946.550781 2609.578125 L 1946.550781 2625.03125 L 2068.378906 2625.03125 L 2068.378906 2609.578125 "/>
<path fill-rule="nonzero" fill="rgb(33.343506%, 35.531616%, 37.586975%)" fill-opacity="1" d="M 2068.378906 2609.578125 L 1946.550781 2609.578125 L 1946.550781 2619.949219 L 2068.378906 2619.949219 L 2068.378906 2609.578125 "/>
<path fill-rule="nonzero" fill="rgb(9.863281%, 9.928894%, 10.450745%)" fill-opacity="1" d="M 2217.890625 2609.578125 L 2096.058594 2609.578125 L 2096.058594 2625.03125 L 2217.890625 2625.03125 L 2217.890625 2609.578125 "/>
<path fill-rule="nonzero" fill="rgb(33.343506%, 35.531616%, 37.586975%)" fill-opacity="1" d="M 2217.890625 2609.578125 L 2096.058594 2609.578125 L 2096.058594 2619.949219 L 2217.890625 2619.949219 L 2217.890625 2609.578125 "/>
<path fill-rule="nonzero" fill="rgb(9.863281%, 9.928894%, 10.450745%)" fill-opacity="1" d="M 2367.988281 2609.578125 L 2246.160156 2609.578125 L 2246.160156 2625.03125 L 2367.988281 2625.03125 L 2367.988281 2609.578125 "/>
<path fill-rule="nonzero" fill="rgb(33.343506%, 35.531616%, 37.586975%)" fill-opacity="1" d="M 2367.988281 2609.578125 L 2246.160156 2609.578125 L 2246.160156 2619.949219 L 2367.988281 2619.949219 L 2367.988281 2609.578125 "/>
<path fill-rule="nonzero" fill="rgb(9.863281%, 9.928894%, 10.450745%)" fill-opacity="1" d="M 2514.539062 2609.578125 L 2392.699219 2609.578125 L 2392.699219 2625.03125 L 2514.539062 2625.03125 L 2514.539062 2609.578125 "/>
<path fill-rule="nonzero" fill="rgb(33.343506%, 35.531616%, 37.586975%)" fill-opacity="1" d="M 2514.539062 2609.578125 L 2392.699219 2609.578125 L 2392.699219 2619.949219 L 2514.539062 2619.949219 L 2514.539062 2609.578125 "/>
<path fill-rule="nonzero" fill="rgb(9.863281%, 9.928894%, 10.450745%)" fill-opacity="1" d="M 2664.039062 2609.578125 L 2542.210938 2609.578125 L 2542.210938 2625.03125 L 2664.039062 2625.03125 L 2664.039062 2609.578125 "/>
<path fill-rule="nonzero" fill="rgb(33.343506%, 35.531616%, 37.586975%)" fill-opacity="1" d="M 2664.039062 2609.578125 L 2542.210938 2609.578125 L 2542.210938 2619.949219 L 2664.039062 2619.949219 L 2664.039062 2609.578125 "/>
<path fill-rule="nonzero" fill="rgb(9.863281%, 9.928894%, 10.450745%)" fill-opacity="1" d="M 2814.148438 2609.578125 L 2692.320312 2609.578125 L 2692.320312 2625.03125 L 2814.148438 2625.03125 L 2814.148438 2609.578125 "/>
<path fill-rule="nonzero" fill="rgb(33.343506%, 35.531616%, 37.586975%)" fill-opacity="1" d="M 2814.148438 2609.578125 L 2692.320312 2609.578125 L 2692.320312 2619.949219 L 2814.148438 2619.949219 L 2814.148438 2609.578125 "/>
<path fill-rule="nonzero" fill="rgb(9.863281%, 9.928894%, 10.450745%)" fill-opacity="1" d="M 2962.46875 2609.578125 L 2840.640625 2609.578125 L 2840.640625 2625.03125 L 2962.46875 2625.03125 L 2962.46875 2609.578125 "/>
<path fill-rule="nonzero" fill="rgb(33.343506%, 35.531616%, 37.586975%)" fill-opacity="1" d="M 2962.46875 2609.578125 L 2840.640625 2609.578125 L 2840.640625 2619.949219 L 2962.46875 2619.949219 L 2962.46875 2609.578125 "/>
<path fill-rule="nonzero" fill="rgb(9.863281%, 9.928894%, 10.450745%)" fill-opacity="1" d="M 3112.578125 2609.578125 L 2987.628906 2609.578125 L 2987.628906 2613.308594 L 2990.738281 2625.03125 L 3116.871094 2625.03125 L 3116.871094 2619.949219 L 3112.578125 2609.578125 "/>
<path fill-rule="nonzero" fill="rgb(33.343506%, 35.531616%, 37.586975%)" fill-opacity="1" d="M 3112.578125 2609.578125 L 2987.628906 2609.578125 L 2990.738281 2619.949219 L 3116.871094 2619.949219 L 3112.578125 2609.578125 "/>
<path fill-rule="nonzero" fill="rgb(9.863281%, 9.928894%, 10.450745%)" fill-opacity="1" d="M 3257.929688 2619.949219 L 3129.128906 2609.578125 L 3129.128906 2614.761719 L 3136.101562 2625.03125 L 3257.929688 2625.03125 L 3257.929688 2619.949219 "/>
<path fill-rule="nonzero" fill="rgb(33.343506%, 35.531616%, 37.586975%)" fill-opacity="1" d="M 3248.949219 2609.578125 L 3129.128906 2609.578125 L 3136.101562 2619.949219 L 3257.929688 2619.949219 L 3248.949219 2609.578125 "/>
<path fill-rule="nonzero" fill="rgb(9.863281%, 9.928894%, 10.450745%)" fill-opacity="1" d="M 3501.160156 2609.578125 L 3291.199219 2609.578125 L 3291.199219 2614.761719 L 3301.328125 2625.03125 L 3511.648438 2625.03125 L 3511.648438 2619.949219 L 3501.160156 2609.578125 "/>
<path fill-rule="nonzero" fill="rgb(33.343506%, 35.531616%, 37.586975%)" fill-opacity="1" d="M 3501.160156 2609.578125 L 3291.199219 2609.578125 L 3302.011719 2619.949219 L 3511.648438 2619.949219 L 3501.160156 2609.578125 "/>
<path fill-rule="nonzero" fill="rgb(9.863281%, 9.928894%, 10.450745%)" fill-opacity="1" d="M 1736.828125 2627.378906 L 1610.828125 2637.738281 L 1610.828125 2642.828125 L 1732.660156 2642.828125 L 1736.828125 2632.558594 L 1736.828125 2627.378906 "/>
<path fill-rule="nonzero" fill="rgb(33.343506%, 35.531616%, 37.586975%)" fill-opacity="1" d="M 1736.828125 2627.378906 L 1617.28125 2627.378906 L 1610.828125 2637.738281 L 1732.660156 2637.738281 L 1736.828125 2627.378906 "/>
<path fill-rule="nonzero" fill="rgb(9.863281%, 9.928894%, 10.450745%)" fill-opacity="1" d="M 1588.730469 2627.378906 L 1472.589844 2627.378906 L 1464.960938 2637.738281 L 1464.960938 2642.828125 L 1584.078125 2642.828125 L 1588.730469 2633.328125 L 1588.730469 2627.378906 "/>
<path fill-rule="nonzero" fill="rgb(33.343506%, 35.531616%, 37.586975%)" fill-opacity="1" d="M 1588.730469 2627.378906 L 1472.589844 2627.378906 L 1464.960938 2637.738281 L 1584.078125 2637.738281 L 1588.730469 2627.378906 "/>
<path fill-rule="nonzero" fill="rgb(9.863281%, 9.928894%, 10.450745%)" fill-opacity="1" d="M 1890.191406 2627.378906 L 1762.628906 2637.738281 L 1762.628906 2642.828125 L 1884.460938 2642.828125 L 1890.191406 2632.558594 L 1890.191406 2627.378906 "/>
<path fill-rule="nonzero" fill="rgb(33.343506%, 35.531616%, 37.586975%)" fill-opacity="1" d="M 1890.191406 2627.378906 L 1768.898438 2627.378906 L 1762.628906 2637.738281 L 1884.460938 2637.738281 L 1890.191406 2627.378906 "/>
<path fill-rule="nonzero" fill="rgb(9.863281%, 9.928894%, 10.450745%)" fill-opacity="1" d="M 2039.480469 2627.378906 L 1914.511719 2637.738281 L 1914.511719 2642.828125 L 2036.351562 2642.828125 L 2039.480469 2632.558594 L 2039.480469 2627.378906 "/>
<path fill-rule="nonzero" fill="rgb(33.343506%, 35.531616%, 37.586975%)" fill-opacity="1" d="M 2039.480469 2627.378906 L 1919.261719 2627.378906 L 1914.511719 2637.738281 L 2036.351562 2637.738281 L 2039.480469 2627.378906 "/>
<path fill-rule="nonzero" fill="rgb(9.863281%, 9.928894%, 10.450745%)" fill-opacity="1" d="M 2185.851562 2627.378906 L 2064.019531 2627.378906 L 2064.019531 2642.828125 L 2185.851562 2642.828125 L 2185.851562 2627.378906 "/>
<path fill-rule="nonzero" fill="rgb(33.343506%, 35.531616%, 37.586975%)" fill-opacity="1" d="M 2185.851562 2627.378906 L 2064.019531 2627.378906 L 2064.019531 2637.738281 L 2185.851562 2637.738281 L 2185.851562 2627.378906 "/>
<path fill-rule="nonzero" fill="rgb(9.863281%, 9.928894%, 10.450745%)" fill-opacity="1" d="M 2335.960938 2627.378906 L 2214.121094 2627.378906 L 2214.121094 2642.828125 L 2335.960938 2642.828125 L 2335.960938 2627.378906 "/>
<path fill-rule="nonzero" fill="rgb(33.343506%, 35.531616%, 37.586975%)" fill-opacity="1" d="M 2335.960938 2627.378906 L 2214.121094 2627.378906 L 2214.121094 2637.738281 L 2335.960938 2637.738281 L 2335.960938 2627.378906 "/>
<path fill-rule="nonzero" fill="rgb(9.863281%, 9.928894%, 10.450745%)" fill-opacity="1" d="M 2482.5 2627.378906 L 2360.660156 2627.378906 L 2360.660156 2642.828125 L 2482.5 2642.828125 L 2482.5 2627.378906 "/>
<path fill-rule="nonzero" fill="rgb(33.343506%, 35.531616%, 37.586975%)" fill-opacity="1" d="M 2482.5 2627.378906 L 2360.660156 2627.378906 L 2360.660156 2637.738281 L 2482.5 2637.738281 L 2482.5 2627.378906 "/>
<path fill-rule="nonzero" fill="rgb(9.863281%, 9.928894%, 10.450745%)" fill-opacity="1" d="M 2632.011719 2627.378906 L 2510.171875 2627.378906 L 2510.171875 2642.828125 L 2632.011719 2642.828125 L 2632.011719 2627.378906 "/>
<path fill-rule="nonzero" fill="rgb(33.343506%, 35.531616%, 37.586975%)" fill-opacity="1" d="M 2632.011719 2627.378906 L 2510.171875 2627.378906 L 2510.171875 2637.738281 L 2632.011719 2637.738281 L 2632.011719 2627.378906 "/>
<path fill-rule="nonzero" fill="rgb(9.863281%, 9.928894%, 10.450745%)" fill-opacity="1" d="M 2782.109375 2627.378906 L 2660.28125 2627.378906 L 2660.28125 2642.828125 L 2782.109375 2642.828125 L 2782.109375 2627.378906 "/>
<path fill-rule="nonzero" fill="rgb(33.343506%, 35.531616%, 37.586975%)" fill-opacity="1" d="M 2782.109375 2627.378906 L 2660.28125 2627.378906 L 2660.28125 2637.738281 L 2782.109375 2637.738281 L 2782.109375 2627.378906 "/>
<path fill-rule="nonzero" fill="rgb(9.863281%, 9.928894%, 10.450745%)" fill-opacity="1" d="M 2930.441406 2627.378906 L 2808.601562 2627.378906 L 2808.601562 2642.828125 L 2930.441406 2642.828125 L 2930.441406 2627.378906 "/>
<path fill-rule="nonzero" fill="rgb(33.343506%, 35.531616%, 37.586975%)" fill-opacity="1" d="M 2930.441406 2627.378906 L 2808.601562 2627.378906 L 2808.601562 2637.738281 L 2930.441406 2637.738281 L 2930.441406 2627.378906 "/>
<path fill-rule="nonzero" fill="rgb(9.863281%, 9.928894%, 10.450745%)" fill-opacity="1" d="M 3080.539062 2637.738281 L 2955.378906 2627.378906 L 2955.378906 2632.558594 L 2958.710938 2642.828125 L 3080.539062 2642.828125 L 3080.539062 2637.738281 "/>
<path fill-rule="nonzero" fill="rgb(33.343506%, 35.531616%, 37.586975%)" fill-opacity="1" d="M 3075.121094 2627.378906 L 2955.378906 2627.378906 L 2958.710938 2637.738281 L 3080.539062 2637.738281 L 3075.121094 2627.378906 "/>
<path fill-rule="nonzero" fill="rgb(9.863281%, 9.928894%, 10.450745%)" fill-opacity="1" d="M 3225.890625 2627.378906 L 3097.929688 2627.378906 L 3097.929688 2632.558594 L 3104.058594 2642.828125 L 3252.140625 2642.828125 L 3252.140625 2637.738281 L 3225.890625 2627.378906 "/>
<path fill-rule="nonzero" fill="rgb(33.343506%, 35.531616%, 37.586975%)" fill-opacity="1" d="M 3244.289062 2627.378906 L 3097.929688 2627.378906 L 3104.058594 2637.738281 L 3252.140625 2637.738281 L 3244.289062 2627.378906 "/>
<path fill-rule="nonzero" fill="rgb(9.863281%, 9.928894%, 10.450745%)" fill-opacity="1" d="M 3514.421875 2627.378906 L 3266.28125 2627.378906 L 3266.28125 2632.53125 L 3272.300781 2642.828125 L 3524.269531 2642.828125 L 3524.269531 2637.738281 L 3514.421875 2627.378906 "/>
<path fill-rule="nonzero" fill="rgb(33.343506%, 35.531616%, 37.586975%)" fill-opacity="1" d="M 3516.210938 2627.378906 L 3266.28125 2627.378906 L 3273.609375 2637.738281 L 3524.269531 2637.738281 L 3516.210938 2627.378906 "/>
<path fill-rule="nonzero" fill="rgb(9.863281%, 9.928894%, 10.450745%)" fill-opacity="1" d="M 1785.039062 2646.28125 L 1664.511719 2646.28125 L 1658.890625 2661.871094 L 1658.890625 2669.53125 L 1780.71875 2669.53125 L 1785.039062 2654.078125 L 1785.039062 2646.28125 "/>
<path fill-rule="nonzero" fill="rgb(33.343506%, 35.531616%, 37.586975%)" fill-opacity="1" d="M 1785.039062 2646.28125 L 1664.511719 2646.28125 L 1658.890625 2661.871094 L 1780.71875 2661.871094 L 1785.039062 2646.28125 "/>
<path fill-rule="nonzero" fill="rgb(9.863281%, 9.928894%, 10.450745%)" fill-opacity="1" d="M 1634.089844 2646.28125 L 1461.179688 2646.28125 L 1447.359375 2661.871094 L 1447.359375 2669.53125 L 1627.949219 2669.53125 L 1634.089844 2654.078125 L 1634.089844 2646.28125 "/>
<path fill-rule="nonzero" fill="rgb(33.343506%, 35.531616%, 37.586975%)" fill-opacity="1" d="M 1634.089844 2646.28125 L 1458.128906 2646.28125 L 1447.359375 2661.871094 L 1627.949219 2661.871094 L 1634.089844 2646.28125 "/>
<path fill-rule="nonzero" fill="rgb(9.863281%, 9.928894%, 10.450745%)" fill-opacity="1" d="M 1938.050781 2646.28125 L 1810.679688 2661.871094 L 1810.679688 2669.53125 L 1932.519531 2669.53125 L 1938.050781 2654.078125 L 1938.050781 2646.28125 "/>
<path fill-rule="nonzero" fill="rgb(33.343506%, 35.531616%, 37.586975%)" fill-opacity="1" d="M 1938.050781 2646.28125 L 1816.589844 2646.28125 L 1810.679688 2661.871094 L 1932.519531 2661.871094 L 1938.050781 2646.28125 "/>
<path fill-rule="nonzero" fill="rgb(9.863281%, 9.928894%, 10.450745%)" fill-opacity="1" d="M 2086.140625 2646.28125 L 1962.570312 2661.871094 L 1962.570312 2669.53125 L 2084.398438 2669.53125 L 2086.140625 2654.078125 L 2086.140625 2646.28125 "/>
<path fill-rule="nonzero" fill="rgb(33.343506%, 35.531616%, 37.586975%)" fill-opacity="1" d="M 2086.140625 2646.28125 L 1966.25 2646.28125 L 1962.570312 2661.871094 L 2084.398438 2661.871094 L 2086.140625 2646.28125 "/>
<path fill-rule="nonzero" fill="rgb(9.863281%, 9.928894%, 10.450745%)" fill-opacity="1" d="M 2233.910156 2646.28125 L 2112.078125 2646.28125 L 2112.078125 2669.53125 L 2233.910156 2669.53125 L 2233.910156 2646.28125 "/>
<path fill-rule="nonzero" fill="rgb(33.343506%, 35.531616%, 37.586975%)" fill-opacity="1" d="M 2233.910156 2646.28125 L 2112.078125 2646.28125 L 2112.078125 2661.871094 L 2233.910156 2661.871094 L 2233.910156 2646.28125 "/>
<path fill-rule="nonzero" fill="rgb(9.863281%, 9.928894%, 10.450745%)" fill-opacity="1" d="M 2384.011719 2646.28125 L 2262.179688 2646.28125 L 2262.179688 2669.53125 L 2384.011719 2669.53125 L 2384.011719 2646.28125 "/>
<path fill-rule="nonzero" fill="rgb(33.343506%, 35.531616%, 37.586975%)" fill-opacity="1" d="M 2384.011719 2646.28125 L 2262.179688 2646.28125 L 2262.179688 2661.871094 L 2384.011719 2661.871094 L 2384.011719 2646.28125 "/>
<path fill-rule="nonzero" fill="rgb(9.863281%, 9.928894%, 10.450745%)" fill-opacity="1" d="M 2530.550781 2646.28125 L 2408.71875 2646.28125 L 2408.71875 2669.53125 L 2530.550781 2669.53125 L 2530.550781 2646.28125 "/>
<path fill-rule="nonzero" fill="rgb(33.343506%, 35.531616%, 37.586975%)" fill-opacity="1" d="M 2530.550781 2646.28125 L 2408.71875 2646.28125 L 2408.71875 2661.871094 L 2530.550781 2661.871094 L 2530.550781 2646.28125 "/>
<path fill-rule="nonzero" fill="rgb(9.863281%, 9.928894%, 10.450745%)" fill-opacity="1" d="M 2680.058594 2646.28125 L 2558.230469 2646.28125 L 2558.230469 2669.53125 L 2680.058594 2669.53125 L 2680.058594 2646.28125 "/>
<path fill-rule="nonzero" fill="rgb(33.343506%, 35.531616%, 37.586975%)" fill-opacity="1" d="M 2680.058594 2646.28125 L 2558.230469 2646.28125 L 2558.230469 2661.871094 L 2680.058594 2661.871094 L 2680.058594 2646.28125 "/>
<path fill-rule="nonzero" fill="rgb(9.863281%, 9.928894%, 10.450745%)" fill-opacity="1" d="M 2830.171875 2646.28125 L 2708.328125 2646.28125 L 2708.328125 2669.53125 L 2830.171875 2669.53125 L 2830.171875 2646.28125 "/>
<path fill-rule="nonzero" fill="rgb(33.343506%, 35.531616%, 37.586975%)" fill-opacity="1" d="M 2830.171875 2646.28125 L 2708.328125 2646.28125 L 2708.328125 2661.871094 L 2830.171875 2661.871094 L 2830.171875 2646.28125 "/>
<path fill-rule="nonzero" fill="rgb(9.863281%, 9.928894%, 10.450745%)" fill-opacity="1" d="M 2978.488281 2661.871094 L 2856.660156 2646.28125 L 2856.660156 2669.53125 L 2978.488281 2669.53125 L 2978.488281 2661.871094 "/>
<path fill-rule="nonzero" fill="rgb(33.343506%, 35.531616%, 37.586975%)" fill-opacity="1" d="M 2972.699219 2646.28125 L 2856.660156 2646.28125 L 2856.660156 2661.871094 L 2978.488281 2661.871094 L 2972.699219 2646.28125 "/>
<path fill-rule="nonzero" fill="rgb(9.863281%, 9.928894%, 10.450745%)" fill-opacity="1" d="M 3128.589844 2646.28125 L 3006.761719 2646.28125 L 3006.761719 2656.75 L 3010.378906 2669.53125 L 3134.25 2669.53125 L 3134.25 2661.871094 L 3128.589844 2646.28125 "/>
<path fill-rule="nonzero" fill="rgb(33.343506%, 35.531616%, 37.586975%)" fill-opacity="1" d="M 3128.589844 2646.28125 L 3006.761719 2646.28125 L 3011.039062 2661.871094 L 3134.25 2661.871094 L 3128.589844 2646.28125 "/>
<path fill-rule="nonzero" fill="rgb(9.863281%, 9.928894%, 10.450745%)" fill-opacity="1" d="M 3273.949219 2646.28125 L 3152.121094 2646.28125 L 3152.121094 2654.761719 L 3158.851562 2669.53125 L 3285.171875 2669.53125 L 3285.171875 2661.871094 L 3273.949219 2646.28125 "/>
<path fill-rule="nonzero" fill="rgb(33.343506%, 35.531616%, 37.586975%)" fill-opacity="1" d="M 3273.949219 2646.28125 L 3152.121094 2646.28125 L 3158.851562 2661.871094 L 3285.171875 2661.871094 L 3273.949219 2646.28125 "/>
<path fill-rule="nonzero" fill="rgb(9.863281%, 9.928894%, 10.450745%)" fill-opacity="1" d="M 3531.230469 2646.28125 L 3298.308594 2646.28125 L 3298.308594 2653.351562 L 3314.328125 2669.53125 L 3545.78125 2669.53125 L 3545.78125 2661.871094 L 3531.230469 2646.28125 "/>
<path fill-rule="nonzero" fill="rgb(33.343506%, 35.531616%, 37.586975%)" fill-opacity="1" d="M 3531.230469 2646.28125 L 3298.308594 2646.28125 L 3314.328125 2661.871094 L 3545.78125 2661.871094 L 3531.230469 2646.28125 "/>
<path fill-rule="nonzero" fill="rgb(9.863281%, 9.928894%, 10.450745%)" fill-opacity="1" d="M 1816.589844 2672.148438 L 1694.46875 2672.148438 L 1686.589844 2687.738281 L 1686.589844 2695.390625 L 1810.980469 2695.390625 L 1816.589844 2679.941406 L 1816.589844 2672.148438 "/>
<path fill-rule="nonzero" fill="rgb(33.343506%, 35.531616%, 37.586975%)" fill-opacity="1" d="M 1816.589844 2672.148438 L 1694.46875 2672.148438 L 1686.589844 2687.738281 L 1810.980469 2687.738281 L 1816.589844 2672.148438 "/>
<path fill-rule="nonzero" fill="rgb(9.863281%, 9.928894%, 10.450745%)" fill-opacity="1" d="M 1666.988281 2672.148438 L 1439.960938 2672.148438 L 1428.988281 2687.738281 L 1428.988281 2695.390625 L 1658.210938 2695.390625 L 1666.988281 2679.941406 L 1666.988281 2672.148438 "/>
<path fill-rule="nonzero" fill="rgb(33.343506%, 35.531616%, 37.586975%)" fill-opacity="1" d="M 1666.988281 2672.148438 L 1439.960938 2672.148438 L 1428.988281 2687.738281 L 1658.210938 2687.738281 L 1666.988281 2672.148438 "/>
<path fill-rule="nonzero" fill="rgb(9.863281%, 9.928894%, 10.450745%)" fill-opacity="1" d="M 1966.25 2672.148438 L 1840.941406 2687.738281 L 1840.941406 2695.390625 L 1962.78125 2695.390625 L 1966.25 2679.941406 L 1966.25 2672.148438 "/>
<path fill-rule="nonzero" fill="rgb(33.343506%, 35.531616%, 37.586975%)" fill-opacity="1" d="M 1966.25 2672.148438 L 1846.609375 2672.148438 L 1840.941406 2687.738281 L 1962.78125 2687.738281 L 1966.25 2672.148438 "/>
<path fill-rule="nonzero" fill="rgb(9.863281%, 9.928894%, 10.450745%)" fill-opacity="1" d="M 2117.078125 2672.148438 L 1992.828125 2687.738281 L 1992.828125 2695.390625 L 2114.660156 2695.390625 L 2117.078125 2679.941406 L 2117.078125 2672.148438 "/>
<path fill-rule="nonzero" fill="rgb(33.343506%, 35.531616%, 37.586975%)" fill-opacity="1" d="M 2117.078125 2672.148438 L 1997 2672.148438 L 1992.828125 2687.738281 L 2114.660156 2687.738281 L 2117.078125 2672.148438 "/>
<path fill-rule="nonzero" fill="rgb(9.863281%, 9.928894%, 10.450745%)" fill-opacity="1" d="M 2267.25 2672.148438 L 2142.328125 2687.738281 L 2142.328125 2695.390625 L 2264.171875 2695.390625 L 2267.25 2679.941406 L 2267.25 2672.148438 "/>
<path fill-rule="nonzero" fill="rgb(33.343506%, 35.531616%, 37.586975%)" fill-opacity="1" d="M 2267.25 2672.148438 L 2146.671875 2672.148438 L 2142.328125 2687.738281 L 2264.171875 2687.738281 L 2267.25 2672.148438 "/>
<path fill-rule="nonzero" fill="rgb(9.863281%, 9.928894%, 10.450745%)" fill-opacity="1" d="M 2414.269531 2672.148438 L 2292.441406 2687.738281 L 2292.441406 2695.390625 L 2414.269531 2695.390625 L 2414.269531 2672.148438 "/>
<path fill-rule="nonzero" fill="rgb(33.343506%, 35.531616%, 37.586975%)" fill-opacity="1" d="M 2414.269531 2672.148438 L 2294.890625 2672.148438 L 2292.441406 2687.738281 L 2414.269531 2687.738281 L 2414.269531 2672.148438 "/>
<path fill-rule="nonzero" fill="rgb(9.863281%, 9.928894%, 10.450745%)" fill-opacity="1" d="M 2560.808594 2672.148438 L 2438.980469 2672.148438 L 2438.980469 2695.390625 L 2560.808594 2695.390625 L 2560.808594 2672.148438 "/>
<path fill-rule="nonzero" fill="rgb(33.343506%, 35.531616%, 37.586975%)" fill-opacity="1" d="M 2560.808594 2672.148438 L 2438.980469 2672.148438 L 2438.980469 2687.738281 L 2560.808594 2687.738281 L 2560.808594 2672.148438 "/>
<path fill-rule="nonzero" fill="rgb(9.863281%, 9.928894%, 10.450745%)" fill-opacity="1" d="M 2708.328125 2687.738281 L 2588.488281 2687.738281 L 2588.488281 2695.390625 L 2710.320312 2695.390625 L 2710.320312 2686.738281 L 2708.328125 2687.738281 "/>
<path fill-rule="nonzero" fill="rgb(33.343506%, 35.531616%, 37.586975%)" fill-opacity="1" d="M 2705.539062 2672.148438 L 2590.941406 2672.148438 L 2588.488281 2687.738281 L 2710.320312 2687.738281 L 2705.539062 2672.148438 "/>
<path fill-rule="nonzero" fill="rgb(9.863281%, 9.928894%, 10.450745%)" fill-opacity="1" d="M 2854.570312 2672.148438 L 2736.300781 2672.148438 L 2736.300781 2678.621094 L 2738.589844 2695.390625 L 2860.429688 2695.390625 L 2860.429688 2687.738281 L 2854.570312 2672.148438 "/>
<path fill-rule="nonzero" fill="rgb(33.343506%, 35.531616%, 37.586975%)" fill-opacity="1" d="M 2856.660156 2672.148438 L 2736.300781 2672.148438 L 2738.589844 2687.738281 L 2860.429688 2687.738281 L 2856.660156 2672.148438 "/>
<path fill-rule="nonzero" fill="rgb(9.863281%, 9.928894%, 10.450745%)" fill-opacity="1" d="M 3002.101562 2672.148438 L 2883.609375 2672.148438 L 2883.609375 2681.398438 L 2886.921875 2695.390625 L 3008.75 2695.390625 L 3008.75 2687.738281 L 3002.101562 2672.148438 "/>
<path fill-rule="nonzero" fill="rgb(33.343506%, 35.531616%, 37.586975%)" fill-opacity="1" d="M 3002.101562 2672.148438 L 2883.609375 2672.148438 L 2886.921875 2687.738281 L 3008.75 2687.738281 L 3002.101562 2672.148438 "/>
<path fill-rule="nonzero" fill="rgb(9.863281%, 9.928894%, 10.450745%)" fill-opacity="1" d="M 3152.121094 2672.148438 L 3031.351562 2672.148438 L 3031.351562 2679.941406 L 3037.019531 2695.390625 L 3158.851562 2695.390625 L 3158.851562 2687.738281 L 3152.121094 2672.148438 "/>
<path fill-rule="nonzero" fill="rgb(33.343506%, 35.531616%, 37.586975%)" fill-opacity="1" d="M 3152.121094 2672.148438 L 3031.351562 2672.148438 L 3037.019531 2687.738281 L 3158.851562 2687.738281 L 3152.121094 2672.148438 "/>
<path fill-rule="nonzero" fill="rgb(9.863281%, 9.928894%, 10.450745%)" fill-opacity="1" d="M 3301.539062 2672.148438 L 3182.371094 2672.148438 L 3183.96875 2683.769531 L 3190.511719 2695.390625 L 3313.539062 2695.390625 L 3313.539062 2687.738281 L 3301.539062 2672.148438 "/>
<path fill-rule="nonzero" fill="rgb(33.343506%, 35.531616%, 37.586975%)" fill-opacity="1" d="M 3301.539062 2672.148438 L 3182.371094 2672.148438 L 3190.511719 2687.738281 L 3313.539062 2687.738281 L 3301.539062 2672.148438 "/>
<path fill-rule="nonzero" fill="rgb(9.863281%, 9.928894%, 10.450745%)" fill-opacity="1" d="M 3554.28125 2672.148438 L 3331.929688 2672.148438 L 3331.929688 2679.941406 L 3344.589844 2695.390625 L 3569.738281 2695.390625 L 3569.738281 2687.738281 L 3554.28125 2672.148438 "/>
<path fill-rule="nonzero" fill="rgb(33.343506%, 35.531616%, 37.586975%)" fill-opacity="1" d="M 3554.28125 2672.148438 L 3331.929688 2672.148438 L 3344.589844 2687.738281 L 3569.738281 2687.738281 L 3554.28125 2672.148438 "/>
<path fill-rule="nonzero" fill="rgb(9.863281%, 9.928894%, 10.450745%)" fill-opacity="1" d="M 3273.609375 2695.390625 L 3273.609375 2707.019531 L 3285.949219 2726.300781 L 3599.039062 2726.300781 L 3599.039062 2718.640625 L 3273.609375 2695.390625 "/>
<path fill-rule="nonzero" fill="rgb(33.343506%, 35.531616%, 37.586975%)" fill-opacity="1" d="M 3273.609375 2695.390625 L 3289.589844 2718.640625 L 3599.039062 2718.640625 L 3575.800781 2695.390625 L 3273.609375 2695.390625 "/>
<path fill-rule="nonzero" fill="rgb(9.863281%, 9.928894%, 10.450745%)" fill-opacity="1" d="M 3261.949219 2718.640625 L 3261.949219 2726.300781 L 3129.578125 2726.300781 L 3119.058594 2704.21875 L 3119.058594 2695.390625 L 3261.949219 2718.640625 "/>
<path fill-rule="nonzero" fill="rgb(33.343506%, 35.531616%, 37.586975%)" fill-opacity="1" d="M 3119.058594 2695.390625 L 3130.570312 2718.640625 L 3261.949219 2718.640625 L 3248.949219 2695.390625 L 3119.058594 2695.390625 "/>
<path fill-rule="nonzero" fill="rgb(9.863281%, 9.928894%, 10.450745%)" fill-opacity="1" d="M 3099.371094 2726.300781 L 2979.320312 2726.300781 L 2972.699219 2703.140625 L 2972.699219 2695.390625 L 3099.371094 2718.640625 L 3099.371094 2726.300781 "/>
<path fill-rule="nonzero" fill="rgb(33.343506%, 35.531616%, 37.586975%)" fill-opacity="1" d="M 3089.519531 2695.390625 L 2972.699219 2695.390625 L 2980 2718.640625 L 3099.371094 2718.640625 L 3089.519531 2695.390625 "/>
<path fill-rule="nonzero" fill="rgb(9.863281%, 9.928894%, 10.450745%)" fill-opacity="1" d="M 2950.5 2726.300781 L 2824.019531 2726.300781 L 2819.351562 2704.070312 L 2819.351562 2695.390625 L 2950.5 2718.640625 L 2950.5 2726.300781 "/>
<path fill-rule="nonzero" fill="rgb(33.343506%, 35.531616%, 37.586975%)" fill-opacity="1" d="M 2941.46875 2695.390625 L 2819.351562 2695.390625 L 2824.699219 2718.640625 L 2950.5 2718.640625 L 2941.46875 2695.390625 "/>
<path fill-rule="nonzero" fill="rgb(9.863281%, 9.928894%, 10.450745%)" fill-opacity="1" d="M 2789.429688 2726.300781 L 2672.109375 2726.300781 L 2669.398438 2705.558594 L 2669.398438 2695.390625 L 2789.429688 2718.640625 L 2789.429688 2726.300781 "/>
<path fill-rule="nonzero" fill="rgb(33.343506%, 35.531616%, 37.586975%)" fill-opacity="1" d="M 2783.820312 2695.390625 L 2789.429688 2718.640625 L 2672.109375 2718.640625 L 2669.398438 2695.390625 L 2783.820312 2695.390625 "/>
<path fill-rule="nonzero" fill="rgb(9.863281%, 9.928894%, 10.450745%)" fill-opacity="1" d="M 2638.011719 2726.300781 L 2518.210938 2726.300781 L 2518.210938 2695.390625 L 2638.011719 2695.390625 L 2638.011719 2726.300781 "/>
<path fill-rule="nonzero" fill="rgb(33.343506%, 35.531616%, 37.586975%)" fill-opacity="1" d="M 2638.011719 2695.390625 L 2518.210938 2695.390625 L 2518.210938 2718.640625 L 2638.011719 2718.640625 L 2638.011719 2695.390625 "/>
<path fill-rule="nonzero" fill="rgb(9.863281%, 9.928894%, 10.450745%)" fill-opacity="1" d="M 2371.941406 2726.300781 L 2487.910156 2726.300781 L 2487.910156 2695.390625 L 2376.378906 2694.828125 L 2371.75 2718.640625 L 2371.941406 2726.300781 "/>
<path fill-rule="nonzero" fill="rgb(33.343506%, 35.531616%, 37.586975%)" fill-opacity="1" d="M 2376.378906 2694.828125 L 2487.910156 2695.390625 L 2487.910156 2718.640625 L 2371.75 2718.640625 L 2376.378906 2694.828125 "/>
<path fill-rule="nonzero" fill="rgb(9.863281%, 9.928894%, 10.450745%)" fill-opacity="1" d="M 2341.789062 2695.390625 L 2220.511719 2695.390625 L 2217.171875 2718.640625 L 2217.171875 2726.300781 L 2339.011719 2726.300781 L 2341.789062 2705.398438 L 2341.789062 2695.390625 "/>
<path fill-rule="nonzero" fill="rgb(33.343506%, 35.531616%, 37.586975%)" fill-opacity="1" d="M 2341.789062 2695.390625 L 2220.511719 2695.390625 L 2217.171875 2718.640625 L 2339.011719 2718.640625 L 2341.789062 2695.390625 "/>
<path fill-rule="nonzero" fill="rgb(9.863281%, 9.928894%, 10.450745%)" fill-opacity="1" d="M 2187.429688 2695.390625 L 2067.480469 2694.828125 L 2062.921875 2718.640625 L 2062.921875 2726.300781 L 2184.75 2726.300781 L 2187.429688 2702 L 2187.429688 2695.390625 "/>
<path fill-rule="nonzero" fill="rgb(33.343506%, 35.531616%, 37.586975%)" fill-opacity="1" d="M 2187.429688 2695.390625 L 2067.480469 2694.828125 L 2062.921875 2718.640625 L 2184.75 2718.640625 L 2187.429688 2695.390625 "/>
<path fill-rule="nonzero" fill="rgb(9.863281%, 9.928894%, 10.450745%)" fill-opacity="1" d="M 2039.480469 2694.828125 L 1918.609375 2694.078125 L 1911.628906 2718.640625 L 1911.628906 2726.300781 L 2034.28125 2726.300781 L 2039.480469 2703.578125 L 2039.480469 2694.828125 "/>
<path fill-rule="nonzero" fill="rgb(33.343506%, 35.531616%, 37.586975%)" fill-opacity="1" d="M 2039.480469 2694.828125 L 1918.191406 2695.789062 L 1911.628906 2718.640625 L 2033.460938 2718.640625 L 2039.480469 2694.828125 "/>
<path fill-rule="nonzero" fill="rgb(9.863281%, 9.928894%, 10.450745%)" fill-opacity="1" d="M 1881.988281 2695.390625 L 1762.71875 2695.390625 L 1753.21875 2718.640625 L 1753.21875 2726.300781 L 1875.058594 2726.300781 L 1881.988281 2702.25 L 1881.988281 2695.390625 "/>
<path fill-rule="nonzero" fill="rgb(33.343506%, 35.531616%, 37.586975%)" fill-opacity="1" d="M 1881.988281 2695.390625 L 1762.71875 2695.390625 L 1753.21875 2718.640625 L 1875.058594 2718.640625 L 1881.988281 2695.390625 "/>
<path fill-rule="nonzero" fill="rgb(9.863281%, 9.928894%, 10.450745%)" fill-opacity="1" d="M 1730.589844 2695.398438 L 1422.101562 2695.390625 L 1401.910156 2718.640625 L 1401.910156 2726.300781 L 1720.800781 2726.300781 L 1730.589844 2705.378906 L 1730.589844 2695.398438 "/>
<path fill-rule="nonzero" fill="rgb(33.343506%, 35.531616%, 37.586975%)" fill-opacity="1" d="M 1730.589844 2695.398438 L 1422.101562 2695.390625 L 1401.910156 2718.640625 L 1719.800781 2718.640625 L 1730.589844 2695.398438 "/>
<path fill-rule="nonzero" fill="rgb(9.863281%, 9.928894%, 10.450745%)" fill-opacity="1" d="M 1364.539062 2766.03125 L 1364.539062 2774.46875 L 1504.679688 2774.46875 L 1525.570312 2741.308594 L 1525.570312 2731.171875 L 1364.539062 2766.03125 "/>
<path fill-rule="nonzero" fill="rgb(33.343506%, 35.531616%, 37.586975%)" fill-opacity="1" d="M 1364.539062 2766.03125 L 1392.648438 2731.171875 L 1525.570312 2731.171875 L 1503.550781 2766.03125 L 1364.539062 2766.03125 "/>
<path fill-rule="nonzero" fill="rgb(9.863281%, 9.928894%, 10.450745%)" fill-opacity="1" d="M 1524.121094 2774.46875 L 1524.121094 2766.03125 L 1678.378906 2731.171875 L 1678.378906 2742.691406 L 1661.160156 2774.46875 L 1524.121094 2774.46875 "/>
<path fill-rule="nonzero" fill="rgb(33.343506%, 35.531616%, 37.586975%)" fill-opacity="1" d="M 1524.121094 2766.03125 L 1546.171875 2731.171875 L 1678.378906 2731.171875 L 1658.210938 2766.03125 L 1524.121094 2766.03125 "/>
<path fill-rule="nonzero" fill="rgb(9.863281%, 9.928894%, 10.450745%)" fill-opacity="1" d="M 1683.128906 2766.03125 L 1683.128906 2774.46875 L 1820.949219 2774.46875 L 1831.449219 2742.238281 L 1831.449219 2731.171875 L 1683.128906 2766.03125 "/>
<path fill-rule="nonzero" fill="rgb(33.343506%, 35.531616%, 37.586975%)" fill-opacity="1" d="M 1683.128906 2766.03125 L 1700.058594 2731.171875 L 1831.449219 2731.171875 L 1819.738281 2766.03125 L 1683.128906 2766.03125 "/>
<path fill-rule="nonzero" fill="rgb(9.863281%, 9.928894%, 10.450745%)" fill-opacity="1" d="M 1840.941406 2766.03125 L 1840.941406 2774.46875 L 2013.121094 2774.46875 L 2021.648438 2742.640625 L 2021.648438 2731.171875 L 1840.941406 2766.03125 "/>
<path fill-rule="nonzero" fill="rgb(33.343506%, 35.531616%, 37.586975%)" fill-opacity="1" d="M 1852.820312 2731.171875 L 1840.941406 2766.03125 L 2012.011719 2766.03125 L 2021.648438 2731.171875 L 1852.820312 2731.171875 "/>
<path fill-rule="nonzero" fill="rgb(33.343506%, 35.531616%, 37.586975%)" fill-opacity="1" d="M 2046.109375 2731.171875 L 2037.910156 2766.03125 L 2816.308594 2766.03125 L 2806.871094 2731.171875 L 2046.109375 2731.171875 "/>
<path fill-rule="nonzero" fill="rgb(9.863281%, 9.928894%, 10.450745%)" fill-opacity="1" d="M 2037.910156 2766.03125 L 2037.910156 2774.46875 L 2816.308594 2774.46875 L 2816.308594 2766.03125 L 2037.910156 2766.03125 "/>
<path fill-rule="nonzero" fill="rgb(9.863281%, 9.928894%, 10.450745%)" fill-opacity="1" d="M 2836.71875 2774.46875 L 3014.109375 2774.46875 L 3014.109375 2766.03125 L 2827.628906 2731.171875 L 2827.628906 2742.261719 L 2836.71875 2774.46875 "/>
<path fill-rule="nonzero" fill="rgb(33.343506%, 35.531616%, 37.586975%)" fill-opacity="1" d="M 2827.628906 2731.171875 L 2838.070312 2766.03125 L 3014.109375 2766.03125 L 2997.308594 2731.171875 L 2827.628906 2731.171875 "/>
<path fill-rule="nonzero" fill="rgb(9.863281%, 9.928894%, 10.450745%)" fill-opacity="1" d="M 3019.621094 2731.171875 L 3019.621094 2741.488281 L 3034.269531 2774.46875 L 3163.949219 2774.46875 L 3163.949219 2766.03125 L 3019.621094 2731.171875 "/>
<path fill-rule="nonzero" fill="rgb(33.343506%, 35.531616%, 37.586975%)" fill-opacity="1" d="M 3019.621094 2731.171875 L 3035.609375 2766.03125 L 3163.949219 2766.03125 L 3146.738281 2731.171875 L 3019.621094 2731.171875 "/>
<path fill-rule="nonzero" fill="rgb(9.863281%, 9.928894%, 10.450745%)" fill-opacity="1" d="M 3187.46875 2774.46875 L 3324.539062 2774.46875 L 3324.539062 2766.03125 L 3173.359375 2731.171875 L 3173.359375 2744.5 L 3187.46875 2774.46875 "/>
<path fill-rule="nonzero" fill="rgb(33.343506%, 35.531616%, 37.586975%)" fill-opacity="1" d="M 3173.359375 2731.171875 L 3190.828125 2766.03125 L 3324.539062 2766.03125 L 3300.351562 2731.171875 L 3173.359375 2731.171875 "/>
<path fill-rule="nonzero" fill="rgb(9.863281%, 9.928894%, 10.450745%)" fill-opacity="1" d="M 3345.371094 2774.46875 L 3486.480469 2774.46875 L 3486.480469 2766.03125 L 3324.539062 2731.171875 L 3324.539062 2741.820312 L 3345.371094 2774.46875 "/>
<path fill-rule="nonzero" fill="rgb(33.343506%, 35.531616%, 37.586975%)" fill-opacity="1" d="M 3324.539062 2731.171875 L 3346.710938 2766.03125 L 3486.480469 2766.03125 L 3463.640625 2731.171875 L 3324.539062 2731.171875 "/>
<path fill-rule="nonzero" fill="rgb(9.863281%, 9.928894%, 10.450745%)" fill-opacity="1" d="M 3504.621094 2774.46875 L 3643.710938 2774.46875 L 3643.710938 2766.03125 L 3486.480469 2731.171875 L 3486.480469 2744.5 L 3504.621094 2774.46875 "/>
<path fill-rule="nonzero" fill="rgb(33.343506%, 35.531616%, 37.586975%)" fill-opacity="1" d="M 3486.480469 2731.171875 L 3508.648438 2766.03125 L 3643.710938 2766.03125 L 3612.128906 2731.171875 L 3486.480469 2731.171875 "/>
<path fill-rule="nonzero" fill="rgb(74.815369%, 75.617981%, 75.819397%)" fill-opacity="1" d="M 2736.300781 2969.78125 C 2736.300781 2978.578125 2729.160156 2985.730469 2720.351562 2985.730469 L 2233.839844 2985.730469 C 2225.03125 2985.730469 2217.890625 2978.578125 2217.890625 2969.78125 C 2217.890625 2960.96875 2225.03125 2953.828125 2233.839844 2953.828125 L 2720.351562 2953.828125 C 2729.160156 2953.828125 2736.300781 2960.96875 2736.300781 2969.78125 "/>
<path fill-rule="nonzero" fill="rgb(39.830017%, 35.281372%, 69.918823%)" fill-opacity="1" d="M 1425.429688 2529.121094 L 3549.761719 2529.121094 L 3549.761719 1144.128906 L 1425.429688 1144.128906 Z M 1425.429688 2529.121094 "/>
<path fill-rule="nonzero" fill="rgb(25.32959%, 25.152588%, 25.767517%)" fill-opacity="1" d="M 1601.398438 2170.339844 C 1601.421875 2194.878906 1581.53125 2214.78125 1556.988281 2214.789062 L 1025.351562 2214.980469 C 1000.808594 2214.988281 980.910156 2195.101562 980.902344 2170.570312 L 980.628906 1417.179688 C 980.621094 1392.648438 1000.511719 1372.738281 1025.039062 1372.730469 L 1556.679688 1372.539062 C 1581.21875 1372.53125 1601.121094 1392.421875 1601.128906 1416.960938 L 1601.398438 2170.339844 "/>
<path fill-rule="nonzero" fill="rgb(94.055176%, 94.018555%, 93.884277%)" fill-opacity="1" d="M 1142.609375 1719.339844 C 1142.628906 1752.171875 1116.019531 1778.789062 1083.191406 1778.800781 C 1050.359375 1778.808594 1023.738281 1752.210938 1023.730469 1719.378906 C 1023.710938 1686.550781 1050.320312 1659.929688 1083.148438 1659.921875 C 1115.980469 1659.898438 1142.601562 1686.511719 1142.609375 1719.339844 "/>
<path fill-rule="nonzero" fill="rgb(94.055176%, 94.018555%, 93.884277%)" fill-opacity="1" d="M 1279.679688 1719.289062 C 1279.691406 1752.121094 1253.089844 1778.738281 1220.261719 1778.75 C 1187.429688 1778.761719 1160.808594 1752.160156 1160.789062 1719.328125 C 1160.789062 1686.5 1187.390625 1659.878906 1220.210938 1659.871094 C 1253.050781 1659.851562 1279.671875 1686.460938 1279.679688 1719.289062 "/>
<path fill-rule="nonzero" fill="rgb(94.055176%, 94.018555%, 93.884277%)" fill-opacity="1" d="M 1423.050781 1719.230469 C 1423.058594 1752.058594 1396.460938 1778.679688 1363.628906 1778.699219 C 1330.800781 1778.710938 1304.179688 1752.109375 1304.160156 1719.28125 C 1304.148438 1686.449219 1330.761719 1659.820312 1363.578125 1659.808594 C 1396.410156 1659.800781 1423.039062 1686.398438 1423.050781 1719.230469 "/>
<path fill-rule="nonzero" fill="rgb(94.055176%, 94.018555%, 93.884277%)" fill-opacity="1" d="M 1561.691406 1719.179688 C 1561.710938 1752.011719 1535.101562 1778.640625 1502.28125 1778.648438 C 1469.449219 1778.660156 1442.820312 1752.058594 1442.808594 1719.230469 C 1442.800781 1686.398438 1469.398438 1659.78125 1502.230469 1659.761719 C 1535.058594 1659.75 1561.679688 1686.351562 1561.691406 1719.179688 "/>
<path fill-rule="nonzero" fill="rgb(94.055176%, 94.018555%, 93.884277%)" fill-opacity="1" d="M 1142.660156 1852.628906 C 1142.671875 1885.460938 1116.070312 1912.078125 1083.238281 1912.089844 C 1050.410156 1912.109375 1023.789062 1885.5 1023.769531 1852.671875 C 1023.761719 1819.839844 1050.371094 1793.21875 1083.199219 1793.210938 C 1116.019531 1793.199219 1142.648438 1819.800781 1142.660156 1852.628906 "/>
<path fill-rule="nonzero" fill="rgb(94.055176%, 94.018555%, 93.884277%)" fill-opacity="1" d="M 1279.730469 1852.578125 C 1279.738281 1885.410156 1253.140625 1912.03125 1220.308594 1912.039062 C 1187.480469 1912.050781 1160.859375 1885.449219 1160.839844 1852.621094 C 1160.828125 1819.789062 1187.441406 1793.171875 1220.269531 1793.160156 C 1253.089844 1793.148438 1279.710938 1819.75 1279.730469 1852.578125 "/>
<path fill-rule="nonzero" fill="rgb(94.055176%, 94.018555%, 93.884277%)" fill-opacity="1" d="M 1423.101562 1852.53125 C 1423.109375 1885.359375 1396.511719 1911.980469 1363.679688 1911.988281 C 1330.851562 1912.011719 1304.230469 1885.398438 1304.210938 1852.570312 C 1304.199219 1819.738281 1330.800781 1793.121094 1363.628906 1793.109375 C 1396.460938 1793.089844 1423.089844 1819.699219 1423.101562 1852.53125 "/>
<path fill-rule="nonzero" fill="rgb(94.055176%, 94.018555%, 93.884277%)" fill-opacity="1" d="M 1561.75 1852.480469 C 1561.761719 1885.308594 1535.148438 1911.929688 1502.320312 1911.941406 C 1469.488281 1911.949219 1442.871094 1885.351562 1442.859375 1852.519531 C 1442.839844 1819.699219 1469.449219 1793.070312 1502.28125 1793.058594 C 1535.109375 1793.050781 1561.738281 1819.648438 1561.75 1852.480469 "/>
<path fill-rule="nonzero" fill="rgb(94.055176%, 94.018555%, 93.884277%)" fill-opacity="1" d="M 1142.710938 1985.921875 C 1142.71875 2018.75 1116.121094 2045.378906 1083.289062 2045.390625 C 1050.460938 2045.398438 1023.839844 2018.800781 1023.820312 1985.96875 C 1023.808594 1953.140625 1050.421875 1926.519531 1083.25 1926.5 C 1116.070312 1926.488281 1142.699219 1953.101562 1142.710938 1985.921875 "/>
<path fill-rule="nonzero" fill="rgb(94.055176%, 94.018555%, 93.884277%)" fill-opacity="1" d="M 1279.78125 1985.871094 C 1279.789062 2018.699219 1253.179688 2045.328125 1220.359375 2045.339844 C 1187.53125 2045.351562 1160.910156 2018.75 1160.890625 1985.921875 C 1160.878906 1953.089844 1187.488281 1926.46875 1220.308594 1926.460938 C 1253.140625 1926.441406 1279.769531 1953.050781 1279.78125 1985.871094 "/>
<path fill-rule="nonzero" fill="rgb(94.055176%, 94.018555%, 93.884277%)" fill-opacity="1" d="M 1423.140625 1985.820312 C 1423.160156 2018.648438 1396.550781 2045.269531 1363.730469 2045.289062 C 1330.898438 2045.300781 1304.269531 2018.691406 1304.261719 1985.859375 C 1304.25 1953.039062 1330.859375 1926.421875 1363.679688 1926.410156 C 1396.511719 1926.390625 1423.128906 1952.988281 1423.140625 1985.820312 "/>
<path fill-rule="nonzero" fill="rgb(94.055176%, 94.018555%, 93.884277%)" fill-opacity="1" d="M 1561.789062 1985.769531 C 1561.808594 2018.601562 1535.199219 2045.21875 1502.378906 2045.238281 C 1469.539062 2045.25 1442.921875 2018.648438 1442.910156 1985.820312 C 1442.890625 1952.988281 1469.5 1926.359375 1502.328125 1926.351562 C 1535.160156 1926.339844 1561.78125 1952.941406 1561.789062 1985.769531 "/>
<path fill-rule="nonzero" fill="rgb(94.055176%, 94.018555%, 93.884277%)" fill-opacity="1" d="M 1142.761719 2119.21875 C 1142.769531 2152.050781 1116.171875 2178.671875 1083.339844 2178.679688 C 1050.511719 2178.699219 1023.878906 2152.089844 1023.871094 2119.261719 C 1023.859375 2086.441406 1050.46875 2059.808594 1083.289062 2059.789062 C 1116.121094 2059.789062 1142.75 2086.390625 1142.761719 2119.21875 "/>
<path fill-rule="nonzero" fill="rgb(94.055176%, 94.018555%, 93.884277%)" fill-opacity="1" d="M 1279.828125 2119.171875 C 1279.839844 2152 1253.230469 2178.621094 1220.410156 2178.628906 C 1187.570312 2178.640625 1160.949219 2152.039062 1160.941406 2119.210938 C 1160.929688 2086.378906 1187.53125 2059.761719 1220.359375 2059.75 C 1253.191406 2059.730469 1279.808594 2086.339844 1279.828125 2119.171875 "/>
<path fill-rule="nonzero" fill="rgb(94.055176%, 94.018555%, 93.884277%)" fill-opacity="1" d="M 1423.191406 2119.121094 C 1423.210938 2151.949219 1396.601562 2178.570312 1363.78125 2178.578125 C 1330.949219 2178.589844 1304.320312 2151.988281 1304.308594 2119.160156 C 1304.300781 2086.328125 1330.898438 2059.710938 1363.730469 2059.699219 C 1396.558594 2059.679688 1423.179688 2086.289062 1423.191406 2119.121094 "/>
<path fill-rule="nonzero" fill="rgb(94.055176%, 94.018555%, 93.884277%)" fill-opacity="1" d="M 1561.839844 2119.070312 C 1561.859375 2151.890625 1535.25 2178.519531 1502.421875 2178.53125 C 1469.589844 2178.539062 1442.96875 2151.941406 1442.960938 2119.109375 C 1442.949219 2086.28125 1469.550781 2059.660156 1502.378906 2059.640625 C 1535.210938 2059.628906 1561.828125 2086.238281 1561.839844 2119.070312 "/>
<path fill-rule="nonzero" fill="rgb(14.482117%, 13.876343%, 13.757324%)" fill-opacity="1" d="M 1556.679688 1372.539062 L 1025.039062 1372.730469 C 1000.511719 1372.738281 980.621094 1392.648438 980.628906 1417.179688 L 980.703125 1620.460938 L 1601.210938 1620.238281 L 1601.128906 1416.960938 C 1601.121094 1392.421875 1581.21875 1372.53125 1556.679688 1372.539062 "/>
<path fill-rule="nonzero" fill="rgb(88.839722%, 88.676453%, 88.002014%)" fill-opacity="1" d="M 1568.191406 1581.558594 L 1015.878906 1581.761719 L 1015.820312 1415 L 1568.128906 1414.800781 L 1568.191406 1581.558594 "/>
<path fill-rule="nonzero" fill="rgb(13.729858%, 12.159729%, 12.548828%)" fill-opacity="1" d="M 1074.921875 2119.589844 C 1074.921875 2127.679688 1077.410156 2132.269531 1081.238281 2132.269531 C 1085.539062 2132.269531 1087.601562 2127.25 1087.601562 2119.300781 C 1087.589844 2111.640625 1085.628906 2106.621094 1081.28125 2106.621094 C 1077.589844 2106.621094 1074.910156 2111.121094 1074.921875 2119.589844 Z M 1091.808594 2119.109375 C 1091.808594 2129.691406 1087.890625 2135.53125 1081 2135.53125 C 1074.921875 2135.53125 1070.800781 2129.839844 1070.699219 2119.550781 C 1070.699219 2109.109375 1075.191406 2103.359375 1081.511719 2103.359375 C 1088.070312 2103.359375 1091.808594 2109.199219 1091.808594 2119.109375 "/>
<path fill-rule="nonzero" fill="rgb(13.729858%, 12.159729%, 12.548828%)" fill-opacity="1" d="M 1218.101562 2132.46875 C 1218.089844 2130.691406 1219.289062 2129.449219 1220.96875 2129.449219 C 1222.640625 2129.441406 1223.789062 2130.691406 1223.789062 2132.460938 C 1223.789062 2134.191406 1222.691406 2135.480469 1220.921875 2135.480469 C 1219.238281 2135.480469 1218.089844 2134.191406 1218.101562 2132.46875 "/>
<path fill-rule="nonzero" fill="rgb(13.729858%, 12.159729%, 12.548828%)" fill-opacity="1" d="M 1354.371094 2128.160156 L 1354.371094 2125.28125 L 1379.070312 2125.269531 L 1379.058594 2128.140625 Z M 1354.359375 2118.769531 L 1354.359375 2115.898438 L 1379.058594 2115.890625 L 1379.058594 2118.761719 L 1354.359375 2118.769531 "/>
<path fill-rule="nonzero" fill="rgb(13.729858%, 12.159729%, 12.548828%)" fill-opacity="1" d="M 1505.089844 2109.378906 L 1505.089844 2120.628906 L 1515.910156 2120.628906 L 1515.910156 2123.5 L 1505.101562 2123.5 L 1505.101562 2134.839844 L 1502.039062 2134.851562 L 1502.03125 2123.5 L 1491.21875 2123.511719 L 1491.210938 2120.640625 L 1502.03125 2120.640625 L 1502.03125 2109.378906 L 1505.089844 2109.378906 "/>
<path fill-rule="nonzero" fill="rgb(13.729858%, 12.159729%, 12.548828%)" fill-opacity="1" d="M 1080.21875 1974.519531 L 1080.128906 1974.519531 L 1074.71875 1977.449219 L 1073.898438 1974.230469 L 1080.699219 1970.589844 L 1084.289062 1970.589844 L 1084.300781 2001.710938 L 1080.230469 2001.710938 L 1080.21875 1974.519531 "/>
<path fill-rule="nonzero" fill="rgb(13.729858%, 12.159729%, 12.548828%)" fill-opacity="1" d="M 1212.378906 2001.660156 L 1212.378906 1999.078125 L 1215.679688 1995.871094 C 1223.621094 1988.300781 1227.210938 1984.28125 1227.261719 1979.589844 C 1227.261719 1976.429688 1225.71875 1973.511719 1221.078125 1973.511719 C 1218.261719 1973.511719 1215.910156 1974.949219 1214.480469 1976.148438 L 1213.140625 1973.179688 C 1215.289062 1971.359375 1218.351562 1970.019531 1221.941406 1970.019531 C 1228.640625 1970.019531 1231.46875 1974.609375 1231.46875 1979.058594 C 1231.46875 1984.808594 1227.308594 1989.449219 1220.75 1995.769531 L 1218.269531 1998.070312 L 1218.269531 1998.160156 L 1232.238281 1998.160156 L 1232.238281 2001.648438 L 1212.378906 2001.660156 "/>
<path fill-rule="nonzero" fill="rgb(13.729858%, 12.159729%, 12.548828%)" fill-opacity="1" d="M 1355.558594 1996.769531 C 1356.761719 1997.539062 1359.539062 1998.738281 1362.460938 1998.738281 C 1367.859375 1998.730469 1369.539062 1995.289062 1369.488281 1992.699219 C 1369.441406 1988.339844 1365.519531 1986.480469 1361.449219 1986.480469 L 1359.101562 1986.480469 L 1359.101562 1983.320312 L 1361.449219 1983.320312 C 1364.511719 1983.320312 1368.390625 1981.738281 1368.378906 1978.050781 C 1368.378906 1975.570312 1366.800781 1973.359375 1362.929688 1973.371094 C 1360.441406 1973.371094 1358.039062 1974.46875 1356.699219 1975.429688 L 1355.601562 1972.359375 C 1357.230469 1971.171875 1360.390625 1969.96875 1363.738281 1969.96875 C 1369.859375 1969.960938 1372.640625 1973.601562 1372.640625 1977.378906 C 1372.648438 1980.578125 1370.730469 1983.320312 1366.898438 1984.710938 L 1366.898438 1984.800781 C 1370.730469 1985.570312 1373.851562 1988.441406 1373.851562 1992.800781 C 1373.851562 1997.769531 1369.96875 2002.128906 1362.511719 2002.128906 C 1359.011719 2002.140625 1355.949219 2001.03125 1354.421875 2000.03125 L 1355.558594 1996.769531 "/>
<path fill-rule="nonzero" fill="rgb(13.729858%, 12.159729%, 12.548828%)" fill-opacity="1" d="M 1508.730469 1987.050781 L 1508.730469 1990.160156 L 1496.910156 1990.171875 L 1496.910156 1987.050781 L 1508.730469 1987.050781 "/>
<path fill-rule="nonzero" fill="rgb(13.729858%, 12.159729%, 12.548828%)" fill-opacity="1" d="M 1084.058594 1856.640625 L 1084.050781 1846.25 C 1084.050781 1844.628906 1084.101562 1842.988281 1084.191406 1841.371094 L 1084.050781 1841.371094 C 1083.089844 1843.191406 1082.328125 1844.53125 1081.46875 1845.960938 L 1073.859375 1856.550781 L 1073.859375 1856.640625 Z M 1084.058594 1868.410156 L 1084.058594 1859.941406 L 1069.601562 1859.949219 L 1069.601562 1857.171875 L 1083.46875 1837.300781 L 1088.019531 1837.300781 L 1088.03125 1856.628906 L 1092.378906 1856.640625 L 1092.378906 1859.941406 L 1088.03125 1859.941406 L 1088.039062 1868.410156 L 1084.058594 1868.410156 "/>
<path fill-rule="nonzero" fill="rgb(13.729858%, 12.159729%, 12.548828%)" fill-opacity="1" d="M 1230.890625 1840.789062 L 1219.019531 1840.789062 L 1217.828125 1848.789062 C 1218.550781 1848.691406 1219.21875 1848.589844 1220.359375 1848.589844 C 1222.761719 1848.589844 1225.148438 1849.121094 1227.070312 1850.269531 C 1229.511719 1851.648438 1231.519531 1854.328125 1231.519531 1858.261719 C 1231.519531 1864.339844 1226.691406 1868.890625 1219.941406 1868.890625 C 1216.539062 1868.890625 1213.671875 1867.929688 1212.191406 1866.980469 L 1213.238281 1863.769531 C 1214.53125 1864.539062 1217.070312 1865.488281 1219.890625 1865.488281 C 1223.871094 1865.488281 1227.269531 1862.898438 1227.261719 1858.738281 C 1227.210938 1854.71875 1224.53125 1851.851562 1218.308594 1851.851562 C 1216.539062 1851.851562 1215.148438 1852.039062 1214 1852.191406 L 1216.011719 1837.25 L 1230.890625 1837.238281 L 1230.890625 1840.789062 "/>
<path fill-rule="nonzero" fill="rgb(13.729858%, 12.159729%, 12.548828%)" fill-opacity="1" d="M 1371.070312 1858.109375 C 1371.070312 1853.660156 1368.53125 1850.980469 1364.648438 1850.980469 C 1362.121094 1850.988281 1359.769531 1852.558594 1358.621094 1854.808594 C 1358.339844 1855.289062 1358.148438 1855.921875 1358.140625 1856.679688 C 1358.25 1861.800781 1360.589844 1865.578125 1365 1865.578125 C 1368.628906 1865.578125 1371.070312 1862.558594 1371.070312 1858.109375 Z M 1372.261719 1840.160156 C 1371.398438 1840.121094 1370.300781 1840.171875 1369.101562 1840.359375 C 1362.5 1841.460938 1359 1846.300781 1358.289062 1851.421875 L 1358.429688 1851.421875 C 1359.910156 1849.449219 1362.5 1847.828125 1365.949219 1847.820312 C 1371.449219 1847.820312 1375.328125 1851.789062 1375.328125 1857.871094 C 1375.328125 1863.570312 1371.460938 1868.839844 1364.988281 1868.839844 C 1358.339844 1868.839844 1353.980469 1863.671875 1353.980469 1855.578125 C 1353.980469 1849.460938 1356.179688 1844.621094 1359.238281 1841.550781 C 1361.820312 1839.019531 1365.269531 1837.441406 1369.199219 1836.960938 C 1370.441406 1836.769531 1371.488281 1836.71875 1372.261719 1836.71875 L 1372.261719 1840.160156 "/>
<path fill-rule="nonzero" fill="rgb(13.729858%, 12.159729%, 12.548828%)" fill-opacity="1" d="M 1507.609375 1845.53125 L 1503.070312 1851.511719 L 1503.070312 1851.609375 L 1510.289062 1850.648438 L 1510.300781 1853.898438 L 1503.070312 1853.050781 L 1503.070312 1853.140625 L 1507.660156 1858.890625 L 1504.648438 1860.609375 L 1501.769531 1853.910156 L 1501.679688 1853.910156 L 1498.570312 1860.660156 L 1495.851562 1858.941406 L 1500.390625 1853.089844 L 1500.390625 1853 L 1493.300781 1853.910156 L 1493.300781 1850.660156 L 1500.339844 1851.558594 L 1500.339844 1851.46875 L 1495.839844 1845.628906 L 1498.761719 1843.949219 L 1501.730469 1850.609375 L 1501.820312 1850.609375 L 1504.738281 1843.898438 L 1507.609375 1845.53125 "/>
<path fill-rule="nonzero" fill="rgb(13.729858%, 12.159729%, 12.548828%)" fill-opacity="1" d="M 1091.179688 1700.449219 L 1091.179688 1703.230469 L 1077.640625 1731.570312 L 1073.289062 1731.570312 L 1086.78125 1704.039062 L 1086.78125 1703.949219 L 1071.550781 1703.949219 L 1071.550781 1700.460938 L 1091.179688 1700.449219 "/>
<path fill-rule="nonzero" fill="rgb(13.729858%, 12.159729%, 12.548828%)" fill-opacity="1" d="M 1217.058594 1707.871094 C 1217.058594 1710.980469 1219.410156 1712.660156 1223 1713.609375 C 1225.679688 1712.699219 1227.738281 1710.789062 1227.730469 1707.960938 C 1227.730469 1705.480469 1226.25 1702.890625 1222.46875 1702.890625 C 1218.96875 1702.890625 1217.058594 1705.191406 1217.058594 1707.871094 Z M 1228.648438 1723.421875 C 1228.648438 1719.648438 1226.011719 1717.820312 1221.800781 1716.628906 C 1218.171875 1717.679688 1216.199219 1720.078125 1216.210938 1723.039062 C 1216.058594 1726.210938 1218.460938 1728.980469 1222.429688 1728.980469 C 1226.210938 1728.980469 1228.648438 1726.628906 1228.648438 1723.421875 Z M 1211.898438 1723.621094 C 1211.898438 1719.699219 1214.238281 1716.921875 1218.070312 1715.289062 L 1218.019531 1715.148438 C 1214.570312 1713.519531 1213.089844 1710.839844 1213.089844 1708.160156 C 1213.078125 1703.230469 1217.25 1699.871094 1222.710938 1699.871094 C 1228.738281 1699.871094 1231.75 1703.660156 1231.75 1707.53125 C 1231.75 1710.160156 1230.460938 1712.988281 1226.640625 1714.808594 L 1226.640625 1714.949219 C 1230.511719 1716.480469 1232.910156 1719.210938 1232.910156 1722.988281 C 1232.910156 1728.398438 1228.269531 1732.039062 1222.328125 1732.039062 C 1215.828125 1732.039062 1211.898438 1728.171875 1211.898438 1723.621094 "/>
<path fill-rule="nonzero" fill="rgb(13.729858%, 12.159729%, 12.548828%)" fill-opacity="1" d="M 1358.429688 1710.589844 C 1358.429688 1714.46875 1360.769531 1717.199219 1364.410156 1717.199219 C 1367.238281 1717.199219 1369.441406 1715.808594 1370.539062 1713.941406 C 1370.78125 1713.558594 1370.921875 1713.078125 1370.921875 1712.410156 C 1370.921875 1707.101562 1368.960938 1703.03125 1364.550781 1703.03125 C 1360.960938 1703.03125 1358.429688 1706.191406 1358.429688 1710.589844 Z M 1356.898438 1728.5 C 1357.808594 1728.589844 1358.871094 1728.5 1360.300781 1728.351562 C 1362.738281 1728.019531 1365.039062 1727.011719 1366.808594 1725.328125 C 1368.871094 1723.46875 1370.351562 1720.738281 1370.921875 1717.050781 L 1370.78125 1717.050781 C 1369.058594 1719.160156 1366.570312 1720.410156 1363.460938 1720.410156 C 1357.859375 1720.410156 1354.269531 1716.199219 1354.261719 1710.890625 C 1354.261719 1705 1358.519531 1699.820312 1364.890625 1699.828125 C 1371.25 1699.820312 1375.179688 1704.988281 1375.179688 1712.941406 C 1375.179688 1719.78125 1372.890625 1724.570312 1369.820312 1727.539062 C 1367.429688 1729.878906 1364.128906 1731.320312 1360.78125 1731.699219 C 1359.25 1731.941406 1357.910156 1732 1356.898438 1731.941406 L 1356.898438 1728.5 "/>
<path fill-rule="nonzero" fill="rgb(13.729858%, 12.159729%, 12.548828%)" fill-opacity="1" d="M 1509.710938 1716.910156 L 1509.710938 1720.019531 L 1497.890625 1720.019531 L 1497.890625 1716.910156 L 1509.710938 1716.910156 "/>
<path fill-rule="nonzero" fill="rgb(13.729858%, 12.159729%, 12.548828%)" fill-opacity="1" d="M 1501.769531 1725.359375 C 1501.769531 1724.269531 1502.511719 1723.5 1503.539062 1723.5 C 1504.578125 1723.5 1505.28125 1724.261719 1505.289062 1725.351562 C 1505.289062 1726.421875 1504.601562 1727.210938 1503.519531 1727.210938 C 1502.480469 1727.21875 1501.78125 1726.421875 1501.769531 1725.359375 "/>
<path fill-rule="nonzero" fill="rgb(13.729858%, 12.159729%, 12.548828%)" fill-opacity="1" d="M 1501.800781 1709.890625 C 1501.808594 1708.78125 1502.558594 1707.988281 1503.621094 1707.988281 C 1504.679688 1707.988281 1505.398438 1708.769531 1505.398438 1709.890625 C 1505.410156 1710.980469 1504.710938 1711.800781 1503.589844 1711.800781 C 1502.53125 1711.800781 1501.808594 1710.980469 1501.800781 1709.890625 "/>
<path fill-rule="nonzero" fill="rgb(93.222046%, 24.412537%, 20.358276%)" fill-opacity="1" d="M 3827.351562 1633.480469 C 3837.609375 1633.46875 3845.921875 1641.789062 3845.921875 1652.039062 L 3845.960938 2231.488281 C 3845.96875 2241.75 3837.648438 2250.058594 3827.390625 2250.058594 L 3513.96875 2250.089844 C 3503.710938 2250.089844 3495.398438 2241.769531 3495.398438 2231.519531 L 3495.359375 1652.070312 C 3495.359375 1641.808594 3503.671875 1633.5 3513.929688 1633.5 L 3827.351562 1633.480469 "/>
<path fill-rule="nonzero" fill="rgb(98.406982%, 83.023071%, 77.697754%)" fill-opacity="1" d="M 3670.679688 2213.140625 L 3670.671875 2137.089844 L 3717.699219 2137.089844 C 3718.210938 2137.089844 3718.710938 2137.070312 3719.210938 2137.03125 L 3719.210938 2213.140625 L 3670.679688 2213.140625 "/>
<path fill-rule="nonzero" fill="rgb(6.459045%, 5.915833%, 5.220032%)" fill-opacity="1" d="M 3649 1633.488281 L 3649.03125 2250.078125 L 3566.261719 2250.078125 L 3566.21875 1633.488281 L 3649 1633.488281 "/>
<path fill-rule="nonzero" fill="rgb(30.828857%, 63.417053%, 87.1521%)" fill-opacity="1" d="M 3717.660156 1520.488281 C 3727.921875 1520.488281 3736.230469 1528.808594 3736.230469 1539.058594 L 3736.269531 2118.511719 C 3736.269531 2128.769531 3727.960938 2137.089844 3717.699219 2137.089844 L 3404.28125 2137.109375 C 3394.019531 2137.109375 3385.699219 2128.789062 3385.699219 2118.539062 L 3385.671875 1539.089844 C 3385.671875 1528.828125 3393.980469 1520.519531 3404.238281 1520.511719 L 3717.660156 1520.488281 "/>
<path fill-rule="nonzero" fill="rgb(85.723877%, 91.459656%, 97.221375%)" fill-opacity="1" d="M 3472.46875 1781.621094 L 3426.261719 1781.621094 L 3426.238281 1553.921875 L 3472.460938 1553.910156 L 3472.46875 1781.621094 "/>
<path fill-rule="nonzero" fill="rgb(85.723877%, 91.459656%, 97.221375%)" fill-opacity="1" d="M 3641.121094 1701.238281 L 3641.109375 1562.070312 L 3692.058594 1562.070312 L 3692.058594 1701.238281 L 3641.121094 1701.238281 "/>
<path fill-rule="nonzero" fill="rgb(27.084351%, 50.076294%, 76.573181%)" fill-opacity="1" d="M 3605.25 1562.078125 L 3605.25 1667.761719 L 3575.71875 1667.761719 L 3575.71875 1562.078125 L 3605.25 1562.078125 "/>
<path fill-rule="nonzero" fill="rgb(27.084351%, 50.076294%, 76.573181%)" fill-opacity="1" d="M 3605.25 1701.238281 L 3605.261719 1806.929688 L 3575.738281 1806.929688 L 3575.730469 1701.25 L 3605.25 1701.238281 "/>
<path fill-rule="nonzero" fill="rgb(27.084351%, 50.076294%, 76.573181%)" fill-opacity="1" d="M 3605.261719 1843.859375 L 3605.269531 1949.539062 L 3575.738281 1949.539062 L 3575.738281 1843.859375 L 3605.261719 1843.859375 "/>
<path fill-rule="nonzero" fill="rgb(27.084351%, 50.076294%, 76.573181%)" fill-opacity="1" d="M 3605.269531 1985.609375 L 3605.28125 2091.300781 L 3575.75 2091.300781 L 3575.75 1985.609375 L 3605.269531 1985.609375 "/>
<path fill-rule="nonzero" fill="rgb(27.084351%, 50.076294%, 76.573181%)" fill-opacity="1" d="M 3678.539062 1889.511719 L 3678.550781 2091.289062 L 3649.03125 2091.289062 L 3649.011719 1889.511719 L 3678.539062 1889.511719 "/>
<path fill-rule="nonzero" fill="rgb(98.173523%, 78.291321%, 28.022766%)" fill-opacity="1" d="M 3505.039062 2011.53125 C 3513.988281 2011.53125 3521.230469 2017.671875 3521.230469 2025.269531 L 3521.238281 2075.96875 C 3521.238281 2083.558594 3513.988281 2089.710938 3505.039062 2089.710938 L 3472.558594 2089.71875 C 3463.609375 2089.71875 3456.359375 2083.570312 3456.359375 2075.980469 L 3456.359375 2025.269531 C 3456.359375 2017.679688 3463.609375 2011.53125 3472.550781 2011.53125 L 3505.039062 2011.53125 "/>
<path fill-rule="nonzero" fill="rgb(98.173523%, 78.291321%, 28.022766%)" fill-opacity="1" d="M 3472.558594 2089.71875 L 3505.039062 2089.710938 C 3510 2089.710938 3514.390625 2087.78125 3517.359375 2084.800781 L 3460.230469 2084.808594 C 3463.210938 2087.789062 3467.601562 2089.71875 3472.558594 2089.71875 "/>
<path fill-rule="nonzero" fill="rgb(10.585022%, 9.887695%, 9.550476%)" fill-opacity="1" d="M 3460.230469 2084.808594 L 3517.359375 2084.800781 C 3517.75 2084.398438 3518.171875 2084.019531 3518.511719 2083.589844 L 3459.089844 2083.589844 C 3459.429688 2084.019531 3459.851562 2084.398438 3460.230469 2084.808594 "/>
<path fill-rule="nonzero" fill="rgb(98.173523%, 78.291321%, 28.022766%)" fill-opacity="1" d="M 3459.519531 2017.179688 L 3518.070312 2017.179688 C 3515.121094 2013.769531 3510.398438 2011.53125 3505.039062 2011.53125 L 3472.550781 2011.53125 C 3467.191406 2011.53125 3462.46875 2013.769531 3459.519531 2017.179688 "/>
<path fill-rule="nonzero" fill="rgb(10.585022%, 9.887695%, 9.550476%)" fill-opacity="1" d="M 3458.621094 2018.378906 L 3518.96875 2018.371094 C 3518.691406 2017.96875 3518.398438 2017.558594 3518.070312 2017.179688 L 3459.519531 2017.179688 C 3459.179688 2017.558594 3458.898438 2017.96875 3458.621094 2018.378906 "/>
<path fill-rule="nonzero" fill="rgb(10.585022%, 9.887695%, 9.550476%)" fill-opacity="1" d="M 3471.171875 2011.53125 L 3471.179688 2089.71875 L 3469.96875 2089.71875 L 3469.96875 2011.53125 L 3471.171875 2011.53125 "/>
<path fill-rule="nonzero" fill="rgb(10.585022%, 9.887695%, 9.550476%)" fill-opacity="1" d="M 3465.390625 2038.53125 L 3465.390625 2064 L 3464.191406 2064 L 3464.179688 2038.53125 L 3465.390625 2038.53125 "/>
<path fill-rule="nonzero" fill="rgb(10.585022%, 9.887695%, 9.550476%)" fill-opacity="1" d="M 3513.410156 2038.519531 L 3513.410156 2063.988281 L 3512.210938 2063.988281 L 3512.210938 2038.519531 L 3513.410156 2038.519531 "/>
<path fill-rule="nonzero" fill="rgb(10.585022%, 9.887695%, 9.550476%)" fill-opacity="1" d="M 3484.078125 2011.53125 L 3484.078125 2089.71875 L 3482.878906 2089.71875 L 3482.871094 2011.53125 L 3484.078125 2011.53125 "/>
<path fill-rule="nonzero" fill="rgb(10.585022%, 9.887695%, 9.550476%)" fill-opacity="1" d="M 3513.410156 2063.988281 L 3464.191406 2064 L 3464.191406 2062.789062 L 3513.410156 2062.78125 L 3513.410156 2063.988281 "/>
<path fill-rule="nonzero" fill="rgb(10.585022%, 9.887695%, 9.550476%)" fill-opacity="1" d="M 3513.410156 2039.71875 L 3464.179688 2039.730469 L 3464.179688 2038.53125 L 3513.410156 2038.519531 L 3513.410156 2039.71875 "/>
<path fill-rule="nonzero" fill="rgb(10.585022%, 9.887695%, 9.550476%)" fill-opacity="1" d="M 3494.621094 2011.53125 L 3494.621094 2089.710938 L 3493.421875 2089.710938 L 3493.410156 2011.53125 L 3494.621094 2011.53125 "/>
<path fill-rule="nonzero" fill="rgb(10.585022%, 9.887695%, 9.550476%)" fill-opacity="1" d="M 3506.53125 2011.53125 L 3506.53125 2089.710938 L 3505.328125 2089.710938 L 3505.328125 2011.53125 L 3506.53125 2011.53125 "/>
<path fill-rule="nonzero" fill="rgb(98.173523%, 78.291321%, 28.022766%)" fill-opacity="1" d="M 3512.210938 2039.71875 L 3512.210938 2062.78125 L 3465.390625 2062.789062 L 3465.390625 2039.730469 L 3512.210938 2039.71875 "/>
<path fill-rule="nonzero" fill="rgb(98.835754%, 99.624634%, 99.926758%)" fill-opacity="1" d="M 3232.890625 2375.289062 L 1785.140625 2375.289062 L 1785.140625 467.269531 L 3232.890625 467.269531 L 3232.890625 2375.289062 "/>
<path fill-rule="nonzero" fill="rgb(68.383789%, 67.498779%, 57.672119%)" fill-opacity="1" d="M 3147.78125 996.960938 L 1882.609375 996.960938 L 1882.609375 930.070312 L 3147.78125 930.070312 L 3147.78125 996.960938 "/>
<path fill-rule="nonzero" fill="rgb(68.383789%, 67.498779%, 57.672119%)" fill-opacity="1" d="M 2548.570312 622.429688 L 1882.609375 622.429688 L 1882.609375 596.359375 L 2548.570312 596.359375 L 2548.570312 622.429688 "/>
<path fill-rule="nonzero" fill="rgb(77.22168%, 76.298523%, 72.0047%)" fill-opacity="1" d="M 2287.550781 670.539062 L 1882.609375 670.539062 L 1882.609375 644.46875 L 2287.550781 644.46875 L 2287.550781 670.539062 "/>
<path fill-rule="nonzero" fill="rgb(77.22168%, 76.298523%, 72.0047%)" fill-opacity="1" d="M 2287.550781 714.761719 L 1882.609375 714.761719 L 1882.609375 688.691406 L 2287.550781 688.691406 L 2287.550781 714.761719 "/>
<path fill-rule="nonzero" fill="rgb(77.22168%, 76.298523%, 72.0047%)" fill-opacity="1" d="M 3147.78125 1491.300781 L 1882.609375 1491.300781 L 1882.609375 1465.21875 L 3147.78125 1465.21875 L 3147.78125 1491.300781 "/>
<path fill-rule="nonzero" fill="rgb(77.22168%, 76.298523%, 72.0047%)" fill-opacity="1" d="M 3147.78125 1539.410156 L 1882.609375 1539.410156 L 1882.609375 1513.328125 L 3147.78125 1513.328125 L 3147.78125 1539.410156 "/>
<path fill-rule="nonzero" fill="rgb(77.22168%, 76.298523%, 72.0047%)" fill-opacity="1" d="M 3147.78125 1781.25 L 2831.878906 1781.25 L 2831.878906 1755.171875 L 3147.78125 1755.171875 L 3147.78125 1781.25 "/>
<path fill-rule="nonzero" fill="rgb(77.22168%, 76.298523%, 72.0047%)" fill-opacity="1" d="M 3147.78125 1829.359375 L 2831.878906 1829.359375 L 2831.878906 1803.28125 L 3147.78125 1803.28125 L 3147.78125 1829.359375 "/>
<path fill-rule="nonzero" fill="rgb(77.22168%, 76.298523%, 72.0047%)" fill-opacity="1" d="M 2198.5 1781.25 L 1882.609375 1781.25 L 1882.609375 1755.171875 L 2198.5 1755.171875 L 2198.5 1781.25 "/>
<path fill-rule="nonzero" fill="rgb(77.22168%, 76.298523%, 72.0047%)" fill-opacity="1" d="M 2198.5 1829.359375 L 1882.609375 1829.359375 L 1882.609375 1803.28125 L 2198.5 1803.28125 L 2198.5 1829.359375 "/>
<path fill-rule="nonzero" fill="rgb(77.22168%, 76.298523%, 72.0047%)" fill-opacity="1" d="M 3147.78125 1583.628906 L 1882.609375 1583.628906 L 1882.609375 1557.558594 L 3147.78125 1557.558594 L 3147.78125 1583.628906 "/>
<path fill-rule="nonzero" fill="rgb(77.22168%, 76.298523%, 72.0047%)" fill-opacity="1" d="M 3147.78125 1378.738281 L 1882.609375 1378.738281 L 1882.609375 996.960938 L 3147.78125 996.960938 L 3147.78125 1378.738281 "/>
<path fill-rule="nonzero" fill="rgb(68.383789%, 67.498779%, 57.672119%)" fill-opacity="1" d="M 2344.730469 1074.691406 L 1939.789062 1074.691406 L 1939.789062 1048.609375 L 2344.730469 1048.609375 L 2344.730469 1074.691406 "/>
<path fill-rule="nonzero" fill="rgb(68.383789%, 67.498779%, 57.672119%)" fill-opacity="1" d="M 2344.730469 1165.128906 L 1939.789062 1165.128906 L 1939.789062 1139.050781 L 2344.730469 1139.050781 L 2344.730469 1165.128906 "/>
<path fill-rule="nonzero" fill="rgb(68.383789%, 67.498779%, 57.672119%)" fill-opacity="1" d="M 2252.789062 1118.910156 L 1939.789062 1118.910156 L 1939.789062 1092.828125 L 2252.789062 1092.828125 L 2252.789062 1118.910156 "/>
<path fill-rule="nonzero" fill="rgb(90.971375%, 44.90509%, 18.551636%)" fill-opacity="1" d="M 3152.789062 2095.871094 C 3152.789062 2150.941406 3108.140625 2195.589844 3053.070312 2195.589844 L 2610.691406 2195.589844 C 2555.621094 2195.589844 2510.96875 2150.941406 2510.96875 2095.871094 C 2510.96875 2040.789062 2555.621094 1996.140625 2610.691406 1996.140625 L 3053.070312 1996.140625 C 3108.140625 1996.140625 3152.789062 2040.789062 3152.789062 2095.871094 "/>
<path fill-rule="nonzero" fill="rgb(100%, 100%, 100%)" fill-opacity="1" d="M 2722.800781 2095.539062 L 2729.371094 2095.539062 C 2740.621094 2095.539062 2748.128906 2094.828125 2751.890625 2093.421875 C 2755.660156 2092.011719 2758.628906 2089.75 2760.789062 2086.640625 C 2762.960938 2083.539062 2764.039062 2080.121094 2764.039062 2076.398438 C 2764.039062 2073.910156 2763.488281 2071.859375 2762.378906 2070.261719 C 2761.269531 2068.660156 2759.71875 2067.5 2757.71875 2066.761719 C 2755.71875 2066.039062 2751.261719 2065.671875 2744.339844 2065.671875 L 2729.089844 2065.671875 Z M 2711.011719 2152.171875 L 2689.679688 2152.171875 L 2711.359375 2048.648438 L 2753.449219 2048.648438 C 2760.929688 2048.648438 2766.851562 2049.539062 2771.210938 2051.300781 C 2775.558594 2053.070312 2779.011719 2055.980469 2781.550781 2060.058594 C 2784.089844 2064.128906 2785.371094 2068.988281 2785.371094 2074.640625 C 2785.371094 2079.859375 2784.351562 2084.949219 2782.328125 2089.890625 C 2780.300781 2094.828125 2777.820312 2098.789062 2774.878906 2101.75 C 2771.941406 2104.71875 2768.769531 2106.96875 2765.378906 2108.5 C 2761.988281 2110.03125 2757.429688 2111.191406 2751.679688 2111.988281 C 2748.339844 2112.460938 2742.078125 2112.699219 2732.898438 2112.699219 L 2719.269531 2112.699219 L 2711.011719 2152.171875 "/>
<path fill-rule="nonzero" fill="rgb(100%, 100%, 100%)" fill-opacity="1" d="M 2840.648438 2112.058594 L 2834.648438 2070.398438 L 2809.660156 2112.058594 Z M 2843.269531 2129.289062 L 2802.238281 2129.289062 L 2789.808594 2152.171875 L 2767.921875 2152.171875 L 2826.460938 2048.648438 L 2850.121094 2048.648438 L 2866.921875 2152.171875 L 2846.730469 2152.171875 L 2843.269531 2129.289062 "/>
<path fill-rule="nonzero" fill="rgb(100%, 100%, 100%)" fill-opacity="1" d="M 2921.21875 2152.171875 L 2899.96875 2152.171875 L 2908.371094 2111.851562 L 2879.851562 2048.648438 L 2902.511719 2048.648438 L 2915.359375 2077.890625 C 2918.421875 2084.898438 2920.46875 2089.960938 2921.511719 2093.070312 C 2923.25 2090.011719 2925.269531 2086.761719 2927.578125 2083.320312 L 2937.390625 2069.628906 L 2952.011719 2048.648438 L 2976.71875 2048.648438 L 2929.269531 2113.828125 L 2921.21875 2152.171875 "/>
<path fill-rule="nonzero" fill="rgb(13.729858%, 12.159729%, 12.548828%)" fill-opacity="1" d="M 2632.28125 688.691406 L 2632.28125 597.078125 L 2644.398438 597.078125 L 2644.398438 688.691406 L 2632.28125 688.691406 "/>
<path fill-rule="nonzero" fill="rgb(13.729858%, 12.159729%, 12.548828%)" fill-opacity="1" d="M 2665.640625 688.691406 L 2665.640625 597.078125 L 2678.078125 597.078125 L 2726.199219 669 L 2726.199219 597.078125 L 2737.820312 597.078125 L 2737.820312 688.691406 L 2725.390625 688.691406 L 2677.269531 616.699219 L 2677.269531 688.691406 L 2665.640625 688.691406 "/>
<path fill-rule="nonzero" fill="rgb(13.729858%, 12.159729%, 12.548828%)" fill-opacity="1" d="M 2784.378906 688.691406 L 2748.878906 597.078125 L 2762 597.078125 L 2785.808594 663.628906 C 2787.730469 668.960938 2789.328125 673.960938 2790.621094 678.628906 C 2792.039062 673.628906 2793.691406 668.628906 2795.558594 663.628906 L 2820.308594 597.078125 L 2832.679688 597.078125 L 2796.808594 688.691406 L 2784.378906 688.691406 "/>
<path fill-rule="nonzero" fill="rgb(13.729858%, 12.159729%, 12.548828%)" fill-opacity="1" d="M 2852.359375 644.261719 C 2852.359375 655.300781 2855.328125 663.988281 2861.269531 670.351562 C 2867.210938 676.699219 2874.648438 679.878906 2883.609375 679.878906 C 2892.730469 679.878906 2900.238281 676.671875 2906.140625 670.25 C 2912.03125 663.839844 2914.980469 654.730469 2914.980469 642.949219 C 2914.980469 635.488281 2913.71875 628.980469 2911.199219 623.421875 C 2908.679688 617.859375 2904.988281 613.539062 2900.140625 610.480469 C 2895.28125 607.421875 2889.839844 605.890625 2883.800781 605.890625 C 2875.210938 605.890625 2867.828125 608.839844 2861.640625 614.730469 C 2855.460938 620.628906 2852.359375 630.46875 2852.359375 644.261719 Z M 2839.871094 644.070312 C 2839.871094 628.859375 2843.949219 616.960938 2852.109375 608.359375 C 2860.28125 599.761719 2870.820312 595.449219 2883.730469 595.449219 C 2892.191406 595.449219 2899.808594 597.46875 2906.601562 601.511719 C 2913.390625 605.558594 2918.570312 611.191406 2922.128906 618.421875 C 2925.699219 625.648438 2927.480469 633.839844 2927.480469 643.011719 C 2927.480469 652.300781 2925.601562 660.609375 2921.851562 667.941406 C 2918.101562 675.269531 2912.789062 680.820312 2905.921875 684.589844 C 2899.039062 688.371094 2891.628906 690.25 2883.671875 690.25 C 2875.050781 690.25 2867.339844 688.171875 2860.550781 684 C 2853.761719 679.839844 2848.621094 674.148438 2845.121094 666.941406 C 2841.621094 659.730469 2839.871094 652.109375 2839.871094 644.070312 "/>
<path fill-rule="nonzero" fill="rgb(13.729858%, 12.159729%, 12.548828%)" fill-opacity="1" d="M 2945.160156 688.691406 L 2945.160156 597.078125 L 2957.28125 597.078125 L 2957.28125 688.691406 L 2945.160156 688.691406 "/>
<path fill-rule="nonzero" fill="rgb(13.729858%, 12.159729%, 12.548828%)" fill-opacity="1" d="M 3044.019531 656.570312 L 3056.140625 659.628906 C 3053.601562 669.589844 3049.03125 677.179688 3042.429688 682.410156 C 3035.820312 687.640625 3027.75 690.25 3018.210938 690.25 C 3008.339844 690.25 3000.308594 688.238281 2994.121094 684.21875 C 2987.929688 680.199219 2983.230469 674.378906 2980 666.75 C 2976.769531 659.128906 2975.160156 650.941406 2975.160156 642.199219 C 2975.160156 632.660156 2976.980469 624.328125 2980.621094 617.230469 C 2984.269531 610.128906 2989.460938 604.730469 2996.179688 601.050781 C 3002.910156 597.359375 3010.320312 595.519531 3018.398438 595.519531 C 3027.558594 595.519531 3035.269531 597.851562 3041.519531 602.511719 C 3047.769531 607.179688 3052.121094 613.738281 3054.578125 622.199219 L 3042.640625 625.011719 C 3040.519531 618.351562 3037.441406 613.488281 3033.398438 610.449219 C 3029.359375 607.410156 3024.269531 605.890625 3018.148438 605.890625 C 3011.109375 605.890625 3005.21875 607.578125 3000.5 610.949219 C 2995.769531 614.328125 2992.441406 618.859375 2990.53125 624.539062 C 2988.609375 630.230469 2987.648438 636.089844 2987.648438 642.128906 C 2987.648438 649.921875 2988.789062 656.71875 2991.058594 662.539062 C 2993.328125 668.351562 2996.859375 672.691406 3001.648438 675.558594 C 3006.441406 678.441406 3011.628906 679.878906 3017.210938 679.878906 C 3024 679.878906 3029.75 677.921875 3034.460938 674 C 3039.171875 670.089844 3042.351562 664.28125 3044.019531 656.570312 "/>
<path fill-rule="nonzero" fill="rgb(13.729858%, 12.159729%, 12.548828%)" fill-opacity="1" d="M 3071.328125 688.691406 L 3071.328125 597.078125 L 3137.570312 597.078125 L 3137.570312 607.890625 L 3083.449219 607.890625 L 3083.449219 635.949219 L 3134.128906 635.949219 L 3134.128906 646.691406 L 3083.449219 646.691406 L 3083.449219 677.878906 L 3139.691406 677.878906 L 3139.691406 688.691406 L 3071.328125 688.691406 "/>
</svg>
