<?xml version="1.0" encoding="utf-8"?>
<!-- Generator: Adobe Illustrator 27.5.0, SVG Export Plug-In . SVG Version: 6.00 Build 0)  -->
<svg version="1.1" id="Ñëîé_1" xmlns="http://www.w3.org/2000/svg" xmlns:xlink="http://www.w3.org/1999/xlink" x="0px" y="0px"
	 viewBox="0 0 3400 2000" style="enable-background:new 0 0 3400 2000;" xml:space="preserve">
<rect id="_x31_4" style="fill:#FFFFFF;" width="3400" height="2000"/>
<g>
	<path id="_x31_3" style="fill:#A2C3F2;" d="M444.432,1878.749c0,0-417.528-369.904-132.504-654.2
		C585.996,951.18,480.987,800.323,435.372,578.204C369.686,258.352,543.164,13.339,921.398,258.352
		c336.328,217.867,418.26,218.667,652.176,175.89c233.916-42.777,343.582-338.413,646.641-313.128
		c346.843,28.938,208.695,568.08,591.173,648.559c473.391,99.608,468.861,529.029,159.92,1105.649L444.432,1878.749z"/>
	<g id="_x31_2">
		<path style="fill:#60BF60;" d="M382.071,1878.987c0,0-188.77-279.833-126.735-327.122
			c62.035-47.289,258.819,206.206,258.819,206.206s-115.836-255.895-91.577-401.692c24.259-145.797,211.747,195.908,256.908,363.553
			c0,0-11.393-236.186,96.451-332.31c107.844-96.124,68.285,386.253,68.285,386.253s67.723-277.679,141.299-291.021
			c73.577-13.342-22.061,393.954-22.061,393.954L382.071,1878.987z"/>
		<path style="fill:#339E33;" d="M483.984,1880.417c-0.357,0-0.709-0.169-0.929-0.486l-187.77-269.883
			c-0.356-0.512-0.23-1.217,0.282-1.573c0.512-0.358,1.217-0.232,1.574,0.282l187.77,269.883c0.357,0.512,0.23,1.217-0.282,1.574
			C484.432,1880.351,484.207,1880.417,483.984,1880.417z"/>
		<path style="fill:#339E33;" d="M642.368,1879.143c-0.462,0-0.896-0.285-1.063-0.745l-180.72-496.324
			c-0.214-0.586,0.089-1.235,0.676-1.449c0.586-0.211,1.236,0.088,1.449,0.676l180.72,496.325c0.214,0.587-0.089,1.235-0.676,1.449
			C642.627,1879.12,642.496,1879.143,642.368,1879.143z"/>
		<path style="fill:#339E33;" d="M731.128,1878.81c-0.027,0-0.054-0.001-0.081-0.003c-0.623-0.043-1.093-0.585-1.049-1.207
			c12.714-180.366,64.711-429.464,65.234-431.958c0.128-0.611,0.73-0.995,1.339-0.875c0.611,0.128,1.003,0.728,0.874,1.34
			c-0.523,2.493-52.488,251.442-65.191,431.652C732.213,1878.355,731.716,1878.81,731.128,1878.81z"/>
		<path style="fill:#5AA85A;" d="M880.1,1878.81c-0.078,0-0.156-0.008-0.235-0.025c-0.611-0.128-1.002-0.728-0.873-1.339
			c17.026-80.841,91.054-339.732,91.8-342.338c0.172-0.601,0.795-0.948,1.398-0.776c0.601,0.172,0.948,0.798,0.776,1.399
			c-0.745,2.605-74.751,261.418-91.761,342.181C881.094,1878.445,880.623,1878.81,880.1,1878.81z"/>
	</g>
	<g id="_x31_1">
		<path style="fill:#60BF60;" d="M3018.714,1878.987c0,0,188.77-279.833,126.735-327.122
			c-62.035-47.289-258.819,206.206-258.819,206.206s115.836-255.895,91.577-401.692
			c-24.259-145.797-211.748,195.908-256.908,363.553c0,0,11.393-236.186-96.451-332.31
			c-107.844-96.124-68.285,386.253-68.285,386.253s-67.722-277.679-141.299-291.021c-73.577-13.342,22.061,393.954,22.061,393.954
			L3018.714,1878.987z"/>
		<path style="fill:#339E33;" d="M2916.802,1880.417c-0.223,0-0.448-0.066-0.645-0.203c-0.513-0.357-0.64-1.061-0.282-1.574
			l187.769-269.883c0.356-0.514,1.063-0.64,1.574-0.282c0.513,0.356,0.64,1.061,0.282,1.573l-187.77,269.883
			C2917.511,1880.248,2917.159,1880.417,2916.802,1880.417z"/>
		<path style="fill:#339E33;" d="M2758.417,1879.143c-0.128,0-0.259-0.023-0.387-0.068c-0.586-0.214-0.889-0.863-0.676-1.45
			l180.72-496.324c0.214-0.586,0.862-0.89,1.45-0.676c0.586,0.214,0.889,0.863,0.676,1.449l-180.72,496.324
			C2759.313,1878.858,2758.879,1879.143,2758.417,1879.143z"/>
		<path style="fill:#339E33;" d="M2669.658,1878.81c-0.589,0-1.085-0.456-1.127-1.052c-12.704-180.21-64.668-429.159-65.192-431.652
			c-0.128-0.612,0.263-1.211,0.875-1.34c0.614-0.124,1.21,0.263,1.34,0.875c0.523,2.495,52.519,251.593,65.234,431.958
			c0.044,0.622-0.426,1.164-1.049,1.207C2669.711,1878.81,2669.685,1878.81,2669.658,1878.81z"/>
		<path style="fill:#5AA85A;" d="M2520.685,1878.81c-0.524,0-0.994-0.366-1.105-0.898c-17.01-80.763-91.015-339.577-91.761-342.181
			c-0.172-0.601,0.176-1.227,0.776-1.399c0.6-0.172,1.227,0.175,1.399,0.776c0.746,2.606,74.773,261.497,91.799,342.338
			c0.129,0.611-0.262,1.211-0.873,1.339C2520.84,1878.802,2520.762,1878.81,2520.685,1878.81z"/>
	</g>
	<g id="_x31_0">
		<path style="fill:#333647;" d="M831.244,1876.787V694.464c0-40.637,32.943-73.58,73.58-73.58h1590.353
			c40.637,0,73.58,32.943,73.58,73.58v1182.323H831.244z"/>
		<rect x="923.044" y="712.683" style="fill:#BBD8FC;" width="1553.912" height="1072.304"/>
		<path style="fill:#333647;" d="M2819.01,1876.787H580.99c-25.35,0-45.9-20.55-45.9-45.9v0c0-25.35,20.55-45.9,45.9-45.9H2819.01
			c25.35,0,45.9,20.55,45.9,45.9v0C2864.909,1856.237,2844.359,1876.787,2819.01,1876.787z"/>
	</g>
	<g id="_x39_">
		<rect x="1155.344" y="359.421" style="fill:#99A7D8;" width="973.678" height="1328.272"/>
		<rect x="1116.591" y="398.175" style="fill:#F1F3F2;" width="973.678" height="1328.272"/>
		<path style="fill:#3E8EDD;" d="M1681.341,1651.863c-53.865,0-97.687-43.822-97.687-97.687s43.822-97.687,97.687-97.687
			s97.687,43.822,97.687,97.687S1735.205,1651.863,1681.341,1651.863z M1681.341,1465.452c-48.923,0-88.725,39.802-88.725,88.725
			c0,48.922,39.802,88.724,88.725,88.724c48.923,0,88.724-39.802,88.724-88.724
			C1770.065,1505.254,1730.264,1465.452,1681.341,1465.452z"/>
		<rect x="1211.392" y="787.136" style="fill:#3E8EDD;" width="785.184" height="585.958"/>
		<path style="fill:#305777;" d="M1996.576,873.186h-785.185c-2.218,0-4.016-1.798-4.016-4.016c0-2.218,1.798-4.016,4.016-4.016
			h785.185c2.218,0,4.017,1.798,4.017,4.016C2000.593,871.388,1998.794,873.186,1996.576,873.186z"/>
		<path style="fill:#305777;" d="M1996.576,939.741h-785.185c-0.951,0-1.721-0.771-1.721-1.721c0-0.951,0.771-1.721,1.721-1.721
			h785.185c0.95,0,1.722,0.77,1.722,1.721C1998.298,938.971,1997.526,939.741,1996.576,939.741z"/>
		<path style="fill:#305777;" d="M1996.576,1012.986h-785.185c-0.951,0-1.721-0.772-1.721-1.722c0-0.95,0.771-1.722,1.721-1.722
			h785.185c0.95,0,1.722,0.771,1.722,1.722C1998.298,1012.215,1997.526,1012.986,1996.576,1012.986z"/>
		<path style="fill:#305777;" d="M1996.576,1305.966h-785.185c-0.951,0-1.721-0.771-1.721-1.722s0.771-1.722,1.721-1.722h785.185
			c0.95,0,1.722,0.771,1.722,1.722S1997.526,1305.966,1996.576,1305.966z"/>
		<path style="fill:#305777;" d="M1996.576,1232.721h-785.185c-0.951,0-1.721-0.771-1.721-1.722s0.771-1.722,1.721-1.722h785.185
			c0.95,0,1.722,0.771,1.722,1.722S1997.526,1232.721,1996.576,1232.721z"/>
		<path style="fill:#305777;" d="M1996.576,1159.476h-785.185c-0.951,0-1.721-0.771-1.721-1.722s0.771-1.722,1.721-1.722h785.185
			c0.95,0,1.722,0.771,1.722,1.722S1997.526,1159.476,1996.576,1159.476z"/>
		<path style="fill:#305777;" d="M1996.576,1086.231h-785.185c-0.951,0-1.721-0.771-1.721-1.722s0.771-1.722,1.721-1.722h785.185
			c0.95,0,1.722,0.771,1.722,1.722S1997.526,1086.231,1996.576,1086.231z"/>
		<path style="fill:#305777;" d="M1822.099,1377.11c-2.218,0-4.017-1.799-4.017-4.017V787.136c0-2.218,1.799-4.016,4.017-4.016
			s4.017,1.798,4.017,4.016v585.958C1826.115,1375.312,1824.316,1377.11,1822.099,1377.11z"/>
		<path style="fill:#FF593A;" d="M1327.005,579.017h-21.569c-1.584,0-2.869,1.284-2.869,2.869V688.71
			c0,1.585,1.284,2.869,2.869,2.869h21.569c1.585,0,2.869-1.284,2.869-2.869V581.886
			C1329.873,580.301,1328.589,579.017,1327.005,579.017z"/>
		<path style="fill:#FF593A;" d="M1432.518,579.017h-20.039c-1.584,0-2.869,1.284-2.869,2.869v61.167l-38.406-62.666
			c-0.521-0.851-1.448-1.37-2.446-1.37h-20.986c-1.585,0-2.869,1.284-2.869,2.869V688.71c0,1.585,1.284,2.869,2.869,2.869h20.039
			c1.584,0,2.869-1.284,2.869-2.869v-59.566l37.756,61.074c0.523,0.846,1.446,1.36,2.44,1.36h21.642
			c1.584,0,2.869-1.284,2.869-2.869V581.886C1435.386,580.301,1434.102,579.017,1432.518,579.017z"/>
		<path style="fill:#FF593A;" d="M1543.861,579.017h-22.881c-1.237,0-2.335,0.793-2.724,1.968l-23.481,70.965l-24.275-70.993
			c-0.397-1.16-1.488-1.94-2.715-1.94h-23.39c-0.933,0-1.808,0.454-2.345,1.216c-0.537,0.763-0.67,1.739-0.356,2.618l38.183,106.825
			c0.408,1.141,1.489,1.903,2.701,1.903h23.026c1.211,0,2.292-0.761,2.701-1.902l38.256-106.825
			c0.315-0.879,0.182-1.856-0.355-2.619C1545.669,579.471,1544.794,579.017,1543.861,579.017z"/>
		<path style="fill:#FF593A;" d="M1602.155,577.195c-9.041,0-17.164,1.498-24.131,4.448c-5.341,2.229-10.307,5.683-14.761,10.266
			c-4.419,4.547-7.954,9.754-10.514,15.489c-3.401,7.715-5.126,17.323-5.126,28.555c0,17.693,5.003,31.836,14.87,42.036
			c9.892,10.226,23.334,15.411,39.954,15.411c16.427,0,29.773-5.211,39.667-15.489c9.864-10.247,14.865-24.536,14.865-42.468
			c0-18.079-5.04-32.455-14.98-42.728C1632.033,582.417,1618.627,577.195,1602.155,577.195z M1628.944,634.933
			c0,11.604-2.538,20.34-7.545,25.965c-4.99,5.604-11.213,8.329-19.026,8.329c-7.817,0-14.078-2.75-19.14-8.408
			c-5.075-5.67-7.649-14.281-7.649-25.595c0-11.506,2.501-20.143,7.433-25.67c4.916-5.508,11.247-8.186,19.356-8.186
			c8.107,0,14.402,2.641,19.245,8.075C1626.479,614.899,1628.944,623.475,1628.944,634.933z"/>
		<path style="fill:#FF593A;" d="M1691.855,579.017h-21.569c-1.584,0-2.869,1.284-2.869,2.869V688.71
			c0,1.585,1.284,2.869,2.869,2.869h21.569c1.585,0,2.869-1.284,2.869-2.869V581.886
			C1694.724,580.301,1693.44,579.017,1691.855,579.017z"/>
		<path style="fill:#FF593A;" d="M1802.535,653.331l-20.913-6.631c-0.764-0.241-1.594-0.154-2.29,0.244
			c-0.696,0.397-1.194,1.067-1.373,1.848c-1.652,7.189-4.341,12.467-7.993,15.688c-3.62,3.194-7.838,4.747-12.894,4.747
			c-6.952,0-12.434-2.481-16.757-7.585c-4.384-5.171-6.607-14.255-6.607-27c0-11.958,2.252-20.617,6.695-25.737
			c4.399-5.071,9.994-7.537,17.106-7.537c5.109,0,9.302,1.368,12.818,4.18c3.519,2.815,5.776,6.581,6.901,11.514
			c0.17,0.747,0.633,1.394,1.283,1.799c0.651,0.404,1.437,0.531,2.181,0.353l21.35-5.1c0.76-0.182,1.414-0.666,1.809-1.341
			c0.395-0.675,0.498-1.482,0.284-2.233c-2.562-9.016-6.507-16.075-11.718-20.974c-8.673-8.209-20.05-12.372-33.815-12.372
			c-15.72,0-28.61,5.271-38.313,15.667c-9.651,10.34-14.544,24.936-14.544,43.383c0,17.487,4.872,31.522,14.48,41.717
			c9.653,10.245,22.123,15.439,37.064,15.439c12.052,0,22.185-3.052,30.116-9.072c7.936-6.022,13.664-15.275,17.027-27.502
			C1804.842,655.34,1804.004,653.797,1802.535,653.331z"/>
		<path style="fill:#FF593A;" d="M1901.424,667.843h-56.81v-23.337h50.762c1.584,0,2.869-1.284,2.869-2.869v-17.999
			c0-1.585-1.284-2.869-2.869-2.869h-50.762v-17.944h54.77c1.584,0,2.869-1.284,2.869-2.869v-18.071
			c0-1.585-1.284-2.869-2.869-2.869h-79.207c-1.584,0-2.869,1.284-2.869,2.869V688.71c0,1.585,1.284,2.869,2.869,2.869h81.248
			c1.585,0,2.869-1.284,2.869-2.869v-17.999C1904.293,669.127,1903.009,667.843,1901.424,667.843z"/>
		<path style="fill:#3E8EDD;" d="M1681.341,1612.483c-32.151,0-58.307-26.156-58.307-58.307c0-32.151,26.156-58.308,58.307-58.308
			c32.151,0,58.308,26.156,58.308,58.308C1739.648,1586.327,1713.492,1612.483,1681.341,1612.483z M1681.341,1504.869
			c-27.188,0-49.307,22.119-49.307,49.308c0,27.188,22.119,49.307,49.307,49.307c27.188,0,49.308-22.119,49.308-49.307
			C1730.648,1526.988,1708.529,1504.869,1681.341,1504.869z"/>
		<path style="fill:#FF593A;" d="M1668.341,1567.752c-0.854,0-1.709-0.315-2.376-0.952c-1.375-1.312-1.427-3.491-0.115-4.866
			c0.236-0.248,11.844-12.572,22.784-30.479c-2.916-5.977-5.449-13.07-7.306-21.482c-6.264-28.378,0.771-57.239,11.272-66.391
			c4.313-3.761,8.13-3.149,10.021-2.449c5.57,2.061,9.378,9.821,11.316,23.067c3.519,24.044-6.231,48.577-17.35,67.617
			c7.607,13.654,17.248,19.816,23.489,22.529c9.925,4.312,20.595,4.081,28.548-0.617c4.385-2.591,7.554-7.466,9.557-13.333
			c-8.73-7.064-14.438-15.72-17.35-23.657c-3.477-9.478-3.196-18.213,0.73-22.798c2.323-2.713,5.696-3.785,9.488-3.028
			c7.883,1.577,13.636,9.736,15.783,22.387c1.296,7.635,1.107,16.391-0.771,24.386c6.507,4.428,14.612,7.882,24.411,9.457
			c15.761,2.531,24.502-2.712,29.342-9.098c-12.562-8.018-18.697-20.57-20.231-30.801c-1.382-9.219,0.764-17.304,5.601-21.102
			c3.386-2.659,7.794-3.082,12.415-1.192c12.129,4.962,18.776,26.816,13.678,44.969c-0.428,1.524-1.052,3.382-1.946,5.388
			c0.48,0.206,0.97,0.405,1.466,0.597c15.207,5.86,30.46-1.607,40.604-11.17c-8.754-8.455-10.325-18.653-10.476-24.029
			c-0.38-13.566,6.57-26.686,15.493-29.245c2.556-0.731,9.03-1.512,14.04,7.024c7.261,12.373,3.761,30.13-8.892,45.446
			c3.774,2.326,8.554,4.303,14.596,5.675c9.149,2.08,17.362,0.564,25.112-4.628c26.92-18.032,36.557-73.573,36.651-74.132
			c0.316-1.874,2.089-3.137,3.966-2.823c1.875,0.315,3.139,2.091,2.823,3.965c-0.403,2.4-10.218,59.013-39.601,78.705
			c-9.281,6.22-19.537,8.109-30.478,5.628c-7.453-1.693-13.271-4.245-17.813-7.252c-11.704,11.351-29.941,20.416-48.504,13.26
			c-0.813-0.313-1.609-0.645-2.385-0.991c-5.699,8.139-16.462,15.836-36.554,12.604c-10.021-1.61-18.475-5.009-25.436-9.41
			c-2.543,6.48-6.436,11.947-11.819,15.128c-9.844,5.819-22.851,6.194-34.794,1.004c-6.61-2.873-16.573-9.096-24.811-22.197
			c-10.409,16.272-20.761,27.25-21.69,28.224C1670.155,1567.395,1669.249,1567.752,1668.341,1567.752z M1748.737,1497.56
			c-1.05,0-1.588,0.44-1.946,0.86c-1.86,2.171-2.284,8.346,0.504,15.947c2.257,6.152,6.454,12.801,12.739,18.554
			c1.014-6.1,1.004-12.619,0.011-18.47c-1.596-9.397-5.56-15.83-10.345-16.787C1749.338,1497.592,1749.02,1497.56,1748.737,1497.56z
			 M1812.057,1490.663c-1.483,0-2.28,0.626-2.621,0.894c-2.806,2.202-4.028,8.097-3.043,14.666
			c1.282,8.551,6.397,19.035,16.854,25.838c0.595-1.398,1.052-2.756,1.402-4.005c4.448-15.836-1.592-33.435-9.657-36.733
			C1813.803,1490.835,1812.835,1490.663,1812.057,1490.663z M1699.67,1447.491c-0.716,0-1.57,0.429-2.547,1.28
			c-7.793,6.792-15.014,32.796-9.072,59.716c1.303,5.903,2.953,11.086,4.833,15.634c9.522-17.377,17.214-38.605,14.24-58.926
			c-2.218-15.151-6.13-17.324-6.892-17.606C1700.056,1447.524,1699.868,1447.491,1699.67,1447.491z M1879.453,1477.895
			c-0.502,0-0.893,0.112-1.137,0.182c-5.215,1.496-10.818,11.408-10.51,22.435c0.146,5.182,1.685,12.804,8.304,19.211
			c10.737-12.909,14.122-28.021,8.41-37.755C1882.51,1478.541,1880.659,1477.895,1879.453,1477.895z"/>
	</g>
	<g id="_x38_">
		<path style="fill:#FDFFFE;" d="M843.843,388.179c-3.19,0-6.315,0.273-9.363,0.775c0.291-2.339,0.458-4.717,0.458-7.135
			c0-31.614-25.628-57.242-57.242-57.242c-19.93,0-37.473,10.191-47.724,25.639c-4.193-27.482-27.93-48.536-56.584-48.536
			c-31.614,0-57.242,25.628-57.242,57.242c0,5.774,0.863,11.344,2.453,16.598c-0.814-0.034-1.631-0.062-2.453-0.062
			c-31.614,0-57.242,25.628-57.242,57.242c0,31.614,25.628,57.242,57.242,57.242c12.343,0,23.763-3.92,33.112-10.564
			c12.69,26.558,39.798,44.909,71.195,44.909c33.589,0,62.254-21.007,73.624-50.591c9.849,17.295,28.437,28.967,49.764,28.967
			c31.614,0,57.242-25.628,57.242-57.242S875.457,388.179,843.843,388.179z"/>
		<path style="fill:#A2C3F2;" d="M2802.709,474.257c3.028,0.114,5.984,0.484,8.86,1.068c-0.193-2.231-0.268-4.494-0.182-6.789
			c1.124-30.008,26.362-53.423,56.37-52.299c18.917,0.709,35.207,11.005,44.388,26.034c4.958-25.937,28.237-45.078,55.436-44.059
			c30.008,1.124,53.423,26.362,52.299,56.37c-0.205,5.48-1.223,10.737-2.919,15.668c0.774-0.004,1.55-0.001,2.331,0.028
			c30.008,1.124,53.423,26.362,52.299,56.37c-1.124,30.008-26.362,53.423-56.37,52.299c-11.716-0.439-22.417-4.565-31.054-11.205
			c-12.99,24.758-39.373,41.213-69.176,40.096c-31.882-1.194-58.345-22.154-68.085-50.64c-9.963,16.067-28.023,26.484-48.266,25.726
			c-30.008-1.124-53.423-26.362-52.299-56.37C2747.463,496.548,2772.701,473.133,2802.709,474.257z"/>
	</g>
	<g id="_x37_">
		<path style="fill:#F69D85;" d="M2613.567,807.81c2.077-0.298,4.628-1.532,6.643-2.417c11.944-5.25,17.99-16.683,12.741-28.626
			l-89.009-202.52c-3.899-8.872-12.821-14.462-22.506-14.101l-158.914,5.921c-13.042,0.485-23.212,11.448-22.727,24.486
			c0.485,13.038,11.448,23.213,24.486,22.727l142.868-5.323l82.549,187.82C2594.062,805.706,2603.331,809.279,2613.567,807.81z"/>
		<path style="fill:#3E8EDD;" d="M2299.344,520.186c0,0,9.53,92.59,55.938,110.271c46.408,17.682,139.197-7.815,139.197-7.815
			l65.763,146.509c0,0,46.02-6.372,68.381-25.421c-7.652-30.099-39.539-156.827-79.14-187.169
			c-29.685-22.743-90.646-22.35-142.477-28.912C2372.393,523.269,2299.344,520.186,2299.344,520.186z"/>
		<path style="fill:#404660;" d="M2651.774,772.379l3.293,11.484c0.286,0.999,0.714,1.927,1.27,2.76c0,0,0,0.001,0,0.001
			c0.587,0.884,1.304,1.657,2.134,2.303l15.313-8.674C2669.281,768.339,2654.95,771.511,2651.774,772.379z"/>
		<path style="fill:#404D7F;" d="M2590.662,809.354c0.715,1.076,1.608,1.991,2.623,2.715c2.521,1.802,5.798,2.428,8.914,1.376
			l71.21-24.177c3.546-1.2,5.541-4.161,5.96-7.351c0.134-0.971,0.116-1.967-0.053-2.944c-0.5-2.93-2.334-5.668-5.531-7.051
			l-12.878-5.568l-13.841-5.984c-31.232,16.222-65.757,18.135-65.757,18.135l4.529,15.806l3.471,12.103
			C2589.616,807.489,2590.075,808.474,2590.662,809.354z"/>
		<path style="fill:#404D7F;" d="M2654.799,763.713c0,0-19.559-8.573-25.105-10.324c-5.546-1.751-15.257,6.128-12.492,10.245
			c2.765,4.118,12.885,8.676,12.885,8.676L2654.799,763.713z"/>
		<path style="fill:#606A97;" d="M2673.616,789.881l-71.211,24.177c-4.527,1.528-9.578-0.26-12.283-4.348
			c-0.11-0.167-0.137-0.376-0.073-0.565c0.064-0.19,0.213-0.339,0.402-0.404l0,0l88.654-30.38c0.179-0.061,0.376-0.041,0.54,0.056
			c0.163,0.096,0.275,0.26,0.308,0.447c0.69,4.026-0.988,9.18-6.298,11.003C2673.642,789.872,2673.629,789.876,2673.616,789.881z"/>
		<path style="fill:#606A97;" d="M2660.893,766.239c0,0,17.774,3.502,19.047,12.51l-27.43,9.099
			C2652.509,787.848,2649.804,774.721,2660.893,766.239z"/>
		<path style="fill:#606A97;" d="M2585.837,794.31c0,0,15.643-5.713,24.044,7.773l-19.759,7.627
			C2590.122,809.71,2587.028,802.886,2585.837,794.31z"/>
		<path style="fill:#F69D85;" d="M2436.417,886.056c2.041,0.488,5.037,0.303,7.236,0.222c13.038-0.481,22.739-8.913,22.258-21.951
			l-8.153-221.067c-0.357-9.685-6.593-18.168-15.729-21.4l-149.921-53.031c-12.303-4.35-25.798,2.093-30.148,14.393
			c-4.351,12.3,2.093,25.798,14.393,30.148l134.784,47.677l7.561,205.022C2419.097,876.907,2426.36,883.651,2436.417,886.056z"/>
		<path style="fill:#3E8EDD;" d="M2228.156,516.098c0,0-27.239,66.067,10.554,107.343c33.537,36.628,159.96,47.177,159.96,47.177
			l3.071,160.332c0,0,44.509,10.541,72.313,1.069c3.974-30.801,23.474-164.006-0.371-207.827
			c-13.267-24.381-76.708-80.361-117.475-97.72L2228.156,516.098z"/>
		<path style="fill:#404D7F;" d="M2414.592,879.046c0.268,1.264,0.761,2.443,1.439,3.491c1.68,2.604,4.496,4.393,7.78,4.563
			l75.109,3.753c3.739,0.191,6.684-1.827,8.249-4.639c0.482-0.853,0.832-1.786,1.035-2.756c0.615-2.908-0.082-6.129-2.545-8.593
			l-9.922-9.92l-10.663-10.662c-35.011,3.577-67.814-7.362-67.814-7.362l-1.611,16.362l-1.231,12.53
			C2414.307,876.927,2414.37,878.012,2414.592,879.046z"/>
		<path style="fill:#404D7F;" d="M2491.031,860.24c0,0-15.025-15.175-19.536-18.846c-4.511-3.671-16.442,0.077-15.388,4.924
			c1.053,4.846,8.783,12.812,8.783,12.812L2491.031,860.24z"/>
		<path style="fill:#606A97;" d="M2413.969,878.931c-0.007,0.164-0.005,0.246-0.005,0.246c1.009,4.802,5.041,8.316,9.813,8.572
			l31.348,1.568l43.764,2.182l0.036,0.004c1.834,0.084,3.43-0.301,4.784-1.01c2.809-1.436,4.562-4.214,5.129-6.905
			c0.036-0.188-0.01-0.375-0.123-0.523c-0.096-0.137-0.243-0.224-0.405-0.248l-0.072-0.007l-1.852-0.086l-26.3-1.24l-20.79-0.978
			l-5.283-0.25l-19.337-0.911l-0.027-0.003l-11.075-0.522l-8.951-0.419c-0.045-0.004-0.091,0-0.138,0.014
			c-0.148,0.022-0.282,0.092-0.385,0.209C2414.026,878.709,2413.98,878.814,2413.969,878.931z"/>
		<path style="fill:#606A97;" d="M2495.736,864.944c0,0,15.234,9.803,13.1,18.646l-28.853-1.645
			C2479.982,881.945,2482.302,868.745,2495.736,864.944z"/>
		<path style="fill:#606A97;" d="M2415.648,863.282c0,0,16.442,1.848,19.025,16.062l-20.713-0.166
			C2413.959,879.179,2413.934,873.374,2415.648,863.282z"/>
		<path style="fill:#60BF60;" d="M2383.191,306.971c0,0-26.211,137.088-8.009,176.038c15.311,32.761,149.265,59.423,149.265,59.423
			s-4.333-17.892,4.818-43.58c0,0-33.489-27.107-73.31-48.917C2455.956,449.935,2447.266,321.932,2383.191,306.971z"/>
		
			<rect x="2324.901" y="266.46" transform="matrix(0.1099 -0.9939 0.9939 0.1099 1812.2782 2595.0876)" style="fill:#F69D85;" width="60.304" height="38.47"/>
		<path style="fill:#D1836B;" d="M2343.066,284.366c15.194,9.936,30.389,9.929,30.389,9.929l1.284-11.61L2343.066,284.366z"/>
		<path style="fill:#F69D85;" d="M2327.386,525.326l2.32,0.257c35.317,3.905,67.112-21.56,71.017-56.877l0.213-56.152
			c3.905-35.317-10.947-108.874-46.264-112.779l-2.32-0.257c-35.317-3.905-67.113,21.56-71.017,56.876l-10.826,97.914
			C2266.605,489.626,2292.07,521.421,2327.386,525.326z"/>
		<path style="fill:#60BF60;" d="M2383.191,306.971c0,0-30.354,22.643-58.3-8.653c0,0-37.644,6.517-60.875,55.939
			c-42.412,90.227-41.903,161.559-41.903,161.559s25.433,13.649,88.316,7.634c50.743-4.854,96.577,4.2,96.577,4.2
			s7.337-53.37,8.506-110.992C2416.584,363.765,2401.63,334.311,2383.191,306.971z"/>
		<path style="fill:#F1F3F2;" d="M2334.995,292.093c0,0,16.844,14.221,26.596,15.299c8.798,0.973,11.256-7.598,11.256-7.598
			l10.345,7.177l-10.85,22.711l-10.128-15.081l-9.633,14.287l-27.689-30.57L2334.995,292.093z"/>
		<path style="fill:#F69D85;" d="M2310.261,231.023c-0.917,5.863,3.093,11.359,8.956,12.276c5.863,0.917,11.359-3.093,12.277-8.956
			c0.917-5.863-3.093-11.359-8.956-12.276C2316.674,221.15,2311.178,225.159,2310.261,231.023z"/>
		<path style="fill:#AF5945;" d="M2319.469,239.514c0.034,0.016,0.07,0.029,0.107,0.038c0.337,0.086,0.679-0.118,0.765-0.455
			c1.016-3.992-1.467-5.425-3.111-6.374c-0.736-0.424-1.431-0.825-1.549-1.273c-0.065-0.248,0.028-0.589,0.277-1.012
			c1.959-3.328,6.37-2.467,6.557-2.429c0.34,0.07,0.673-0.149,0.743-0.489c0.07-0.34-0.149-0.673-0.487-0.743
			c-0.223-0.047-5.477-1.089-7.898,3.023c-0.432,0.734-0.566,1.378-0.409,1.972c0.251,0.955,1.167,1.483,2.136,2.043
			c1.623,0.936,3.301,1.904,2.52,4.973C2319.046,239.086,2319.198,239.389,2319.469,239.514z"/>
		<path style="fill:#F69D85;" d="M2397.58,246.057c-0.917,5.863,3.093,11.359,8.956,12.276s11.36-3.093,12.276-8.956
			c0.917-5.863-3.093-11.359-8.956-12.276C2403.993,236.184,2398.497,240.193,2397.58,246.057z"/>
		<path style="fill:#AF5945;" d="M2408.116,254.778c0.066,0.03,0.138,0.049,0.214,0.055c0.347,0.027,0.649-0.232,0.676-0.579
			c0.244-3.157,2.145-3.535,3.982-3.902c1.098-0.219,2.134-0.425,2.679-1.249c0.338-0.511,0.418-1.165,0.244-1.999
			c-0.973-4.671-6.284-5.369-6.511-5.396c-0.344-0.042-0.657,0.203-0.7,0.548c-0.042,0.344,0.203,0.659,0.547,0.701
			c0.189,0.024,4.643,0.622,5.431,4.404c0.1,0.481,0.079,0.833-0.062,1.048c-0.256,0.386-1.043,0.543-1.876,0.709
			c-1.861,0.371-4.672,0.931-4.99,5.039C2407.729,254.427,2407.883,254.671,2408.116,254.778z"/>
		<path style="fill:#F69D85;" d="M2356.947,286.252L2356.947,286.252c22.072,3.452,42.763-11.643,46.215-33.715l3.244-20.745
			c3.452-22.072-11.643-42.763-33.715-46.215l0,0c-22.072-3.452-42.763,11.643-46.214,33.715l-3.244,20.745
			C2319.78,262.109,2334.875,282.801,2356.947,286.252z"/>
		<path style="fill:#D1836B;" d="M2348.953,254.772c-0.301,2.405,0.896,5.899,4.236,8.812c4.533,3.953,14.396,5.685,19.246,3.802
			c2.605-1.012,4.528-3.042,5.335-4.979c0.689-1.669,0.551-3.271-0.689-4.096c-2.688-1.785-10.97-0.848-16.058-3.379
			c-5.477-2.726-9.477-4.194-11.216-2.243C2349.353,253.197,2349.055,253.915,2348.953,254.772z"/>
		<path style="fill:#FFFFFF;" d="M2348.953,254.772c11.075,7.037,27.041,7.592,28.818,7.635c0.689-1.669,0.551-3.271-0.689-4.096
			c-2.688-1.785-10.97-0.848-16.058-3.379c-5.477-2.726-9.477-4.194-11.216-2.243
			C2349.353,253.197,2349.055,253.915,2348.953,254.772z"/>
		<path style="fill:#AF5945;" d="M2352.775,264.057c-3.734-3.257-4.746-6.971-4.448-9.362c0.118-0.98,0.468-1.819,1.011-2.425
			c1.983-2.224,6.051-0.846,11.966,2.098c2.621,1.31,6.204,1.659,9.363,1.971c2.889,0.286,5.384,0.533,6.763,1.447
			c1.416,0.942,1.77,2.805,0.921,4.862c-0.955,2.291-3.134,4.331-5.688,5.323c-4.093,1.589-11.047,0.758-16.097-1.556
			C2355.105,265.747,2353.802,264.953,2352.775,264.057z M2370.544,257.592c-3.267-0.323-6.968-0.689-9.8-2.097
			c-4.534-2.254-8.935-4.104-10.467-2.387c-0.371,0.414-0.613,1.015-0.699,1.737l-0.001,0.003c-0.247,1.975,0.659,5.323,4.025,8.259
			c4.208,3.67,13.771,5.566,18.605,3.69c2.685-1.043,4.334-3.077,4.981-4.632c0.23-0.557,0.877-2.445-0.455-3.331
			c-0.121-0.081-0.259-0.155-0.41-0.225C2375.079,258.041,2372.869,257.822,2370.544,257.592z"/>
		<path style="fill:#D1836B;" d="M2342.091,237.752c-0.668,2.053,0.615,4.311,2.865,5.043c2.25,0.732,4.616-0.34,5.284-2.393
			c0.668-2.053-0.615-4.311-2.865-5.043C2345.125,234.627,2342.759,235.698,2342.091,237.752z"/>
		<path style="fill:#D1836B;" d="M2385.15,248.196c-0.668,2.053,0.615,4.311,2.865,5.043c2.25,0.732,4.616-0.339,5.284-2.393
			c0.668-2.053-0.615-4.311-2.865-5.043C2388.184,245.071,2385.818,246.142,2385.15,248.196z"/>
		<path style="fill:#5E3628;" d="M2346.763,178.982c0,0-3.109-14.132,4.705-18.939c7.973-4.904,17.487,3.436,21.183,9.959
			c0,0,2.695-5.882,7.479-10.93c8.337-8.796,26.674-0.364,12.434,17.765c0,0,7.039-8.72,20.518-3.562s4.791,20.239-7.566,21.694
			c0,0,15.149-1.447,18.171,11.374c1.434,6.085-1.824,9.904-7.382,11.361c-0.952,4.898-3.62,14.059-10.762,19.599
			c0,0,0.125-12.43-4.274-20.263c-2.85-0.773-5.775-1.876-8.656-3.33c-16.308-8.234-24.025-18.631-24.025-18.631
			s-4.238,8.478-13.734,10.482c-4.743,1.001-9.647,0.694-14.112-0.732l0.179,0.245c0,0-8.622,6.012-15.09,18.331
			c0,0-9.458-16.157,3.348-26.129C2322.842,189.696,2329.506,172.089,2346.763,178.982z"/>
		<path style="fill:#AF5945;" d="M2366.981,248.922c0.089,0.041,0.188,0.061,0.292,0.056c0.59-0.029,5.774-0.359,6.009-3.053
			c0.198-2.275-1.485-12.905-1.556-13.357c-0.054-0.343-0.377-0.577-0.72-0.522c-0.343,0.054-0.577,0.377-0.523,0.72
			c0.482,3.032,1.699,11.288,1.546,13.049c-0.11,1.264-3.293,1.829-4.817,1.905c-0.347,0.017-0.615,0.313-0.597,0.66
			C2366.626,248.623,2366.774,248.827,2366.981,248.922z"/>
		<path style="fill:#30313C;" d="M2385.012,234.82c-0.647,2.947-2.39,5.068-3.893,4.738c-1.502-0.33-2.195-2.987-1.548-5.933
			c0.648-2.947,2.391-5.068,3.893-4.738C2384.966,229.217,2385.659,231.874,2385.012,234.82z"/>
		<path style="fill:#30313C;" d="M2362.746,230.665c-0.647,2.947-2.39,5.068-3.893,4.738c-1.502-0.33-2.195-2.986-1.547-5.933
			c0.647-2.947,2.39-5.068,3.892-4.738C2362.7,225.062,2363.393,227.718,2362.746,230.665z"/>
		<path style="fill:#AF5945;" d="M2379.683,220.827c0.145,0.066,0.307,0.101,0.477,0.095c6.7-0.239,12.167,4.752,12.221,4.803
			c0.428,0.395,1.096,0.37,1.493-0.057c0.396-0.428,0.371-1.096-0.057-1.493c-0.249-0.23-6.17-5.633-13.732-5.364
			c-0.583,0.021-1.039,0.51-1.018,1.093C2379.082,220.316,2379.332,220.665,2379.683,220.827z"/>
		<path style="fill:#AF5945;" d="M2350.764,217.78c0.247,0.113,0.539,0.132,0.813,0.028c8.284-3.133,12.448,0.427,12.489,0.464
			c0.437,0.384,1.104,0.345,1.491-0.092c0.386-0.437,0.345-1.104-0.092-1.491c-0.206-0.183-5.171-4.436-14.635-0.857
			c-0.546,0.206-0.821,0.816-0.615,1.361C2350.318,217.464,2350.52,217.668,2350.764,217.78z"/>
		<path style="fill:#339E33;" d="M2335.537,462.217c0,0,1.888,31.637-23.552,47.161
			C2311.984,509.378,2304.073,472.356,2335.537,462.217z"/>
		<path style="fill:#5E3628;" d="M2330.714,231.615c-0.663-6.116-4.238-12.323-4.238-12.323s-12.349,39.776,7.814,59.061
			c14.98,14.327,47.904,17.438,62.875-6.158c10.313-16.253,8.254-38.314,8.254-38.314s-2.653,6.01-4.636,10.439
			c-1.961,4.38-3.103,10.568-7.489,16.347l-4.053-4.172c-3.098-2.516-6.876-4.148-10.861-4.369c-0.03-0.002-0.06-0.003-0.09-0.005
			c-4.769-0.243-12.956-1.335-21.102-5.564c-1.507-0.782-3.11-1.333-4.759-1.663c-2.878-0.575-5.86-0.334-8.695,0.424l-7.296,2.758
			C2336.438,248.076,2332.249,245.772,2330.714,231.615z M2349.425,248.413c1.361-0.408,2.821-0.232,4.099,0.386
			c11.198,5.416,20.115,6.566,24.473,6.767c2.803,0.129,5.269,2.211,5.462,5.011c0.056,0.808-0.064,1.669-0.466,2.546
			c-2.273,4.962-7.762,9.79-21.599,6.944c-13.032-2.679-17.765-13.897-16.505-17.844
			C2345.6,249.998,2347.715,248.925,2349.425,248.413z"/>
		<path style="fill:#F69D85;" d="M2204.376,457.939l131.205,50.297c8.609,3.3,18.263-1.004,21.563-9.612
			c3.3-8.609-1.004-18.263-9.612-21.563l-110.29-42.28l70.769-91.958c5.623-7.306,4.258-17.788-3.049-23.41
			c-7.307-5.624-17.788-4.259-23.411,3.048l-84.429,109.709c-3.216,4.178-4.268,9.63-2.839,14.705
			C2195.711,451.95,2199.454,456.052,2204.376,457.939z"/>
		<path style="fill:#F69D85;" d="M2325.261,504.261c0,0,11.819,6.511,27.212,7.245c14.418,0.687,19.413-2.863,23.909-7.257
			c4.496-4.395-15.482-21.092-24.901-22.898C2342.062,479.545,2330.271,490.892,2325.261,504.261z"/>
		<path style="fill:#F69D85;" d="M2351.472,511.447c7.492,0.652,14.605,2.806,20.864,7.015c2.817,1.895,7.563,8.046,11.354,3.974
			c4.741-5.906-21.779-22.603-26.95-24.676C2343.649,490.098,2338.471,511.434,2351.472,511.447z"/>
		<path style="fill:#F69D85;" d="M2358.236,507.039c7.298,0.271,14.519,2.729,21.032,6.076c3.682,1.17,8.221,7.556,11.707,3.111
			c3.131-4.913-10.783-12.663-14.292-15.272c-5.295-3.115-11.037-5.767-17.121-7.023
			C2350.994,493.105,2349.664,506.133,2358.236,507.039z"/>
		<path style="fill:#F69D85;" d="M2359.747,500.947c11.262-0.298,22.776,3.252,31.761,10.149c3.305,2.53,7.513-2.358,4.555-5.246
			c-3.422-3.656-7.434-6.916-11.732-9.535c-7.519-4.427-15.918-7.591-24.632-8.572
			C2350.23,487.047,2350.27,501.711,2359.747,500.947z"/>
		<path style="fill:#F69D85;" d="M2348.733,489.407c11.834-0.358,24.086,1.488,34.832,6.56c3.547,1.705,6.85,3.857,9.798,6.454
			c1.441,1.348,3.731,1.24,5.024-0.256c4.795-6.628-17.754-17.961-22.88-19.807c-8.76-3.356-19.55-5.411-28.913-6.043
			C2337.182,476.038,2339.356,490.448,2348.733,489.407z"/>
		<path style="fill:#AF5945;" d="M2378.418,513.056c0.141,0.018,0.288-0.031,0.392-0.143c0.171-0.184,0.159-0.472-0.025-0.643
			c-0.053-0.049-5.414-4.948-14.023-8.429c-0.233-0.093-0.498,0.018-0.593,0.251c-0.094,0.233,0.019,0.498,0.251,0.593
			c8.447,3.415,13.695,8.206,13.747,8.254C2378.239,513.006,2378.328,513.044,2378.418,513.056z"/>
		<path style="fill:#AF5945;" d="M2384.946,507.334c0.151,0.019,0.308-0.038,0.411-0.165c0.158-0.195,0.128-0.482-0.067-0.64
			c-0.062-0.05-6.287-5.056-15.597-9.301c-0.23-0.103-0.499-0.003-0.603,0.225c-0.104,0.229-0.003,0.499,0.225,0.603
			c9.199,4.195,15.341,9.131,15.402,9.18C2384.785,507.291,2384.865,507.324,2384.946,507.334z"/>
		<path style="fill:#AF5945;" d="M2387.911,499.104c0.169,0.021,0.342-0.053,0.44-0.206c0.136-0.211,0.074-0.493-0.137-0.629
			c-0.074-0.048-7.551-4.834-14.578-7.792c-0.232-0.098-0.499,0.012-0.596,0.243c-0.098,0.232,0.011,0.499,0.243,0.596
			c6.955,2.928,14.365,7.671,14.438,7.719C2387.781,499.074,2387.846,499.096,2387.911,499.104z"/>
		<path style="fill:#60BF60;" d="M2324.891,298.318c0,0-35.9-10.867-75.169,28.288c-39.269,39.155-79.396,90.704-71.431,123.139
			c8.314,33.857,133.693,59.633,133.693,59.633s-2.622-24.942,23.552-47.161l-72.046-32.533
			C2263.491,429.685,2350.186,330.561,2324.891,298.318z"/>
		<path style="fill:#305777;" d="M2475.141,627.918c0.106,0.01,0.217-0.004,0.322-0.047c0.348-0.142,0.515-0.54,0.373-0.888
			c-14.306-34.969-76.918-75.892-77.549-76.302c-0.315-0.204-0.737-0.115-0.942,0.2c-0.205,0.315-0.115,0.737,0.2,0.942
			c0.627,0.407,62.885,41.101,77.03,75.675C2474.675,627.741,2474.898,627.894,2475.141,627.918z"/>
		<path style="fill:#305777;" d="M2554.066,756.22c0.036,0.003,0.072,0.004,0.109,0.001c35.707-2.262,71.203-24.373,71.557-24.596
			c0.318-0.2,0.414-0.62,0.214-0.939c-0.201-0.318-0.622-0.415-0.939-0.214c-0.352,0.221-35.563,22.15-70.918,24.39
			c-0.375,0.024-0.66,0.347-0.636,0.722C2553.474,755.924,2553.74,756.188,2554.066,756.22z"/>
		<path style="fill:#305777;" d="M2549.264,745.522c0.046,0.004,0.092,0.004,0.139-0.001c36.996-3.978,72.793-25.624,73.151-25.843
			c0.321-0.196,0.422-0.615,0.226-0.936c-0.197-0.321-0.615-0.421-0.936-0.226c-0.355,0.216-35.9,21.706-72.587,25.651
			c-0.374,0.04-0.644,0.375-0.604,0.749C2548.689,745.245,2548.949,745.492,2549.264,745.522z"/>
		<path style="fill:#305777;" d="M2424.221,822.933c30.066,2.877,51.197-1.43,51.456-1.485c0.368-0.077,0.604-0.438,0.526-0.806
			c-0.077-0.367-0.438-0.605-0.806-0.526c-0.319,0.067-32.386,6.591-73.751-1.951c-0.361-0.089-0.728,0.161-0.804,0.528
			c-0.076,0.369,0.161,0.729,0.529,0.804C2409.386,821.154,2417.059,822.248,2424.221,822.933z"/>
		<path style="fill:#305777;" d="M2425.176,811.777c27.872,2.668,51.398-2.622,51.698-2.691c0.366-0.085,0.595-0.451,0.51-0.817
			c-0.084-0.367-0.45-0.593-0.816-0.511c-0.381,0.087-38.537,8.658-75.105-1.711c-0.359-0.105-0.738,0.107-0.841,0.469
			c-0.103,0.361,0.108,0.738,0.47,0.84C2409.181,809.652,2417.352,811.029,2425.176,811.777z"/>
		<path style="fill:#339E33;" d="M2335.472,462.895c0.282,0.027,0.562-0.125,0.685-0.397c0.155-0.343,0.002-0.746-0.34-0.901
			l-71.28-32.187c4.583-6.254,39.403-53.881,52.901-75.547c0.199-0.319,0.102-0.739-0.218-0.938
			c-0.318-0.197-0.739-0.101-0.938,0.218c-14.363,23.053-52.952,75.61-53.34,76.138c-0.121,0.166-0.162,0.377-0.11,0.576
			c0.052,0.198,0.191,0.363,0.378,0.448l72.046,32.533C2335.326,462.87,2335.399,462.888,2335.472,462.895z"/>
		<path style="fill:#339E33;" d="M2412.08,480.593c0.368,0.035,0.698-0.23,0.741-0.599c8.056-68.906-10.457-118.142-10.645-118.631
			c-0.135-0.351-0.529-0.525-0.88-0.391c-0.351,0.135-0.526,0.529-0.391,0.879c0.187,0.486,18.578,49.431,10.563,117.985
			c-0.043,0.374,0.224,0.712,0.597,0.755C2412.071,480.592,2412.076,480.592,2412.08,480.593z"/>
		<path style="fill:#404660;" d="M2391.734,535.771l163.896,18.121l33.349-93.985c2.893-8.148-2.57-16.857-11.158-17.807
			l-136.522-15.094c-6.184-0.684-12.027,2.975-14.109,8.841l-33.622,94.755L2391.734,535.771z"/>
		<path style="fill:#606A97;" d="M2404.085,537.137l151.545,16.755l33.349-93.985c2.893-8.148-2.57-16.857-11.158-17.807
			l-124.171-13.729c-6.184-0.684-12.026,2.975-14.109,8.842L2404.085,537.137z"/>
		
			<rect x="2348.613" y="480.147" transform="matrix(0.1099 -0.9939 0.9939 0.1099 1572.2333 2808.0903)" style="fill:#404660;" width="10.677" height="92.153"/>
		<path style="fill:#339E33;" d="M2311.92,510.056c0.346,0.033,0.667-0.203,0.733-0.551c0.07-0.37-0.172-0.726-0.542-0.796
			c-0.452-0.086-45.745-8.791-87.3-26.026c-0.346-0.142-0.746,0.02-0.89,0.368c-0.144,0.347,0.02,0.746,0.368,0.889
			c41.688,17.291,87.114,26.02,87.568,26.107C2311.878,510.051,2311.899,510.054,2311.92,510.056z"/>
	</g>
	<g id="_x36_">
		<path style="fill:#997243;" d="M1069.74,1056.684c0,0,26.18,0.217,42.487,20.678
			C1112.227,1077.362,1086.284,1083.851,1069.74,1056.684z"/>
		<path style="fill:#B74F2A;" d="M861.084,1021.23c0,0-16.109,11.073-27.087,39.181c-7.948,20.35-28.354,54.016-36.85,73.597
			c-34.328,79.112-4.326,120.506,101.058,117.324c49.784-1.503,61.054-39.991,52.919-73.778c-8.09-33.6-18.048-66.016-9.774-102.986
			c0,0-8.108-32.881-27.545-39.016C894.367,1029.416,861.084,1021.23,861.084,1021.23z"/>
		
			<rect x="871.091" y="1095.885" transform="matrix(0.9993 -0.0367 0.0367 0.9993 -40.7293 33.44)" style="fill:#F69D85;" width="37.817" height="59.281"/>
		<path style="fill:#D1836B;" d="M881.877,1128.396c0,0,11.984,8.995,27.365,5.886l-0.758-20.623L881.877,1128.396z"/>
		<path style="fill:#F69D85;" d="M898.167,1130.996L898.167,1130.996c21.933-1.101,38.822-19.774,37.72-41.707l-1.035-20.615
			c-1.101-21.933-19.774-38.821-41.707-37.72l0,0c-21.933,1.101-38.821,19.774-37.72,41.707l1.035,20.615
			C857.561,1115.209,876.234,1132.097,898.167,1130.996z"/>
		<path style="fill:#F69D85;" d="M892.279,1370.233c34.905-1.282,86.445-12.729,71.1-60.147
			c-7.88-24.351-17.823-57.303-12.354-101.631c4.277-34.666-23.848-69.377-59.37-69.183l-2.293,0.084
			c-34.044,1.794-49.521,36.38-44.651,70.968c6.277,44.579-2.992,76.081-11.476,98.872
			C809.975,1371.673,892.279,1370.233,892.279,1370.233z"/>
		<path style="fill:#F69D85;" d="M902.299,1174.183c-1.702-12.784,7.282-24.527,20.067-26.229l104.598-13.922l57.457-88.605
			c4.008-6.195,12.067-8.658,18.954-5.467c7.542,3.494,10.823,12.44,7.328,19.982l-49.632,107.118
			c-2.862,6.055-8.698,10.705-15.831,11.655l-116.712,15.535C915.744,1195.952,904,1186.967,902.299,1174.183z"/>
		<path style="fill:#30313C;" d="M889.531,1077.773c0.147,2.962-0.957,5.424-2.467,5.5c-1.51,0.075-2.854-2.265-3.001-5.228
			c-0.147-2.962,0.958-5.424,2.468-5.5C888.04,1072.47,889.384,1074.811,889.531,1077.773z"/>
		<path style="fill:#FFB12A;" d="M909.528,1142.027c0,0,41.566-8.852,112.662-11.822c0,0,29.226-48.416,47.55-73.521
			c0,0,16.104,19.32,42.487,20.678c0,0-31.237,94.011-57.423,104.801s-101.564,21.474-101.564,21.474L909.528,1142.027z"/>
		<path style="fill:#30313C;" d="M913.509,1076.58c0.147,2.962-0.957,5.424-2.468,5.5s-2.854-2.266-3.001-5.228
			c-0.147-2.962,0.958-5.424,2.468-5.499C912.018,1071.278,913.362,1073.618,913.509,1076.58z"/>
		<path style="fill:#E58A76;" d="M872.928,1089.216c-0.231,2.11,1.456,4.026,3.768,4.279c2.312,0.253,4.374-1.252,4.605-3.362
			c0.231-2.11-1.456-4.026-3.768-4.279C875.221,1085.601,873.159,1087.106,872.928,1089.216z"/>
		<path style="fill:#E58A76;" d="M917.684,1088.719c-0.231,2.11,1.456,4.026,3.768,4.279c2.312,0.253,4.374-1.252,4.606-3.362
			c0.231-2.11-1.456-4.026-3.768-4.279C919.977,1085.104,917.915,1086.609,917.684,1088.719z"/>
		<path style="fill:#FFB12A;" d="M909.528,1142.027c0,0,19.015,3.513,38.49,30.904c5.339,7.509,17.637,27.633,18.079,39.652
			c0.48,13.067-12.578,20.974-11.708,44.637c0.862,23.461,18.579,37.879,8.99,52.866c-5.64,8.816-93.144,23.762-130.865,1.372
			c-20.986-12.457,13.42-40.653,3.015-104.986c-7.924-48.994,18.983-57.839,36.182-63.055c0,0,14.742,36.915,27.719,35.774
			C912.754,1178.019,909.528,1142.027,909.528,1142.027z"/>
		<path style="fill:#F69D85;" d="M843.386,1085.552c0.292,5.826,5.253,10.313,11.079,10.02c5.826-0.293,10.313-5.253,10.02-11.079
			c-0.292-5.826-5.253-10.313-11.079-10.02C847.58,1074.765,843.094,1079.725,843.386,1085.552z"/>
		<path style="fill:#B74F2A;" d="M908.478,1022.622c0,0,18.253-6.235,30.975,10.86c11.128,14.953,6.598,31.384-0.212,46.688
			C939.241,1080.169,913.825,1046.827,908.478,1022.622z"/>
		<path style="fill:#F69D85;" d="M925.006,1083.209c0.293,5.826,5.253,10.312,11.079,10.02c5.826-0.292,10.313-5.253,10.02-11.079
			c-0.293-5.826-5.253-10.313-11.079-10.02C929.2,1072.423,924.714,1077.383,925.006,1083.209z"/>
		<path style="fill:#D1836B;" d="M894.259,1103.523c0.021,2.885,2.743,5.204,6.081,5.179c3.332-0.027,6.019-2.386,5.998-5.271
			c-0.005-0.652-0.151-1.283-0.41-1.855c-0.881-1.963-3.09-3.346-5.671-3.325c-2.254,0.016-4.212,1.104-5.239,2.702
			C894.526,1101.714,894.255,1102.588,894.259,1103.523z"/>
		<path style="fill:#FFFFFF;" d="M895.019,1100.954c7.099,3.125,10.908,0.629,10.908,0.629l0.002-0.006
			c-0.881-1.963-3.09-3.346-5.671-3.325C898.004,1098.267,896.046,1099.356,895.019,1100.954z"/>
		<path style="fill:#AF5945;" d="M936.08,1088.84c0.299-0.06,0.515-0.332,0.496-0.644c-0.189-3.107,1.61-3.733,3.349-4.338
			c1.039-0.361,2.02-0.703,2.44-1.579c0.26-0.544,0.25-1.192-0.033-1.979c-1.58-4.416-6.845-4.377-7.069-4.373
			c-0.341,0.002-0.613,0.286-0.607,0.628c0.005,0.341,0.286,0.614,0.627,0.609c0.187-0.003,4.605-0.022,5.884,3.553
			c0.162,0.455,0.19,0.801,0.081,1.029c-0.197,0.411-0.941,0.67-1.73,0.944c-1.762,0.613-4.424,1.539-4.178,5.582
			c0.021,0.341,0.314,0.601,0.655,0.58C936.025,1088.849,936.053,1088.845,936.08,1088.84z"/>
		<path style="fill:#AF5945;" d="M854.328,1091.095c0.262-0.052,0.469-0.271,0.495-0.55c0.373-4.033-2.26-5.042-4.001-5.71
			c-0.78-0.299-1.516-0.581-1.7-0.998c-0.102-0.231-0.064-0.576,0.112-1.026c1.398-3.549,5.946-3.369,5.992-3.367
			c0.34,0.017,0.631-0.247,0.648-0.588c0.017-0.341-0.247-0.631-0.588-0.648c-0.223-0.011-5.485-0.215-7.203,4.15
			c-0.307,0.779-0.337,1.425-0.094,1.977c0.391,0.889,1.362,1.261,2.389,1.655c1.72,0.659,3.498,1.341,3.212,4.44
			c-0.031,0.34,0.219,0.641,0.559,0.673C854.211,1091.11,854.271,1091.107,854.328,1091.095z"/>
		<path style="fill:#B74F2A;" d="M922.742,1034.289c0,0-8.224,21.678-29.928,22.209c-25.487,0.624-35.959,33.055-35.959,33.055
			s-14.737-24.438-10.501-41.951C856.046,1007.534,897.424,997.613,922.742,1034.289z"/>
		<path style="fill:#AF5945;" d="M916.555,1065.767c0.133-0.026,0.263-0.08,0.382-0.161c0.472-0.323,0.594-0.967,0.272-1.44
			c-0.099-0.146-2.475-3.576-6.261-4.068c-2.243-0.291-4.459,0.497-6.587,2.342c-0.433,0.376-0.48,1.031-0.104,1.465
			c0.375,0.433,1.031,0.479,1.464,0.104c1.656-1.437,3.321-2.06,4.946-1.854c2.857,0.364,4.807,3.154,4.826,3.182
			C915.737,1065.689,916.16,1065.846,916.555,1065.767z"/>
		<path style="fill:#AF5945;" d="M892.651,1064.99c0.18-0.036,0.353-0.12,0.498-0.254c0.42-0.388,0.449-1.041,0.063-1.462
			c-0.096-0.105-2.403-2.583-5.794-2.494c-2.406,0.063-4.683,1.378-6.765,3.909c-0.364,0.443-0.301,1.097,0.142,1.462
			c0.443,0.364,1.096,0.301,1.461-0.142c1.677-2.038,3.428-3.1,5.197-3.152c2.437-0.074,4.213,1.803,4.23,1.822
			C891.939,1064.952,892.308,1065.058,892.651,1064.99z"/>
		<path style="fill:#AF5945;" d="M900.326,1094.201c0.031-0.006,0.062-0.015,0.093-0.026c0.545-0.201,5.311-2.035,4.74-4.631
			c-0.483-2.193-5.187-11.669-5.387-12.071c-0.152-0.307-0.523-0.43-0.829-0.278c-0.306,0.152-0.43,0.523-0.279,0.829
			c1.344,2.703,4.913,10.089,5.286,11.786c0.269,1.221-2.55,2.686-3.958,3.204c-0.321,0.118-0.485,0.474-0.367,0.794
			C899.731,1094.098,900.032,1094.26,900.326,1094.201z"/>
		<path style="fill:#DBBFB2;" d="M944.081,1240.787c9.546-1.908,15.159-6.992,15.459-7.269c0.251-0.232,0.267-0.622,0.035-0.873
			c-0.232-0.251-0.625-0.266-0.874-0.036c-0.091,0.084-9.313,8.41-23.958,7.598c-0.336-0.02-0.633,0.242-0.652,0.583
			c-0.019,0.341,0.242,0.633,0.583,0.652C938.126,1241.634,941.274,1241.348,944.081,1240.787z"/>
		<path style="fill:#997243;" d="M892.674,1243.282c1.044-0.209,1.61-0.364,1.64-0.372c0.329-0.093,0.52-0.435,0.427-0.763
			c-0.093-0.329-0.435-0.518-0.763-0.427c-0.155,0.045-15.939,4.345-37.51-1.96c-0.329-0.096-0.672,0.092-0.767,0.42
			c-0.096,0.328,0.092,0.672,0.42,0.768C874.024,1246.18,888.04,1244.209,892.674,1243.282z"/>
		<path style="fill:#F69D85;" d="M1084.157,1050.205c0,0,8.819-14.433,22.028-18.976s19.43-3.337,24.426-0.139
			c4.996,3.198-10.988,22.805-19.565,26.385C1102.469,1061.055,1091.177,1061.678,1084.157,1050.205z"/>
		<path style="fill:#F69D85;" d="M1083.401,1047.073l0.41-0.825c0.132-0.264,0.231-0.441,0.333-0.629
			c0.104-0.193,0.207-0.375,0.308-0.549c0.204-0.354,0.407-0.711,0.615-1.049c0.41-0.689,0.833-1.356,1.259-2.019
			c0.424-0.665,0.87-1.307,1.304-1.959l1.355-1.91c1.84-2.516,3.822-4.917,5.931-7.203c2.092-2.297,4.37-4.441,6.767-6.436
			l1.819-1.471l1.904-1.375l0.951-0.681l0.997-0.628l1.988-1.245c1.492-0.936,3.484-0.673,4.675,0.699
			c1.316,1.516,1.153,3.812-0.364,5.128l-0.217,0.189l-1.526,1.324l-0.76,0.656l-0.722,0.712l-1.436,1.415l-0.934,1.03
			c0.538-0.262,1.076-0.543,1.617-0.821c1.164-0.613,2.321-1.26,3.47-1.931c2.298-1.342,4.538-2.807,6.713-4.361
			c1.102-0.765,2.147-1.591,3.217-2.403l1.553-1.269l0.777-0.639l0.749-0.665c2.044-1.742,3.899-3.658,5.733-5.62l0.107-0.116
			c1.083-1.16,2.875-1.415,4.255-0.522c1.55,1.002,1.993,3.071,0.991,4.62c-1.607,2.485-3.285,4.957-5.167,7.247l-0.693,0.874
			l-0.721,0.845l-0.508,0.591c0.164-0.114,0.327-0.227,0.491-0.34l1.632-1.208l0.818-0.608l0.79-0.635
			c2.153-1.66,4.128-3.501,6.085-5.386l0.11-0.107c1.144-1.104,2.95-1.264,4.281-0.297c1.493,1.084,1.825,3.173,0.741,4.667
			c-1.753,2.415-3.575,4.815-5.589,7.024l-0.708,0.806l0.562-0.353l1.678-1.185l0.843-0.597l0.797-0.643l1.604-1.292l0.203-0.164
			c1.241-1.002,3.059-0.994,4.296,0.095c1.382,1.217,1.515,3.324,0.298,4.706l-1.557,1.767l-0.785,0.885l-0.83,0.833l-1.673,1.664
			l-1.751,1.57c-0.939,0.816-1.903,1.604-2.881,2.374l1.453-0.945l1.03-0.671l0.965-0.747l1.948-1.499l0.249-0.192
			c1.291-0.995,3.15-0.917,4.353,0.253c1.318,1.282,1.347,3.39,0.064,4.708l-1.973,2.027l-0.995,1.016l-1.062,0.934l-2.143,1.865
			l-2.263,1.706c-0.382,0.279-0.752,0.581-1.145,0.842l-1.183,0.776c-0.796,0.505-1.573,1.061-2.392,1.526l-2.461,1.406
			c-0.823,0.47-1.677,0.859-2.518,1.293c-3.388,1.665-6.896,3.086-10.496,4.244l-2.72,0.82c-0.919,0.24-1.83,0.507-2.761,0.723
			c-0.928,0.224-1.863,0.44-2.816,0.627c-0.469,0.102-0.962,0.184-1.448,0.272c-0.239,0.045-0.492,0.086-0.753,0.124
			c-0.254,0.039-0.5,0.079-0.853,0.118l-0.819,0.091c-0.449,0.046-0.91,0.045-1.376-0.008c-3.497-0.396-6.01-3.553-5.614-7.049
			c0.396-3.497,3.553-6.01,7.05-5.614c0.079,0.009,0.25,0.008,0.42,0.006c-0.257-0.632-0.423-1.314-0.465-2.033
			c-0.043-0.723,0.042-1.422,0.225-2.083c-0.094-0.212-0.177-0.431-0.249-0.656c-2.963,0.306-5.83-1.501-6.753-4.453
			c-0.08-0.255-0.138-0.512-0.184-0.769c-1.215,1.885-2.35,3.823-3.38,5.811l-0.905,1.811c-0.281,0.61-0.578,1.215-0.846,1.826
			c-0.27,0.611-0.537,1.219-0.78,1.826c-0.129,0.305-0.24,0.602-0.355,0.899c-0.06,0.151-0.113,0.296-0.161,0.433
			c-0.051,0.141-0.106,0.292-0.121,0.36c-0.11,0.494-0.287,1.015-0.522,1.488c-1.571,3.161-5.407,4.449-8.568,2.878
			C1083.119,1054.069,1081.83,1050.234,1083.401,1047.073z"/>
		<path style="fill:#AF5945;" d="M1125.273,1049.667c0.04-0.008,0.079-0.02,0.119-0.036c7.843-3.287,14.279-9.06,14.344-9.118
			c0.254-0.229,0.273-0.62,0.045-0.874c-0.23-0.253-0.62-0.272-0.874-0.044c-0.063,0.057-6.35,5.692-13.993,8.895
			c-0.315,0.132-0.463,0.494-0.332,0.81C1124.698,1049.576,1124.99,1049.724,1125.273,1049.667z"/>
		<path style="fill:#AF5945;" d="M1124.193,1041.655c0.075-0.015,0.148-0.044,0.215-0.087c8.484-5.493,14.265-11.344,14.322-11.403
			c0.24-0.244,0.236-0.635-0.008-0.875c-0.245-0.239-0.636-0.235-0.875,0.008c-0.056,0.057-5.748,5.815-14.111,11.231
			c-0.287,0.186-0.369,0.569-0.183,0.856C1123.694,1041.603,1123.952,1041.703,1124.193,1041.655z"/>
		<path style="fill:#AF5945;" d="M1118.332,1036.571c0.078-0.016,0.153-0.046,0.223-0.093c5.253-3.521,10.981-9.668,11.223-9.928
			c0.232-0.25,0.217-0.642-0.033-0.874c-0.251-0.232-0.64-0.219-0.875,0.033c-0.058,0.062-5.873,6.302-11.005,9.741
			c-0.284,0.19-0.36,0.575-0.169,0.858C1117.84,1036.522,1118.094,1036.618,1118.332,1036.571z"/>
		<path style="fill:#AF5945;" d="M1111.62,1048.125c0.185-0.037,0.351-0.158,0.438-0.342c0.146-0.309,0.014-0.678-0.295-0.824
			c-2.633-1.246-6.051-1.446-7.882-1.452c2.623-3.89,3.495-8.96,3.534-9.193c0.056-0.337-0.171-0.656-0.508-0.712
			c-0.335-0.057-0.655,0.17-0.712,0.508c-0.01,0.059-1.027,5.957-4.041,9.654c-0.155,0.191-0.183,0.455-0.071,0.674
			c0.112,0.219,0.344,0.35,0.59,0.334c0.051-0.003,5.153-0.308,8.562,1.305C1111.359,1048.136,1111.494,1048.15,1111.62,1048.125z"
			/>
		<path style="fill:#997243;" d="M963.844,1202.671c0.049-0.01,0.099-0.026,0.146-0.049c0.308-0.147,0.439-0.517,0.291-0.825
			c-0.064-0.134-6.526-13.516-17.868-25.984c-0.229-0.253-0.622-0.271-0.874-0.042c-0.253,0.23-0.271,0.621-0.041,0.874
			c11.221,12.336,17.604,25.554,17.667,25.686C963.29,1202.592,963.573,1202.725,963.844,1202.671z"/>
		<path style="fill:#997243;" d="M1108.417,1089.136c0.27-0.054,0.48-0.285,0.496-0.572c0.019-0.341-0.242-0.633-0.583-0.652
			c-0.294-0.016-29.579-1.875-44.786-22.125c-0.205-0.273-0.592-0.329-0.866-0.123c-0.273,0.205-0.328,0.593-0.123,0.866
			c15.557,20.717,45.407,22.6,45.707,22.617C1108.314,1089.15,1108.366,1089.146,1108.417,1089.136z"/>
		<path style="fill:#F69D85;" d="M908.997,1369.292l-36.972,178.679l-0.839,4.056c-0.156,0.756-0.402,1.555-0.67,2.252
			L805.37,1720.03c-4.707,11.977-18.233,17.87-30.21,13.163c-11.977-4.707-17.873-18.225-13.166-30.202l65.088-165.775
			l-3.908-176.141c-0.315-23.946,18.554-34.751,42.5-35.066c23.947-0.315,43.903,9.979,44.218,33.926
			C909.933,1363.063,909.587,1366.344,908.997,1369.292z"/>
		<path style="fill:#F69D85;" d="M963.026,1364.774l7.067,182.327l0.16,4.139c0.03,0.771-0.016,1.606-0.109,2.347l-23.388,176.552
			c-1.69,12.757-13.402,21.729-26.159,20.039c-12.758-1.69-21.73-13.394-20.041-26.151l23.326-176.561l-46.138-170.035
			c-6.062-23.169,7.805-46.865,30.974-52.927s46.865,7.805,52.927,30.974C962.438,1358.503,962.89,1361.77,963.026,1364.774z"/>
		<path style="fill:#404D7F;" d="M989.246,1786.518l-56.189-0.693l-11.784-25.241l-5.093,25.027l-16.228-0.198
			c-14.793-31.037,1.087-69.776,1.087-69.776s23.49,4.789,51.719,0.875l-0.661,25.179L994,1772.22
			C1000.228,1776.757,996.951,1786.613,989.246,1786.518z"/>
		<path style="fill:#606A97;" d="M908.06,1751.294c-0.613-0.004-1.224-0.128-1.806-0.37c-1.179-0.492-2.096-1.413-2.583-2.594
			c-0.487-1.181-0.484-2.481,0.008-3.66c0.492-1.18,1.413-2.097,2.594-2.583c1.181-0.487,2.482-0.484,3.66,0.007
			c1.179,0.491,2.097,1.413,2.583,2.594l0,0c1.004,2.438-0.164,5.239-2.602,6.243
			C909.317,1751.178,908.688,1751.299,908.06,1751.294z M908.12,1742.959c-0.466-0.003-0.932,0.086-1.376,0.269
			c-0.877,0.36-1.56,1.041-1.925,1.916c-0.365,0.875-0.367,1.839-0.006,2.716c0.361,0.876,1.041,1.56,1.916,1.924
			c0.874,0.364,1.839,0.367,2.715,0.005c1.809-0.745,2.675-2.823,1.931-4.632c-0.361-0.876-1.041-1.56-1.916-1.924
			C909.027,1743.054,908.574,1742.963,908.12,1742.959z"/>
		<path style="fill:#FF593A;" d="M999.145,1517.751c-13.193-126.807-49.209-201.481-49.209-201.481s-12.131,2.08-29.307,3.565
			c-4.252,0.359-49.669,3.844-84.893-8.082c0,0-34.334,29.533-34.822,97.256c-0.325,45.102,3.133,126.039,3.133,126.039
			l-55.53,136.95c108.054,51.079,229.871,28.94,229.871,28.94S1005.046,1574.471,999.145,1517.751z"/>
		<path style="fill:#404D7F;" d="M833.06,1784.971l-54.374-14.181l-5.37-27.334l-10.961,23.069l-15.705-4.093
			c-6.898-33.683,17.829-67.469,17.829-67.469s21.649,10.296,49.992,13.282l-6.695,24.282l33.336,39.708
			C846.066,1778.136,840.515,1786.916,833.06,1784.971z"/>
		<path style="fill:#606A97;" d="M762.723,1731.263c-0.593-0.151-1.157-0.418-1.664-0.793c-1.026-0.761-1.695-1.875-1.883-3.139
			c-0.188-1.264,0.127-2.525,0.887-3.551c0.761-1.027,1.876-1.696,3.139-1.883c1.263-0.188,2.525,0.127,3.551,0.887
			c1.027,0.76,1.696,1.875,1.884,3.139l0,0c0.388,2.608-1.418,5.046-4.026,5.435
			C763.971,1731.452,763.331,1731.418,762.723,1731.263z M764.784,1723.187c-0.451-0.115-0.926-0.141-1.4-0.07
			c-0.938,0.139-1.765,0.636-2.329,1.397c-0.565,0.762-0.798,1.698-0.659,2.635c0.14,0.937,0.636,1.764,1.397,2.328
			c0.761,0.564,1.697,0.798,2.635,0.658c1.935-0.288,3.275-2.097,2.987-4.032c-0.14-0.937-0.636-1.764-1.398-2.328
			C765.642,1723.497,765.224,1723.299,764.784,1723.187z"/>
		<path style="fill:#3E8EDD;" d="M897.751,1219.4l45.366,0.442l0,0c0.035-3.552-2.817-6.459-6.369-6.494l-32.503-0.317
			C900.693,1212.997,897.785,1215.849,897.751,1219.4L897.751,1219.4z"/>
		<path style="fill:#606A97;" d="M881.236,1343.751l73.855,0.72c6.426,0.063,11.686-5.096,11.748-11.522l0.989-101.488
			c0.063-6.426-5.096-11.686-11.521-11.748l-73.855-0.72c-6.426-0.063-11.686,5.096-11.749,11.522l-0.989,101.488
			C869.651,1338.428,874.81,1343.688,881.236,1343.751z"/>
		<path style="fill:#F69D85;" d="M779.758,1281.318l34.675-93.312c4.492-12.089,17.934-18.248,30.024-13.755
			c12.089,4.492,18.248,17.934,13.755,30.024l-24.378,65.602l90.706,15.876c7.295,1.269,12.718,7.759,12.443,15.366
			c-0.3,8.305-7.276,14.794-15.581,14.494l-121.652-4.399c-2.276-0.093-4.674-0.538-6.926-1.375
			C781.341,1305.572,775.49,1292.802,779.758,1281.318z"/>
		<path style="fill:#F69D85;" d="M905.266,1290.926c0,0,15.367-7.067,28.866-3.477c13.499,3.59,17.992,8.059,20.357,13.499
			c2.365,5.44-21.834,12.809-30.95,11.001C914.422,1310.141,904.7,1304.365,905.266,1290.926z"/>
		<path style="fill:#F69D85;" d="M913.979,1298.063c7.035-5.061,15.163-8.757,23.605-10.721c1.102-0.2,2.864-0.58,3.974-0.684
			c2.614-0.008,5.894-1.123,5.451-4.339c-0.712-4.721-7.169-2.985-10.529-3.178c-10.474,0.808-20.848,3.759-30.095,8.763
			C898.318,1292.742,907.043,1304.44,913.979,1298.063z"/>
		<path style="fill:#F69D85;" d="M933.166,1299.925c11.97-0.178,23.974-2.581,34.948-7.379c3.69-1.484,1.749-7.319-2.072-6.326
			c-2.983,0.717-5.99,1.287-9.038,1.641c-7.528,0.794-15.223,0.754-22.689-0.486
			C924.556,1284.897,923.092,1300.437,933.166,1299.925z"/>
		<path style="fill:#F69D85;" d="M935.944,1307.362c12.059,0.313,24.244-1.519,35.549-5.75c3.768-1.284,2.137-7.222-1.734-6.428
			c-3.38,0.622-6.795,1.093-10.233,1.243c-7.325,0.356-14.757-0.083-21.936-1.561
			C928.039,1292.135,925.992,1307.401,935.944,1307.362z"/>
		<path style="fill:#F69D85;" d="M932.607,1311.078c12.258,2.85,25.345,3.165,37.512-0.274c4.025-0.987,2.649-7.261-1.397-6.524
			c-0.731,0.067-2.379,0.205-3.072,0.268c-9.848,0.409-19.833-1.59-28.911-5.377C927.858,1294.41,922.693,1309.151,932.607,1311.078
			z"/>
		<path style="fill:#F69D85;" d="M920.51,1314.015c10.346,4.83,21.892,7.374,33.311,6.983c3.605-0.099,7.705-0.742,11.21-1.566
			c3.96-0.747,3.09-6.939-0.902-6.581c-0.057,0.006-2.626,0.169-2.766,0.18c-9.793,0.54-19.612-2.168-28.373-6.42
			c-2.078-1.051-4.191-2.154-6.098-3.465C919.199,1297.053,911.467,1310.138,920.51,1314.015z"/>
		<path style="fill:#AF5945;" d="M956.845,1313.852c0.32-0.064,0.538-0.368,0.49-0.695c-0.049-0.338-0.362-0.573-0.7-0.524
			c-0.084,0.012-8.444,1.186-16.575-0.414c-0.334-0.065-0.66,0.152-0.726,0.487c-0.065,0.335,0.152,0.661,0.488,0.726
			c8.344,1.643,16.905,0.438,16.99,0.425C956.824,1313.856,956.835,1313.854,956.845,1313.852z"/>
		<path style="fill:#AF5945;" d="M961.718,1304.711c0.016-0.003,0.025-0.005,0.027-0.006c0.335-0.069,0.55-0.396,0.482-0.731
			c-0.069-0.333-0.394-0.548-0.727-0.482c-0.003,0-0.007,0.001-0.029,0.006c-0.5,0.1-8.268,1.615-17.95,1.454
			c-0.34-0.006-0.623,0.267-0.629,0.608c-0.006,0.342,0.267,0.623,0.609,0.629C953.306,1306.353,961.186,1304.818,961.718,1304.711z
			"/>
		<path style="fill:#AF5945;" d="M954,1297.214c1.346-0.269,2.221-0.474,2.328-0.499c0.333-0.078,0.539-0.412,0.46-0.744
			c-0.078-0.333-0.428-0.539-0.744-0.46c-0.085,0.02-8.39,1.959-14.566,1.954c-0.34,0-0.619,0.276-0.619,0.618
			c0,0.342,0.276,0.619,0.618,0.619C945.822,1298.705,951.045,1297.804,954,1297.214z"/>
		<path style="fill:#FFB12A;" d="M871.711,1143.416c0,0-46.984-0.856-70.697,49.453c-23.713,50.31-33.093,92.434-24.577,111.938
			c10.761,24.646,120.701,22.517,120.701,22.517s12.548-18.593,5.911-50.464c0,0-35.936-7.756-60.216-9.673
			C842.831,1267.187,876.484,1181.378,871.711,1143.416z"/>
		<path style="fill:#997243;" d="M870.433,1271.328c0.252-0.05,0.456-0.256,0.492-0.525c0.045-0.339-0.193-0.65-0.532-0.695
			c-8.747-1.165-23.125-2.984-26.675-3.433c8.243-19.774,19.961-66.514,20.079-66.99c0.083-0.332-0.119-0.667-0.45-0.75
			c-0.331-0.083-0.668,0.119-0.75,0.45c-0.121,0.481-12.117,48.34-20.335,67.558c-0.077,0.178-0.064,0.383,0.032,0.551
			c0.097,0.168,0.267,0.282,0.459,0.306c0.174,0.022,17.495,2.205,27.477,3.534C870.299,1271.344,870.368,1271.341,870.433,1271.328
			z"/>
		<path style="fill:#997243;" d="M884.511,1327.943c0.177-0.035,0.336-0.147,0.427-0.318c11.445-21.712,6.087-53.12,6.031-53.435
			c-0.059-0.337-0.38-0.561-0.716-0.502c-0.33,0.067-0.561,0.381-0.502,0.717c0.054,0.311,5.338,31.31-5.908,52.643
			c-0.159,0.302-0.043,0.676,0.259,0.836C884.233,1327.953,884.377,1327.97,884.511,1327.943z"/>
		<path style="fill:#997243;" d="M901.572,1186.267c3.391-0.678,6.243-2.523,8.488-5.494c9.127-12.082,5.523-38.719,5.365-39.848
			c-0.047-0.338-0.36-0.574-0.698-0.527c-0.332,0.049-0.574,0.36-0.527,0.698c0.038,0.271,3.691,27.259-5.128,38.932
			c-2.227,2.947-5.098,4.685-8.529,5.159c-19.322,2.68-33.656-41.149-33.798-41.592c-0.104-0.325-0.448-0.506-0.778-0.4
			c-0.325,0.105-0.504,0.453-0.4,0.778c0.595,1.849,14.8,45.26,35.145,42.439C901.003,1186.372,901.289,1186.324,901.572,1186.267z"
			/>
		<path style="fill:#AF5945;" d="M900.345,1109.321c-1.763,0.013-3.429-0.572-4.691-1.646c-1.287-1.096-2.003-2.569-2.014-4.147
			c0-0.001,0-0.001,0-0.002c-0.005-1.028,0.291-2.034,0.857-2.906c1.174-1.825,3.378-2.971,5.755-2.986
			c2.774-0.023,5.224,1.425,6.239,3.688c0.304,0.67,0.461,1.379,0.466,2.106c0.02,2.793-2.207,5.152-5.192,5.749
			C901.308,1109.267,900.833,1109.317,900.345,1109.321z M895.537,1101.29c-0.442,0.682-0.663,1.432-0.659,2.229
			c0.009,1.212,0.57,2.353,1.579,3.213c1.035,0.882,2.413,1.362,3.879,1.351c2.984-0.021,5.403-2.109,5.384-4.648
			c-0.004-0.553-0.123-1.093-0.355-1.606c-0.803-1.789-2.853-2.978-5.102-2.959c-0.404,0.003-0.801,0.044-1.185,0.121
			C897.591,1099.288,896.293,1100.115,895.537,1101.29z"/>
		<path style="fill:#9B453A;" d="M919.165,1692.252c-38.456,0-72.44-5.654-97.454-11.565c-41.046-9.697-67.465-22.161-67.727-22.286
			c-0.373-0.177-0.531-0.622-0.354-0.995c0.177-0.373,0.623-0.531,0.995-0.353c0.261,0.124,26.567,12.531,67.47,22.191
			c37.736,8.91,95.969,17.24,159.093,6.311c0.411-0.062,0.793,0.202,0.864,0.609c0.07,0.407-0.202,0.793-0.609,0.864
			C959.912,1690.755,938.945,1692.252,919.165,1692.252z"/>
	</g>
	<g id="_x35_">
		
			<ellipse transform="matrix(0.7071 -0.7071 0.7071 0.7071 -35.5224 2229.7498)" style="fill:#FFB12A;" cx="2673.785" cy="1157.754" rx="166.376" ry="166.376"/>
		<path style="fill:#FACE6C;" d="M2626.624,1292.924c-69.372-24.147-110.022-98.032-91.566-170.501
			c19.483-76.494,97.565-122.877,174.058-103.396c76.492,19.488,122.876,97.564,103.396,174.058
			c-19.482,76.494-97.564,122.877-174.058,103.396C2634.43,1295.456,2630.477,1294.265,2626.624,1292.924z M2718.836,1028.635
			c-3.685-1.282-7.452-2.417-11.301-3.397c-73.07-18.61-147.657,25.697-166.267,98.767c-17.629,69.222,21.207,139.805,87.468,162.87
			c3.685,1.283,7.451,2.417,11.3,3.397c73.07,18.61,147.657-25.698,166.267-98.768
			C2823.932,1122.283,2785.097,1051.699,2718.836,1028.635z"/>
		<path style="fill:#FACE6C;" d="M2723.355,1208.476c6.273-24.631-3.932-44.28-31.845-63.668
			c-20.427-14.292-28.832-21.642-26.013-32.71c2.269-8.91,12.479-14.764,29.635-10.395c8.158,2.077,15.003,5.054,20.586,8.145
			c8.029,4.446,18.136,1.568,22.683-6.405l0,0c4.641-8.138,1.786-18.596-6.464-23.035c-5.67-3.051-12.316-5.916-20.114-8.38
			l0.059-0.23c2.287-8.982-3.139-18.118-12.121-20.405l0,0c-8.982-2.288-18.118,3.139-20.406,12.121l-0.788,3.094
			c-27.988,0.487-47.996,15.469-53.904,38.664c-6.482,25.451,8.479,46.127,34.92,63.839c18.987,12.663,25.693,21.084,22.968,31.784
			c-2.92,11.467-14.426,16.536-32.519,11.927c-9.573-2.438-18.557-6.563-26.184-11.185c-8.41-5.097-19.363-2.126-23.986,6.554l0,0
			c-4.325,8.121-1.426,18.164,6.507,22.825c7.675,4.51,17.175,8.876,27.27,11.998l-0.041,0.161
			c-2.288,8.982,3.139,18.118,12.121,20.405l0,0c8.982,2.288,18.118-3.139,20.405-12.121l0.792-3.107
			C2698.365,1248.33,2717.498,1231.473,2723.355,1208.476z"/>
	</g>
	<g id="_x34_">
		
			<ellipse transform="matrix(0.9754 -0.2204 0.2204 0.9754 -235.8228 544.282)" style="fill:#FFB12A;" cx="2321.18" cy="1328.934" rx="98.931" ry="98.931"/>
		<path style="fill:#FACE6C;" d="M2324.066,1414.011c-43.651,1.513-82.062-30.722-87.396-74.868
			c-5.629-46.599,27.701-89.089,74.299-94.719c46.598-5.626,89.089,27.701,94.719,74.299c5.63,46.598-27.701,89.089-74.299,94.719
			C2328.938,1413.738,2326.49,1413.927,2324.066,1414.011z M2318.423,1247.664c-2.319,0.08-4.651,0.26-6.996,0.544
			c-44.513,5.377-76.351,45.966-70.973,90.479c5.094,42.168,41.79,72.962,83.484,71.517c2.318-0.08,4.65-0.26,6.995-0.544
			c44.513-5.378,76.351-45.967,70.973-90.479C2396.811,1277.013,2360.117,1246.218,2318.423,1247.664z"/>
		<path style="fill:#FACE6C;" d="M2359.56,1346.409c-1.813-15.005-11.692-23.707-31.333-28.461
			c-14.396-3.536-20.635-5.807-21.45-12.549c-0.656-5.428,3.748-10.867,14.199-12.129c4.969-0.6,9.404-0.421,13.164,0.094
			c5.407,0.741,10.393-3.026,11.201-8.424l0,0c0.825-5.509-3.004-10.694-8.532-11.384c-3.799-0.474-8.1-0.635-12.953-0.326
			l-0.017-0.14c-0.661-5.472-5.632-9.371-11.104-8.71l0,0c-5.471,0.661-9.371,5.632-8.71,11.104l0.228,1.885
			c-15.414,6.282-23.29,18.887-21.583,33.017c1.873,15.504,14.61,23.755,33.075,27.896c13.248,2.942,18.775,6.171,19.563,12.69
			c0.844,6.985-4.447,12.267-15.469,13.599c-5.831,0.704-11.699,0.347-16.921-0.577c-5.758-1.02-11.193,2.981-11.892,8.787l0,0
			c-0.654,5.432,3.111,10.378,8.511,11.258c5.224,0.852,11.429,1.232,17.697,0.795l0.012,0.098c0.661,5.472,5.633,9.371,11.104,8.71
			l0,0c5.471-0.661,9.371-5.632,8.71-11.104l-0.229-1.893C2354.265,1373.875,2361.252,1360.418,2359.56,1346.409z"/>
	</g>
	<g id="_x33_">
		<path style="fill:#FFB12A;" d="M2641.467,1696.933h-396.835c-11.939,0-21.617-9.678-21.617-21.617v-1.558
			c0-11.939,9.678-21.617,21.617-21.617h396.835c11.939,0,21.617,9.678,21.617,21.617v1.558
			C2663.084,1687.255,2653.406,1696.933,2641.467,1696.933z"/>
		<rect x="2255.941" y="1652.14" style="fill:#FACE6C;" width="5.142" height="44.793"/>
		<rect x="2286.698" y="1652.14" style="fill:#FACE6C;" width="5.142" height="44.793"/>
		<rect x="2317.454" y="1652.14" style="fill:#FACE6C;" width="5.142" height="44.793"/>
		<rect x="2348.21" y="1652.14" style="fill:#FACE6C;" width="5.142" height="44.793"/>
		<rect x="2378.966" y="1652.14" style="fill:#FACE6C;" width="5.142" height="44.793"/>
		<rect x="2409.722" y="1652.14" style="fill:#FACE6C;" width="5.142" height="44.793"/>
		<rect x="2440.478" y="1652.14" style="fill:#FACE6C;" width="5.142" height="44.793"/>
		<rect x="2471.234" y="1652.14" style="fill:#FACE6C;" width="5.142" height="44.793"/>
		<rect x="2501.99" y="1652.14" style="fill:#FACE6C;" width="5.142" height="44.793"/>
		<rect x="2532.747" y="1652.14" style="fill:#FACE6C;" width="5.142" height="44.793"/>
		<rect x="2563.503" y="1652.14" style="fill:#FACE6C;" width="5.142" height="44.793"/>
		<rect x="2594.259" y="1652.14" style="fill:#FACE6C;" width="5.142" height="44.793"/>
		<rect x="2625.015" y="1652.14" style="fill:#FACE6C;" width="5.142" height="44.793"/>
		<path style="fill:#FFB12A;" d="M2626.292,1652.14h-396.835c-11.939,0-21.617-9.679-21.617-21.617v-1.558
			c0-11.939,9.678-21.617,21.617-21.617h396.835c11.939,0,21.617,9.678,21.617,21.617v1.558
			C2647.909,1642.462,2638.231,1652.14,2626.292,1652.14z"/>
		<rect x="2240.767" y="1607.348" style="fill:#FACE6C;" width="5.142" height="44.793"/>
		<rect x="2271.523" y="1607.348" style="fill:#FACE6C;" width="5.142" height="44.793"/>
		<rect x="2302.279" y="1607.348" style="fill:#FACE6C;" width="5.142" height="44.793"/>
		<rect x="2333.035" y="1607.348" style="fill:#FACE6C;" width="5.142" height="44.793"/>
		<rect x="2363.791" y="1607.348" style="fill:#FACE6C;" width="5.142" height="44.793"/>
		<rect x="2394.547" y="1607.348" style="fill:#FACE6C;" width="5.142" height="44.793"/>
		<rect x="2425.303" y="1607.348" style="fill:#FACE6C;" width="5.142" height="44.793"/>
		<rect x="2456.059" y="1607.348" style="fill:#FACE6C;" width="5.142" height="44.793"/>
		<rect x="2486.816" y="1607.348" style="fill:#FACE6C;" width="5.142" height="44.793"/>
		<rect x="2517.572" y="1607.348" style="fill:#FACE6C;" width="5.142" height="44.793"/>
		<rect x="2548.328" y="1607.348" style="fill:#FACE6C;" width="5.142" height="44.793"/>
		<rect x="2579.084" y="1607.348" style="fill:#FACE6C;" width="5.142" height="44.793"/>
		<rect x="2609.84" y="1607.348" style="fill:#FACE6C;" width="5.142" height="44.793"/>
		<path style="fill:#FFB12A;" d="M2641.467,1786.519h-396.835c-11.939,0-21.617-9.679-21.617-21.617v-1.558
			c0-11.939,9.678-21.617,21.617-21.617h396.835c11.939,0,21.617,9.678,21.617,21.617v1.558
			C2663.084,1776.84,2653.406,1786.519,2641.467,1786.519z"/>
		<rect x="2255.941" y="1741.726" style="fill:#FACE6C;" width="5.142" height="44.793"/>
		<rect x="2286.698" y="1741.726" style="fill:#FACE6C;" width="5.142" height="44.793"/>
		<rect x="2317.454" y="1741.726" style="fill:#FACE6C;" width="5.142" height="44.793"/>
		<rect x="2348.21" y="1741.726" style="fill:#FACE6C;" width="5.142" height="44.793"/>
		<rect x="2378.966" y="1741.726" style="fill:#FACE6C;" width="5.142" height="44.793"/>
		<rect x="2409.722" y="1741.726" style="fill:#FACE6C;" width="5.142" height="44.793"/>
		<rect x="2440.478" y="1741.726" style="fill:#FACE6C;" width="5.142" height="44.793"/>
		<rect x="2471.234" y="1741.726" style="fill:#FACE6C;" width="5.142" height="44.793"/>
		<rect x="2501.99" y="1741.726" style="fill:#FACE6C;" width="5.142" height="44.793"/>
		<rect x="2532.747" y="1741.726" style="fill:#FACE6C;" width="5.142" height="44.793"/>
		<rect x="2563.503" y="1741.726" style="fill:#FACE6C;" width="5.142" height="44.793"/>
		<rect x="2594.259" y="1741.726" style="fill:#FACE6C;" width="5.142" height="44.793"/>
		<rect x="2625.015" y="1741.726" style="fill:#FACE6C;" width="5.142" height="44.793"/>
		<path style="fill:#FFB12A;" d="M2595.536,1741.726h-396.835c-11.939,0-21.617-9.678-21.617-21.617v-1.558
			c0-11.939,9.678-21.617,21.617-21.617h396.835c11.939,0,21.617,9.679,21.617,21.617v1.558
			C2617.153,1732.048,2607.475,1741.726,2595.536,1741.726z"/>
		<rect x="2210.011" y="1696.933" style="fill:#FACE6C;" width="5.142" height="44.793"/>
		<rect x="2240.767" y="1696.933" style="fill:#FACE6C;" width="5.142" height="44.793"/>
		<rect x="2271.523" y="1696.933" style="fill:#FACE6C;" width="5.142" height="44.793"/>
		<rect x="2302.279" y="1696.933" style="fill:#FACE6C;" width="5.142" height="44.793"/>
		<rect x="2333.035" y="1696.933" style="fill:#FACE6C;" width="5.142" height="44.793"/>
		<rect x="2363.791" y="1696.933" style="fill:#FACE6C;" width="5.142" height="44.793"/>
		<rect x="2394.547" y="1696.933" style="fill:#FACE6C;" width="5.142" height="44.793"/>
		<rect x="2425.303" y="1696.933" style="fill:#FACE6C;" width="5.142" height="44.793"/>
		<rect x="2456.059" y="1696.933" style="fill:#FACE6C;" width="5.142" height="44.793"/>
		<rect x="2486.816" y="1696.933" style="fill:#FACE6C;" width="5.142" height="44.793"/>
		<rect x="2517.572" y="1696.933" style="fill:#FACE6C;" width="5.142" height="44.793"/>
		<rect x="2548.328" y="1696.933" style="fill:#FACE6C;" width="5.142" height="44.793"/>
		<rect x="2579.084" y="1696.933" style="fill:#FACE6C;" width="5.142" height="44.793"/>
		<path style="fill:#FFB12A;" d="M2580.646,1607.347h-396.835c-11.939,0-21.617-9.678-21.617-21.617v-1.558
			c0-11.939,9.678-21.617,21.617-21.617h396.835c11.939,0,21.617,9.678,21.617,21.617v1.558
			C2602.263,1597.669,2592.585,1607.347,2580.646,1607.347z"/>
		<rect x="2195.121" y="1562.554" style="fill:#FACE6C;" width="5.142" height="44.793"/>
		<rect x="2225.877" y="1562.554" style="fill:#FACE6C;" width="5.142" height="44.793"/>
		<rect x="2256.633" y="1562.554" style="fill:#FACE6C;" width="5.142" height="44.793"/>
		<rect x="2287.389" y="1562.554" style="fill:#FACE6C;" width="5.142" height="44.793"/>
		<rect x="2318.146" y="1562.554" style="fill:#FACE6C;" width="5.142" height="44.793"/>
		<rect x="2348.902" y="1562.554" style="fill:#FACE6C;" width="5.142" height="44.793"/>
		<rect x="2379.657" y="1562.554" style="fill:#FACE6C;" width="5.142" height="44.793"/>
		<rect x="2410.414" y="1562.554" style="fill:#FACE6C;" width="5.142" height="44.793"/>
		<rect x="2441.17" y="1562.554" style="fill:#FACE6C;" width="5.142" height="44.793"/>
		<rect x="2471.926" y="1562.554" style="fill:#FACE6C;" width="5.142" height="44.793"/>
		<rect x="2502.682" y="1562.554" style="fill:#FACE6C;" width="5.142" height="44.793"/>
		<rect x="2533.438" y="1562.554" style="fill:#FACE6C;" width="5.142" height="44.793"/>
		<rect x="2564.194" y="1562.554" style="fill:#FACE6C;" width="5.142" height="44.793"/>
		<path style="fill:#FFB12A;" d="M2599.955,1562.936H2203.12c-11.939,0-21.617-9.678-21.617-21.617v-1.558
			c0-11.939,9.678-21.617,21.617-21.617h396.835c11.939,0,21.617,9.678,21.617,21.617v1.558
			C2621.573,1553.257,2611.894,1562.936,2599.955,1562.936z"/>
		<rect x="2214.43" y="1518.143" style="fill:#FACE6C;" width="5.142" height="44.793"/>
		<rect x="2245.187" y="1518.143" style="fill:#FACE6C;" width="5.142" height="44.793"/>
		<rect x="2275.942" y="1518.143" style="fill:#FACE6C;" width="5.142" height="44.793"/>
		<rect x="2306.699" y="1518.143" style="fill:#FACE6C;" width="5.142" height="44.793"/>
		<rect x="2337.455" y="1518.143" style="fill:#FACE6C;" width="5.142" height="44.793"/>
		<rect x="2368.211" y="1518.143" style="fill:#FACE6C;" width="5.142" height="44.793"/>
		<rect x="2398.967" y="1518.143" style="fill:#FACE6C;" width="5.142" height="44.793"/>
		<rect x="2429.723" y="1518.143" style="fill:#FACE6C;" width="5.142" height="44.793"/>
		<rect x="2460.479" y="1518.143" style="fill:#FACE6C;" width="5.142" height="44.793"/>
		<rect x="2491.235" y="1518.143" style="fill:#FACE6C;" width="5.142" height="44.793"/>
		<rect x="2521.991" y="1518.143" style="fill:#FACE6C;" width="5.142" height="44.793"/>
		<rect x="2552.747" y="1518.143" style="fill:#FACE6C;" width="5.142" height="44.793"/>
		<rect x="2583.504" y="1518.143" style="fill:#FACE6C;" width="5.142" height="44.793"/>
	</g>
	<g id="_x32_">
		<path style="fill:#606A97;" d="M1347.086,1786.631h-235.321c-27.247,0-49.335-22.088-49.335-49.335v-258.048
			c0-27.247,22.088-49.335,49.335-49.335h235.321c27.247,0,49.335,22.088,49.335,49.335v258.048
			C1396.421,1764.543,1374.333,1786.631,1347.086,1786.631z"/>
		<path style="fill:#A2C3F2;" d="M1324.205,1536.242h-189.56c-23.517,0-42.581-19.064-42.581-42.581v0
			c0-23.517,19.064-42.581,42.581-42.581h189.56c23.517,0,42.581,19.064,42.581,42.581v0
			C1366.786,1517.178,1347.722,1536.242,1324.205,1536.242z"/>
		<path style="fill:#404660;" d="M1127.425,1615.556L1127.425,1615.556c-14.853,0-26.893-12.041-26.893-26.893l0,0
			c0-14.853,12.04-26.893,26.893-26.893h0c14.853,0,26.893,12.041,26.893,26.893l0,0
			C1154.318,1603.515,1142.277,1615.556,1127.425,1615.556z"/>
		<path style="fill:#404660;" d="M1198.247,1615.556L1198.247,1615.556c-14.853,0-26.893-12.041-26.893-26.893l0,0
			c0-14.853,12.041-26.893,26.893-26.893l0,0c14.853,0,26.893,12.041,26.893,26.893l0,0
			C1225.141,1603.515,1213.1,1615.556,1198.247,1615.556z"/>
		<path style="fill:#404660;" d="M1269.07,1615.556L1269.07,1615.556c-14.853,0-26.893-12.041-26.893-26.893l0,0
			c0-14.853,12.04-26.893,26.893-26.893h0c14.853,0,26.893,12.041,26.893,26.893l0,0
			C1295.963,1603.515,1283.923,1615.556,1269.07,1615.556z"/>
		<path style="fill:#404660;" d="M1127.425,1690.509L1127.425,1690.509c-14.853,0-26.893-12.041-26.893-26.893l0,0
			c0-14.853,12.04-26.893,26.893-26.893h0c14.853,0,26.893,12.041,26.893,26.893l0,0
			C1154.318,1678.469,1142.277,1690.509,1127.425,1690.509z"/>
		<path style="fill:#404660;" d="M1198.247,1690.509L1198.247,1690.509c-14.853,0-26.893-12.041-26.893-26.893l0,0
			c0-14.853,12.041-26.893,26.893-26.893l0,0c14.853,0,26.893,12.041,26.893,26.893l0,0
			C1225.141,1678.469,1213.1,1690.509,1198.247,1690.509z"/>
		<path style="fill:#404660;" d="M1339.893,1690.509L1339.893,1690.509c-14.853,0-26.893-12.041-26.893-26.893v-74.954
			c0-14.853,12.04-26.893,26.893-26.893l0,0c14.853,0,26.893,12.041,26.893,26.893v74.954
			C1366.786,1678.469,1354.746,1690.509,1339.893,1690.509z"/>
		<path style="fill:#404660;" d="M1269.07,1690.509L1269.07,1690.509c-14.853,0-26.893-12.041-26.893-26.893l0,0
			c0-14.853,12.04-26.893,26.893-26.893h0c14.853,0,26.893,12.041,26.893,26.893l0,0
			C1295.963,1678.469,1283.923,1690.509,1269.07,1690.509z"/>
		<path style="fill:#404660;" d="M1127.425,1765.463L1127.425,1765.463c-14.853,0-26.893-12.04-26.893-26.893l0,0
			c0-14.853,12.04-26.893,26.893-26.893h0c14.853,0,26.893,12.041,26.893,26.893l0,0
			C1154.318,1753.423,1142.277,1765.463,1127.425,1765.463z"/>
		<path style="fill:#404660;" d="M1198.247,1765.463L1198.247,1765.463c-14.853,0-26.893-12.04-26.893-26.893l0,0
			c0-14.853,12.041-26.893,26.893-26.893l0,0c14.853,0,26.893,12.041,26.893,26.893l0,0
			C1225.141,1753.423,1213.1,1765.463,1198.247,1765.463z"/>
		<path style="fill:#FF593A;" d="M1339.893,1765.463L1339.893,1765.463c-14.853,0-26.893-12.04-26.893-26.893l0,0
			c0-14.853,12.04-26.893,26.893-26.893l0,0c14.853,0,26.893,12.041,26.893,26.893l0,0
			C1366.786,1753.423,1354.746,1765.463,1339.893,1765.463z"/>
		<path style="fill:#404660;" d="M1269.07,1765.463L1269.07,1765.463c-14.853,0-26.893-12.04-26.893-26.893l0,0
			c0-14.853,12.04-26.893,26.893-26.893h0c14.853,0,26.893,12.041,26.893,26.893l0,0
			C1295.963,1753.423,1283.923,1765.463,1269.07,1765.463z"/>
	</g>
	<path id="_x31_" style="fill:#30313C;" d="M3144.592,1880.229H255.409c-1.901,0-3.442-1.541-3.442-3.442s1.541-3.442,3.442-3.442
		h2889.183c1.901,0,3.442,1.541,3.442,3.442S3146.493,1880.229,3144.592,1880.229z"/>
</g>
</svg>
